{"glyphs":{"0":{"ha":868,"x_min":25,"x_max":838,"o":"m 444 1050 q 583 1017 524 1050 q 687 931 643 985 q 760 807 731 876 q 806 663 789 738 q 831 517 824 589 q 838 383 838 444 q 736 66 838 176 q 424 -44 635 -44 q 122 60 218 -44 q 25 365 25 164 q 33 505 25 429 q 61 656 42 581 q 113 803 81 732 q 191 930 144 875 q 300 1017 238 985 q 444 1050 363 1050 m 254 686 q 268 601 254 640 q 306 531 282 561 q 361 484 329 501 q 429 467 393 467 q 503 486 468 467 q 566 538 539 506 q 610 611 593 569 q 626 699 626 653 q 611 780 626 742 q 570 847 596 818 q 510 893 544 876 q 439 910 476 910 q 367 892 400 910 q 308 844 333 875 q 269 773 283 814 q 254 686 254 732 z "},"1":{"ha":975,"x_min":35,"x_max":949,"o":"m 710 846 q 706 763 710 806 q 696 674 703 719 l 685 583 q 674 494 678 538 q 671 411 671 450 q 674 361 671 390 q 685 305 676 332 q 710 258 693 278 q 756 239 726 239 q 813 251 786 239 q 869 264 840 264 q 908 251 893 264 q 933 221 924 239 q 945 181 942 203 q 949 142 949 160 q 926 57 949 92 q 868 0 904 22 q 786 -35 832 -22 q 692 -53 740 -47 q 599 -60 644 -58 q 518 -61 553 -61 q 442 -60 489 -61 q 343 -53 396 -58 q 237 -36 290 -47 q 140 -6 183 -25 q 70 43 97 14 q 43 114 43 72 q 78 221 43 178 q 181 264 114 264 q 248 254 215 264 q 314 244 281 244 q 400 278 365 244 q 456 364 435 311 q 488 482 478 417 q 503 612 499 547 q 507 733 507 676 q 507 825 507 790 q 506 871 507 840 q 500 931 506 901 q 481 983 494 961 q 444 1006 468 1006 q 378 989 406 1006 q 332 945 350 972 q 305 885 314 918 q 296 817 296 851 q 290 758 296 786 q 269 710 283 731 q 230 676 254 689 q 171 664 206 664 q 75 697 115 664 q 35 788 35 729 q 78 905 35 853 q 183 994 121 957 q 317 1050 246 1031 q 442 1069 388 1069 q 556 1058 506 1069 q 640 1022 606 1047 q 692 953 674 996 q 710 846 710 910 z "},"2":{"ha":1038,"x_min":19,"x_max":1028,"o":"m 506 1050 q 649 1035 585 1050 q 760 991 714 1019 q 831 922 806 963 q 856 833 856 882 q 822 722 856 774 q 738 624 788 669 q 628 539 688 579 q 518 461 568 499 q 434 388 468 424 q 400 317 400 353 q 414 274 400 294 q 451 238 428 253 q 504 213 474 222 q 567 203 535 203 q 637 215 603 203 q 697 245 671 226 q 738 289 722 264 q 754 340 754 314 q 783 399 754 376 q 857 422 811 422 q 925 406 894 422 q 978 359 956 389 q 1014 288 1001 329 q 1026 199 1026 247 q 935 5 1028 68 q 650 -58 843 -58 q 538 -61 600 -58 q 410 -64 476 -64 q 275 -58 342 -64 q 156 -33 208 -51 q 71 22 104 -14 q 35 114 38 57 l 33 122 q 76 254 33 193 q 183 371 119 315 q 323 476 247 426 q 463 573 399 526 q 569 664 526 619 q 613 751 613 708 q 575 822 613 793 q 482 850 538 850 q 387 823 426 850 q 312 763 347 796 q 238 703 276 731 q 143 676 199 676 q 53 706 88 676 q 19 785 19 736 q 59 885 19 838 q 166 970 99 933 q 322 1028 233 1007 q 506 1050 410 1050 z "},"3":{"ha":842,"x_min":17,"x_max":825,"o":"m 419 1064 q 545 1050 488 1064 q 644 1011 603 1036 q 709 951 686 986 q 732 875 732 917 q 711 804 732 835 q 658 751 690 774 q 590 712 626 728 q 521 685 553 696 q 468 668 489 675 q 447 657 447 661 q 475 646 447 651 q 545 628 503 640 q 636 594 588 615 q 727 536 685 572 q 797 446 769 500 q 825 315 825 392 q 797 179 825 240 q 715 76 768 118 q 589 10 663 33 q 424 -14 515 -14 q 261 8 335 -14 q 134 69 188 29 q 51 163 81 108 q 21 281 21 217 q 36 368 21 328 q 78 438 51 408 q 143 485 106 468 q 224 501 181 501 q 306 469 281 501 q 331 363 331 436 q 404 235 331 235 q 452 247 429 235 q 492 281 475 260 q 519 328 508 301 q 529 385 529 356 q 513 451 529 424 q 473 498 497 478 q 421 534 449 518 q 369 567 393 550 q 328 601 344 583 q 313 644 313 619 q 328 690 313 669 q 369 729 344 711 q 421 764 393 747 q 473 799 449 781 q 513 836 497 817 q 529 879 529 856 q 494 940 529 915 q 406 964 458 964 q 343 953 372 964 q 292 924 314 943 q 257 881 269 906 q 244 826 244 856 q 209 745 244 778 q 121 713 174 713 q 45 740 74 713 q 17 817 17 768 q 49 912 17 867 q 137 990 82 957 q 265 1044 192 1024 q 419 1064 339 1064 z "},"4":{"ha":1044,"x_min":18,"x_max":1022,"o":"m 836 589 q 859 601 849 589 q 882 628 869 614 q 910 656 894 643 q 949 668 926 668 q 985 656 971 668 q 1008 625 1000 643 q 1019 586 1017 607 q 1022 549 1022 565 q 1017 501 1022 528 q 1002 452 1013 475 q 974 414 992 429 q 928 399 956 399 q 893 406 910 399 q 862 422 876 413 q 835 438 847 431 q 814 444 824 444 q 796 438 804 444 q 781 422 788 432 q 772 403 775 413 q 768 385 768 393 q 784 336 768 364 q 820 276 800 308 q 856 210 840 244 q 872 139 872 175 q 847 60 872 93 q 783 7 821 28 q 700 -24 744 -14 q 618 -33 656 -33 q 553 -27 592 -33 q 481 -6 515 -21 q 422 35 446 10 q 397 96 397 60 q 431 179 397 136 q 506 263 465 222 q 581 341 547 304 q 615 406 615 378 q 606 430 615 421 q 584 444 597 439 q 556 452 571 450 q 531 454 542 454 q 449 435 493 454 q 359 394 406 417 q 265 353 313 372 q 171 335 217 335 q 103 352 132 335 q 55 397 74 369 q 27 458 36 424 q 18 526 18 492 q 41 656 18 590 q 104 785 64 722 q 198 902 144 847 q 313 998 251 957 q 440 1063 374 1039 q 569 1086 506 1086 q 738 1026 688 1086 q 788 853 788 967 q 785 793 788 822 q 783 735 783 764 q 785 701 783 725 q 793 651 788 676 q 809 608 799 626 q 836 589 819 589 m 308 588 q 322 564 308 572 q 355 551 336 556 q 393 546 374 547 q 422 544 413 544 q 496 554 467 544 q 542 590 525 564 q 565 660 558 615 q 572 772 572 704 q 572 815 572 782 q 567 885 571 849 q 557 951 564 922 q 538 979 550 979 q 501 955 524 979 q 452 892 478 931 q 401 808 426 854 q 355 718 375 761 q 322 640 335 675 q 308 588 308 604 z "},"5":{"ha":950,"x_min":21,"x_max":917,"o":"m 878 936 q 839 854 878 885 q 733 825 800 824 q 633 841 683 825 q 538 876 583 857 q 451 910 492 894 q 379 926 410 926 q 341 919 360 926 q 307 901 322 913 q 282 876 292 890 q 272 849 272 863 q 313 800 272 819 q 417 781 354 781 q 503 790 465 781 q 589 800 542 800 q 718 772 658 800 q 822 692 778 743 q 892 574 867 642 q 917 426 917 506 q 877 244 917 328 q 767 101 838 161 q 599 7 696 40 q 385 -26 501 -26 q 44 282 44 -26 q 84 454 44 392 q 194 517 124 517 q 272 492 240 517 q 303 431 303 467 q 311 403 303 413 q 331 390 319 393 q 356 388 343 388 q 378 388 368 388 q 444 403 411 388 q 504 444 478 418 q 547 503 531 469 q 564 571 564 536 q 553 626 564 600 q 524 673 542 653 q 485 706 506 693 q 443 718 464 718 q 393 697 417 718 q 342 650 369 675 q 282 603 315 625 q 201 582 249 582 q 128 600 161 582 q 71 650 94 618 q 34 727 47 682 q 21 828 21 772 q 47 953 21 901 q 131 1038 74 1006 q 279 1086 188 1071 q 501 1101 371 1101 q 547 1101 514 1101 q 621 1095 579 1100 q 708 1081 663 1090 q 791 1052 753 1071 q 853 1005 829 1033 q 878 936 878 976 z "},"6":{"ha":861,"x_min":15,"x_max":840,"o":"m 811 876 q 785 810 811 836 q 721 783 758 783 q 647 810 682 783 q 581 869 613 838 q 517 928 549 901 q 453 956 486 956 q 397 938 426 956 q 345 891 368 919 q 307 828 322 863 q 292 763 292 794 q 343 703 292 703 q 380 708 360 703 q 425 721 400 714 q 482 733 450 728 q 553 739 514 739 q 766 660 692 739 q 840 433 840 581 q 810 253 840 336 q 725 108 779 169 q 597 12 671 47 q 438 -24 524 -24 q 269 17 346 -24 q 135 130 192 58 q 47 301 79 201 q 15 517 15 400 q 50 733 15 638 q 149 897 85 829 q 304 1000 213 964 q 510 1036 396 1036 q 631 1024 576 1036 q 726 991 686 1013 q 789 940 767 969 q 811 876 811 911 m 321 478 q 331 417 321 447 q 358 363 342 388 q 396 324 375 339 q 438 310 417 310 q 489 330 463 310 q 537 382 515 350 q 572 453 558 414 q 585 532 585 493 q 556 625 585 590 q 479 660 526 660 q 420 644 449 660 q 369 604 392 629 q 334 547 347 579 q 321 478 321 514 z "},"7":{"ha":828,"x_min":19,"x_max":803,"o":"m 392 1090 q 703 985 603 1090 q 803 656 803 879 q 764 380 803 510 q 660 152 725 250 q 507 -3 594 54 q 321 -61 419 -61 q 228 -46 271 -61 q 153 -4 185 -31 q 103 58 121 22 q 85 136 85 94 q 121 253 85 197 q 212 364 157 310 q 331 470 267 418 q 449 574 394 522 q 540 678 504 625 q 576 785 576 731 q 565 843 576 815 q 532 892 553 871 q 484 926 511 914 q 428 939 457 939 q 353 915 385 939 q 292 864 322 892 q 230 813 263 836 q 151 789 197 789 q 101 798 125 789 q 58 823 76 807 q 30 860 40 839 q 19 907 19 882 q 48 979 19 946 q 126 1038 76 1013 q 244 1076 176 1063 q 392 1090 313 1090 z "},"8":{"ha":1031,"x_min":42,"x_max":990,"o":"m 897 878 q 878 808 897 839 q 838 752 860 776 q 797 710 815 728 q 778 678 778 692 q 794 661 778 667 q 833 649 810 656 q 884 629 857 642 q 935 591 911 617 q 974 521 958 565 q 990 407 990 476 q 955 223 990 306 q 855 81 919 140 q 700 -12 790 21 q 501 -44 610 -44 q 314 -18 399 -44 q 169 52 229 8 q 75 152 108 96 q 42 269 42 208 q 69 397 42 344 q 138 487 97 450 q 227 548 179 524 q 316 588 275 572 q 385 615 357 604 q 413 639 413 626 q 394 660 413 649 q 346 685 375 671 q 284 717 317 700 q 222 757 251 735 q 174 807 193 779 q 156 868 156 835 q 183 964 156 921 q 258 1038 210 1007 q 374 1087 307 1069 q 522 1104 442 1104 q 803 1047 708 1104 q 897 878 897 990 m 517 988 q 469 979 493 988 q 427 956 446 971 q 397 924 408 942 q 385 885 385 906 q 395 854 385 869 q 424 826 406 839 q 464 806 442 814 q 510 797 486 797 q 553 806 532 797 q 590 828 574 814 q 615 859 606 842 q 625 893 625 876 q 595 962 625 936 q 517 988 565 988 m 547 517 q 438 487 478 517 q 399 404 399 457 q 506 321 399 321 q 617 353 574 321 q 660 438 660 385 q 547 517 660 517 z "},"9":{"ha":801,"x_min":29,"x_max":772,"o":"m 772 588 q 742 323 772 440 q 654 123 711 206 q 516 -3 597 40 q 332 -47 435 -47 q 211 -29 267 -47 q 115 20 156 -11 q 52 96 75 51 q 29 192 29 140 q 44 272 29 233 q 83 338 58 310 q 142 383 108 367 q 213 400 175 400 q 280 380 256 400 q 322 335 304 360 q 356 291 339 311 q 400 271 372 271 q 463 298 432 271 q 520 369 494 325 q 562 466 546 413 q 578 572 578 519 q 577 589 578 576 q 573 615 576 601 q 562 638 569 628 q 540 649 554 649 q 490 630 521 649 q 419 588 458 611 q 334 547 379 565 q 243 528 289 528 q 158 548 197 528 q 91 603 119 568 q 46 685 63 638 q 29 786 29 732 q 56 913 29 856 q 131 1010 83 969 q 247 1074 179 1051 q 396 1097 315 1097 q 772 588 772 1097 m 378 781 q 458 814 426 781 q 490 896 490 847 q 465 972 490 940 q 407 1004 440 1004 q 363 991 386 1004 q 322 958 340 978 q 291 913 303 938 q 279 865 279 889 q 308 805 279 829 q 378 781 336 781 z "},"\u0000":{"ha":0,"x_min":0,"x_max":0,"o":""},"\r":{"ha":347,"x_min":0,"x_max":0,"o":""}," ":{"ha":556,"x_min":0,"x_max":0,"o":""}," ":{"ha":556,"x_min":0,"x_max":0,"o":""},"!":{"ha":639,"x_min":75,"x_max":515,"o":"m 108 569 q 117 671 108 610 q 139 800 125 732 q 172 937 153 868 q 215 1060 192 1006 q 264 1150 239 1115 q 315 1185 289 1185 q 366 1154 342 1185 q 413 1076 390 1124 q 453 967 435 1028 q 485 848 472 907 q 506 738 499 789 q 514 654 514 686 q 515 549 514 604 q 510 442 515 494 q 492 343 506 390 q 450 260 478 296 q 377 204 422 225 q 263 183 332 183 q 192 203 221 183 q 147 257 164 224 q 122 332 131 290 q 111 417 114 374 q 108 500 108 460 q 108 569 108 540 m 75 -60 q 100 26 75 -11 q 162 90 125 64 q 240 128 199 115 q 314 142 281 142 q 381 127 347 142 q 444 88 415 113 q 490 30 472 63 q 508 -40 508 -3 q 494 -125 508 -93 q 451 -174 479 -157 q 383 -198 424 -192 q 290 -204 343 -204 q 210 -198 249 -204 q 141 -175 171 -192 q 93 -131 111 -158 q 75 -60 75 -103 z "},"\"":{"ha":778,"x_min":44,"x_max":703,"o":"m 554 725 q 462 746 496 725 q 411 800 428 767 q 390 875 394 833 q 385 958 385 917 q 396 1040 385 996 q 428 1120 407 1083 q 481 1181 450 1157 q 554 1206 513 1206 q 624 1188 596 1206 q 669 1143 651 1171 q 695 1081 688 1115 q 703 1011 703 1046 q 703 961 703 990 q 699 900 703 932 q 687 837 696 868 q 662 781 678 806 q 619 740 646 756 q 554 725 593 725 m 217 701 q 123 725 157 701 q 72 786 89 749 q 49 868 54 824 q 44 954 44 913 q 60 1032 44 992 q 99 1106 75 1072 q 154 1160 124 1139 q 217 1182 185 1182 q 276 1158 249 1182 q 323 1097 303 1133 q 355 1019 343 1061 q 367 943 367 978 q 365 871 367 913 q 349 792 363 829 q 306 728 336 754 q 217 701 275 701 z "},"#":{"ha":1243,"x_min":63,"x_max":1165,"o":"m 867 639 q 845 626 854 639 q 830 594 836 613 q 820 558 824 576 q 817 531 817 540 q 824 498 817 510 q 842 481 832 486 q 864 475 853 476 q 882 474 875 474 q 913 485 897 474 q 947 510 928 497 q 988 535 965 524 q 1036 547 1010 547 q 1090 530 1068 547 q 1124 487 1111 513 q 1144 430 1138 461 q 1150 369 1150 399 q 1135 304 1150 335 q 1097 251 1121 274 q 1042 215 1072 228 q 979 201 1011 201 q 942 206 960 201 q 906 211 925 211 q 880 199 883 211 q 883 169 876 188 q 898 128 889 150 q 908 88 907 107 l 908 83 q 895 8 908 38 q 859 -38 882 -21 q 803 -62 836 -56 q 732 -68 771 -68 q 678 -62 703 -68 q 637 -44 654 -57 q 610 -8 619 -31 q 600 50 600 15 q 609 113 600 82 q 618 176 618 144 q 617 212 618 186 q 610 265 617 238 q 590 313 604 292 q 550 335 576 335 q 501 315 519 335 q 474 270 483 296 q 461 218 464 244 q 458 178 458 192 q 465 113 458 149 q 465 45 471 76 q 435 -8 460 14 q 349 -29 411 -29 q 270 -6 303 -29 q 238 72 238 17 q 252 133 238 104 q 267 193 267 161 q 258 226 267 210 q 231 243 249 243 q 199 237 214 243 q 167 231 183 231 q 120 243 140 231 q 88 276 100 256 q 69 322 75 297 q 63 372 63 347 q 68 428 63 401 q 85 476 74 456 q 117 509 97 497 q 167 521 138 521 q 213 512 190 521 q 260 503 236 503 q 324 524 311 503 q 336 594 336 544 q 328 640 336 626 q 288 653 321 653 q 238 650 263 653 q 188 647 213 647 q 108 674 135 647 q 81 764 81 701 q 116 849 81 819 q 201 878 151 878 q 247 860 218 878 q 306 820 275 842 q 366 781 338 799 q 411 763 394 763 q 435 783 432 763 q 439 840 439 804 q 431 918 439 874 q 423 1003 422 963 q 444 1073 424 1044 q 522 1101 464 1101 q 580 1073 563 1101 q 597 1007 597 1044 q 592 948 597 976 q 586 889 586 919 q 585 860 586 878 q 588 825 585 842 q 602 796 592 808 q 633 783 613 783 q 671 795 654 783 q 699 823 688 807 q 716 854 710 839 q 722 878 722 869 q 715 947 722 906 q 713 1028 708 989 q 744 1095 718 1067 q 839 1124 771 1124 q 871 1119 853 1124 q 906 1106 889 1115 q 933 1084 922 1097 q 944 1053 944 1071 q 932 963 944 1007 q 919 874 919 919 q 932 860 919 863 q 951 857 944 857 q 1005 860 979 857 q 1057 864 1031 864 q 1132 837 1099 864 q 1165 764 1165 810 q 1131 670 1165 703 q 1040 638 1096 638 q 953 638 1004 638 q 867 639 903 639 m 594 507 q 641 532 629 507 q 653 588 653 557 q 648 625 653 613 q 617 638 643 638 q 573 610 588 638 q 558 556 558 583 q 563 519 558 532 q 594 507 567 507 z "},"$":{"ha":1015,"x_min":22,"x_max":969,"o":"m 969 285 q 942 172 969 225 q 866 77 915 119 q 748 5 817 35 q 594 -37 679 -25 q 561 -148 585 -106 q 478 -190 538 -190 q 428 -181 449 -190 q 397 -158 408 -172 q 381 -125 386 -143 q 376 -89 376 -107 q 377 -60 376 -78 q 379 -24 378 -43 q 108 53 193 -17 q 22 251 22 124 q 38 338 22 297 q 79 408 53 378 q 141 455 106 438 q 217 472 176 472 q 300 445 269 472 q 331 369 331 418 q 342 314 331 340 q 372 267 353 288 q 415 235 390 247 q 467 222 440 222 q 520 234 493 222 q 569 264 547 246 q 606 305 592 282 q 621 349 621 328 q 583 410 621 383 q 489 462 546 438 q 366 512 432 486 q 243 571 300 538 q 149 648 186 604 q 111 753 111 692 q 141 855 111 806 q 222 944 171 904 q 339 1009 272 983 q 479 1039 406 1035 q 508 1167 489 1122 q 569 1211 526 1211 q 618 1190 597 1211 q 639 1115 639 1168 q 638 1077 639 1100 q 638 1028 638 1054 q 762 990 706 1015 q 859 931 818 964 q 923 858 900 897 q 946 775 946 818 q 836 678 946 678 q 751 699 788 678 q 683 751 714 719 q 625 819 653 783 q 567 888 597 856 q 501 940 538 919 q 415 961 464 961 q 367 952 389 961 q 331 928 346 943 q 307 897 315 914 q 299 864 299 881 q 328 808 299 835 q 403 754 357 781 q 510 700 450 728 q 634 641 571 672 q 758 574 697 610 q 865 494 818 538 q 940 399 911 451 q 969 285 969 347 z "},"%":{"ha":1125,"x_min":39,"x_max":1071,"o":"m 421 815 q 377 638 421 693 q 238 582 333 582 q 39 813 39 582 q 53 931 39 878 q 95 1024 68 985 q 159 1084 122 1063 q 240 1106 196 1106 q 373 1028 325 1106 q 421 815 421 951 m 779 1099 q 795 1092 786 1099 q 812 1076 804 1086 q 825 1056 819 1067 q 831 1036 831 1044 q 816 974 831 1022 q 778 853 801 925 q 723 694 754 782 q 658 516 692 607 q 590 337 624 425 q 526 176 556 249 q 475 54 497 104 q 442 -11 453 4 q 417 -35 433 -24 q 383 -54 401 -46 q 343 -67 364 -62 q 304 -72 322 -72 q 256 -63 279 -72 q 215 -39 232 -54 q 186 -4 197 -24 q 175 36 175 15 q 197 127 175 65 q 257 269 219 189 q 342 442 294 349 q 443 627 390 535 q 549 804 496 719 q 647 955 601 889 q 727 1060 692 1021 q 779 1099 763 1099 m 169 907 q 239 831 169 831 q 294 851 275 831 q 313 910 313 872 q 291 985 313 953 q 242 1017 269 1017 q 191 984 213 1017 q 169 907 169 951 m 1071 197 q 1024 6 1071 65 q 874 -54 978 -54 q 661 193 661 -54 q 677 321 661 263 q 722 421 693 379 q 790 486 750 463 q 876 510 829 510 q 1019 426 968 510 q 1071 197 1071 343 m 775 313 q 778 285 775 300 q 789 259 781 271 q 811 240 797 247 q 847 232 825 232 q 906 254 892 232 q 921 306 921 276 q 917 344 921 325 q 906 380 914 364 q 887 406 899 396 q 858 415 875 415 q 826 404 842 415 q 799 378 811 393 q 781 344 788 363 q 775 313 775 326 z "},"&":{"ha":1111,"x_min":36,"x_max":1079,"o":"m 667 122 q 649 107 658 122 q 626 68 640 92 q 592 18 613 44 q 543 -32 572 -8 q 473 -71 514 -56 q 375 -86 432 -86 q 245 -61 307 -86 q 137 6 183 -36 q 63 105 90 49 q 36 224 36 161 q 69 350 36 297 q 140 441 101 403 q 212 508 179 479 q 244 560 244 536 q 230 598 244 576 q 199 647 215 619 q 167 711 182 675 q 153 793 153 747 q 181 907 153 853 q 255 1001 208 961 q 364 1066 301 1042 q 496 1090 426 1090 q 600 1074 553 1090 q 683 1029 647 1058 q 738 961 718 1000 q 757 876 757 922 q 740 800 757 833 q 699 741 724 767 q 644 696 674 715 q 589 662 614 676 q 547 634 564 647 q 531 608 531 621 q 542 578 531 597 q 573 536 554 558 q 615 492 592 514 q 660 451 638 469 q 701 420 682 432 q 731 408 719 408 q 756 426 744 408 q 780 469 768 443 q 806 526 792 496 q 839 582 821 556 q 881 626 857 608 q 938 643 906 643 q 990 630 965 643 q 1035 596 1015 617 q 1067 548 1056 575 q 1079 492 1079 521 q 1064 433 1079 458 q 1025 388 1049 407 q 974 353 1001 368 q 924 324 947 338 q 885 296 900 310 q 869 265 869 282 q 895 217 869 243 q 952 163 921 192 q 1009 100 983 133 q 1035 29 1035 67 q 1020 -21 1035 3 q 981 -62 1006 -44 q 924 -91 956 -81 q 856 -101 892 -101 q 781 -85 811 -101 q 733 -43 751 -68 q 706 10 715 -18 q 690 64 696 39 q 680 106 685 89 q 667 122 675 122 m 411 840 q 432 776 411 801 q 486 751 453 751 q 538 765 510 751 q 590 799 565 779 q 631 843 614 819 q 647 886 647 867 q 637 917 647 901 q 610 946 626 933 q 574 966 594 958 q 533 974 554 974 q 488 963 510 974 q 449 933 465 951 q 422 890 432 914 q 411 840 411 867 m 244 343 q 256 300 244 321 q 284 263 267 279 q 324 236 301 246 q 371 226 347 226 q 428 244 404 226 q 451 290 451 263 q 437 341 451 311 q 402 398 422 371 q 360 444 382 425 q 322 464 338 464 q 296 452 310 464 q 271 423 282 440 q 252 384 260 406 q 244 343 244 363 z "},"'":{"ha":413,"x_min":53,"x_max":368,"o":"m 217 701 q 126 724 158 701 q 76 781 93 746 q 56 860 60 817 q 53 944 53 903 q 67 1024 53 982 q 103 1101 81 1067 q 156 1159 126 1136 q 217 1182 185 1182 q 276 1158 249 1182 q 324 1097 304 1133 q 356 1019 344 1061 q 368 943 368 978 q 366 871 368 913 q 351 792 364 829 q 306 728 338 754 q 217 701 275 701 z "},"(":{"ha":589,"x_min":13,"x_max":556,"o":"m 556 1018 q 547 992 556 1000 q 526 983 539 985 q 497 983 514 981 q 464 985 481 985 q 390 965 419 985 q 342 912 360 944 q 315 840 324 879 q 302 762 306 800 q 299 691 299 724 q 299 640 299 658 q 316 510 299 563 q 359 418 333 457 q 415 350 385 379 q 470 292 444 321 q 513 228 496 263 q 531 143 531 193 q 484 21 531 64 q 351 -22 438 -22 q 213 12 275 -22 q 106 108 150 46 q 37 259 61 171 q 13 456 13 347 q 47 702 13 585 q 138 908 81 819 q 272 1050 196 997 q 433 1103 349 1103 q 523 1080 490 1103 q 556 1018 556 1057 z "},")":{"ha":593,"x_min":40,"x_max":567,"o":"m 40 108 q 59 210 40 164 q 106 298 78 256 q 165 383 133 340 q 225 475 197 425 q 272 587 253 525 q 290 729 290 649 q 286 802 290 757 q 272 890 282 847 q 244 965 261 933 q 200 997 226 997 q 165 994 182 997 q 131 990 149 990 q 90 1029 90 990 q 102 1067 90 1053 q 131 1090 114 1082 q 170 1100 149 1097 q 210 1103 192 1103 q 380 1057 311 1103 q 490 939 449 1011 q 549 778 532 867 q 567 606 567 690 q 557 479 567 550 q 527 336 547 408 q 476 194 507 264 q 401 71 444 125 q 301 -16 357 17 q 176 -49 246 -49 q 72 -4 103 -49 q 40 108 40 40 z "},"*":{"ha":975,"x_min":85,"x_max":911,"o":"m 85 879 q 112 933 85 913 q 183 953 139 953 q 238 946 211 953 q 288 931 264 939 q 335 917 313 924 q 379 910 358 910 q 407 925 407 910 q 383 963 407 943 q 328 1003 358 982 q 274 1050 299 1025 q 250 1104 250 1075 q 259 1137 250 1121 q 283 1165 268 1153 q 319 1184 299 1176 q 360 1192 339 1192 q 415 1172 396 1192 q 442 1122 433 1151 q 453 1057 451 1092 q 458 992 456 1022 q 464 942 460 963 q 482 922 468 922 q 507 942 496 922 q 529 992 518 963 q 553 1057 540 1022 q 581 1122 565 1092 q 618 1172 597 1151 q 665 1192 639 1192 q 719 1167 697 1192 q 742 1107 742 1142 q 728 1058 742 1081 q 700 1014 715 1035 q 672 975 685 993 q 658 940 658 957 q 682 921 658 921 q 710 926 697 921 q 738 938 724 932 q 769 949 753 944 q 807 954 786 954 q 882 930 853 954 q 911 868 911 906 q 901 824 911 846 q 874 783 890 801 q 838 753 858 765 q 799 742 818 742 q 767 749 782 742 q 736 766 753 757 q 700 783 719 775 q 656 790 681 790 q 644 789 653 790 q 635 779 635 788 q 649 756 635 769 q 683 727 663 743 q 729 693 704 711 q 775 653 754 675 q 810 608 796 632 q 824 556 824 583 q 810 505 824 529 q 775 462 797 481 q 724 432 753 443 q 664 421 696 421 q 583 449 614 421 q 533 517 551 476 q 507 607 515 558 q 492 697 499 656 q 477 765 485 738 q 454 793 469 793 q 425 763 438 793 q 413 693 413 733 q 413 638 413 675 q 404 566 414 601 q 369 503 394 531 q 292 476 344 476 q 240 485 264 476 q 197 507 215 493 q 167 540 178 521 q 157 579 157 558 q 183 647 157 615 q 242 707 210 679 q 301 758 275 735 q 328 797 328 781 q 318 810 328 808 q 300 811 308 811 q 251 806 276 811 q 196 801 225 801 q 115 822 146 801 q 85 879 85 843 z "},"+":{"ha":929,"x_min":29,"x_max":892,"o":"m 533 454 q 553 396 533 425 q 595 336 572 367 q 638 274 618 306 q 657 206 657 242 q 636 140 657 168 q 585 95 615 113 q 518 69 554 78 q 450 60 482 60 q 397 65 425 60 q 347 84 369 71 q 308 118 324 97 q 293 169 293 139 q 317 244 293 206 q 372 320 342 282 q 426 393 401 358 q 450 454 450 428 q 440 482 450 471 q 413 493 431 493 q 363 472 392 493 q 300 425 333 450 q 234 378 267 400 q 174 357 201 357 q 124 368 150 357 q 78 401 99 379 q 43 453 57 422 q 29 521 29 483 q 41 585 29 558 q 72 630 53 613 q 114 656 90 647 q 160 664 138 664 q 206 656 183 664 q 251 637 229 647 q 297 618 274 626 q 343 610 319 610 q 366 615 357 610 q 375 638 375 621 q 358 686 375 661 q 322 737 342 711 q 285 788 301 763 q 268 836 268 813 q 288 885 268 864 q 337 919 308 906 q 397 938 365 932 q 449 944 428 944 q 500 938 471 944 q 556 919 529 932 q 600 885 582 906 q 618 836 618 865 q 606 792 618 814 q 580 747 594 769 q 553 704 565 725 q 540 664 540 683 q 554 629 540 646 q 588 613 568 613 q 624 624 603 613 q 668 649 644 635 q 716 674 692 663 q 763 685 740 685 q 811 670 788 685 q 853 634 835 656 q 881 586 871 613 q 892 536 892 560 q 881 488 892 510 q 851 451 869 467 q 807 428 832 436 q 756 419 782 419 q 701 428 728 419 q 648 447 674 436 q 599 465 622 457 q 553 474 575 474 q 533 454 533 474 z "},",":{"ha":640,"x_min":74,"x_max":528,"o":"m 290 343 q 383 324 340 343 q 458 269 426 304 q 507 186 489 233 q 526 82 525 139 l 526 72 q 506 -36 528 15 q 447 -126 485 -87 q 358 -187 408 -165 q 250 -210 307 -210 q 181 -200 213 -210 q 124 -173 149 -190 q 87 -133 100 -156 q 74 -82 74 -110 q 102 -10 74 -40 q 169 21 131 21 q 207 13 190 21 q 239 -6 224 4 q 271 -25 254 -17 q 308 -33 288 -33 q 360 -17 336 -33 q 403 26 385 -1 q 432 88 421 53 q 443 163 443 124 q 424 213 443 213 q 386 197 411 213 q 330 163 361 182 q 264 129 299 144 q 197 114 229 114 q 130 140 157 114 q 103 204 103 165 q 118 258 103 232 q 159 302 133 283 q 219 332 185 321 q 290 343 253 343 z "},"-":{"ha":646,"x_min":51,"x_max":586,"o":"m 51 576 q 80 677 51 639 q 154 715 108 715 q 194 708 175 715 q 232 694 214 701 q 266 679 250 686 q 296 672 282 672 q 331 683 313 672 q 369 707 349 694 q 415 731 390 719 q 467 742 439 742 q 555 694 524 742 q 586 563 586 646 q 567 472 586 500 q 504 443 547 443 q 454 451 479 443 q 406 467 429 458 q 361 483 383 475 q 318 490 339 490 q 275 478 292 490 q 244 452 258 467 q 214 426 231 438 q 171 414 197 414 q 124 426 146 414 q 86 461 103 439 q 60 513 69 483 q 51 576 51 542 z "},".":{"ha":628,"x_min":67,"x_max":469,"o":"m 290 342 q 363 305 331 342 q 419 216 396 268 q 456 107 443 164 q 469 11 469 50 q 453 -69 469 -39 q 408 -118 436 -100 q 341 -142 379 -136 q 260 -149 303 -149 q 187 -142 221 -149 q 126 -120 153 -136 q 84 -76 100 -104 q 67 -7 68 -49 l 67 3 q 87 108 67 49 q 139 219 107 167 q 210 306 171 271 q 290 342 250 342 z "},"/":{"ha":794,"x_min":26,"x_max":731,"o":"m 689 1136 q 719 1120 708 1136 q 731 1078 731 1104 q 705 963 731 1039 q 640 792 679 888 q 556 591 601 697 q 472 385 511 485 q 408 199 433 285 q 382 60 382 114 q 333 -60 382 -14 q 207 -106 285 -106 q 80 -62 131 -106 q 26 49 29 -18 l 26 56 q 49 170 26 100 q 109 324 71 240 q 197 501 147 408 q 303 685 247 594 q 415 857 358 775 q 524 1001 472 939 q 618 1099 575 1063 q 689 1136 661 1136 z "},":":{"ha":549,"x_min":67,"x_max":471,"o":"m 311 979 q 381 958 351 979 q 431 902 411 936 q 461 827 451 868 q 471 746 471 786 q 421 609 471 649 q 285 569 371 569 q 160 613 204 569 q 117 746 117 656 q 132 834 117 792 q 174 909 147 876 q 235 960 200 942 q 311 979 271 979 m 290 342 q 363 305 331 342 q 419 216 396 268 q 456 107 443 164 q 469 11 469 50 q 453 -69 469 -39 q 408 -118 436 -100 q 341 -142 379 -136 q 260 -149 303 -149 q 187 -142 221 -149 q 126 -120 153 -136 q 84 -76 100 -104 q 67 -7 68 -49 l 67 3 q 87 108 67 49 q 139 219 107 167 q 210 306 171 271 q 290 342 250 342 z "},";":{"ha":569,"x_min":63,"x_max":517,"o":"m 311 979 q 381 958 351 979 q 431 902 411 936 q 461 827 451 868 q 471 746 471 786 q 421 609 471 649 q 285 569 371 569 q 160 613 204 569 q 117 746 117 656 q 132 834 117 792 q 174 909 147 876 q 235 960 200 942 q 311 979 271 979 m 279 343 q 372 324 329 343 q 447 269 415 304 q 496 186 478 233 q 515 82 514 139 l 515 72 q 495 -36 517 15 q 435 -126 474 -87 q 347 -187 397 -165 q 239 -210 296 -210 q 169 -200 201 -210 q 113 -173 138 -190 q 76 -133 89 -156 q 63 -82 63 -110 q 91 -10 63 -40 q 158 21 119 21 q 196 13 179 21 q 228 -6 213 4 q 260 -25 243 -17 q 297 -33 276 -33 q 349 -17 325 -33 q 392 26 374 -1 q 421 88 410 53 q 432 163 432 124 q 413 213 432 213 q 375 197 400 213 q 319 163 350 182 q 253 129 288 144 q 186 114 218 114 q 119 140 146 114 q 92 204 92 165 q 107 258 92 232 q 148 302 122 283 q 208 332 174 321 q 279 343 242 343 z "},"<":{"ha":982,"x_min":89,"x_max":849,"o":"m 89 506 q 120 585 89 539 q 202 683 151 632 q 316 785 253 735 q 443 877 379 836 q 565 943 507 918 q 664 968 624 968 q 713 958 689 968 q 756 933 738 949 q 786 896 775 917 q 797 854 797 875 q 766 795 797 818 q 689 757 735 772 q 588 731 643 742 q 488 708 533 721 q 410 680 442 696 q 379 638 379 664 q 404 594 379 614 q 468 557 429 575 q 554 524 507 539 q 647 494 601 508 q 729 465 692 479 q 786 438 767 451 q 831 372 814 417 q 849 275 849 328 q 833 176 849 224 q 792 90 818 128 q 733 30 765 53 q 664 7 700 7 q 603 21 640 7 q 494 77 551 42 q 379 157 436 113 q 269 251 322 201 q 176 347 217 300 q 113 436 136 394 q 89 506 89 478 z "},"=":{"ha":711,"x_min":78,"x_max":624,"o":"m 78 649 q 97 689 78 669 q 148 726 117 708 q 219 757 179 743 q 301 781 260 771 q 381 796 342 790 q 450 801 421 801 q 535 797 503 801 q 584 778 567 793 q 608 735 601 764 q 614 658 614 707 q 608 606 614 636 q 583 561 603 575 q 528 537 561 546 q 461 523 496 528 q 392 517 426 518 q 332 515 358 515 q 255 524 299 515 q 172 550 211 533 q 105 592 132 567 q 78 649 78 617 m 82 289 q 108 394 82 360 q 173 440 133 428 q 259 449 213 451 q 347 447 306 447 q 445 435 396 447 q 534 404 494 424 q 599 358 574 385 q 624 301 624 331 q 618 240 624 272 q 594 182 613 208 q 544 138 576 156 q 460 121 513 121 q 388 120 428 121 q 306 122 347 119 q 224 133 264 125 q 152 160 183 142 q 101 210 121 179 q 82 289 82 242 z "},">":{"ha":914,"x_min":89,"x_max":849,"o":"m 849 506 q 817 423 849 472 q 733 318 785 374 q 616 207 681 263 q 488 107 551 151 q 365 35 424 63 q 269 7 307 7 q 202 30 235 7 q 144 92 169 53 q 104 180 119 131 q 89 282 89 229 q 127 410 89 367 q 223 474 165 454 q 347 496 281 493 q 472 499 414 499 q 567 505 529 499 q 606 539 606 511 q 572 585 606 565 q 485 622 538 604 q 374 660 433 640 q 262 706 314 681 q 176 765 210 732 q 142 846 142 799 q 152 893 142 871 q 180 932 163 915 q 220 958 197 949 q 268 968 243 968 q 369 943 310 968 q 492 878 428 918 q 621 787 557 838 q 735 685 685 736 q 817 586 786 633 q 849 506 849 539 z "},"?":{"ha":722,"x_min":21,"x_max":681,"o":"m 519 919 q 509 965 519 942 q 483 1008 499 989 q 449 1038 468 1026 q 410 1050 429 1050 q 369 1035 389 1050 q 333 997 349 1021 q 307 944 317 974 q 297 883 297 914 q 288 831 297 857 q 259 785 278 806 q 215 751 240 764 q 157 738 189 738 q 97 752 122 738 q 54 790 71 767 q 29 842 38 813 q 21 899 21 871 q 51 996 21 949 q 129 1079 81 1043 q 242 1138 178 1115 q 372 1160 306 1160 q 494 1138 438 1160 q 592 1077 550 1115 q 657 986 633 1039 q 681 871 681 933 q 659 754 681 800 q 611 675 638 708 q 563 615 585 642 q 542 557 542 589 q 548 525 542 542 q 562 490 554 508 q 576 454 569 472 q 582 417 582 436 q 563 357 582 386 q 514 306 544 328 q 443 272 483 285 q 358 258 403 258 q 279 272 315 258 q 217 309 243 285 q 176 367 190 333 q 163 443 163 401 q 189 553 163 504 q 255 642 215 601 q 341 716 294 682 q 427 782 388 750 q 493 847 467 814 q 519 919 519 881 m 157 -28 q 178 66 157 22 q 231 142 200 110 q 294 192 261 174 q 351 211 328 211 q 413 196 376 211 q 482 153 449 181 q 540 86 515 125 q 564 0 564 47 q 548 -85 564 -53 q 504 -136 532 -118 q 438 -160 476 -154 q 356 -167 400 -167 q 276 -162 313 -167 q 213 -144 239 -158 q 172 -102 186 -129 q 157 -28 157 -75 z "},"@":{"ha":1357,"x_min":64,"x_max":1288,"o":"m 901 119 q 954 108 929 119 q 999 80 979 97 q 1031 40 1019 63 q 1043 -8 1043 17 q 1015 -87 1043 -44 q 940 -165 988 -129 q 829 -226 893 -201 q 693 -251 765 -250 l 686 -251 q 413 -206 529 -253 q 218 -68 296 -158 q 102 152 140 22 q 64 446 64 282 q 115 709 64 589 q 256 916 165 829 q 470 1051 346 1003 q 742 1100 594 1100 q 970 1063 869 1100 q 1142 956 1071 1026 q 1250 787 1213 886 q 1288 563 1288 688 q 1268 399 1288 472 q 1213 274 1249 326 q 1128 194 1178 222 q 1018 167 1079 167 q 944 181 972 167 q 899 210 917 194 q 868 240 881 226 q 842 254 856 254 q 812 236 825 254 q 777 197 799 218 q 722 158 756 176 q 631 140 688 140 q 512 166 567 140 q 417 238 457 192 q 356 346 378 283 q 333 482 333 408 q 360 634 333 563 q 433 759 388 706 q 540 844 479 813 q 669 875 601 875 q 761 854 728 875 q 813 809 794 833 q 840 764 831 785 q 861 743 850 743 q 876 753 869 743 q 891 776 882 764 q 913 799 900 789 q 947 810 926 810 q 1005 778 983 810 q 1026 696 1026 746 q 1012 599 1026 649 q 997 496 997 549 q 1063 399 997 399 q 1137 455 1110 399 q 1164 610 1164 511 q 1134 791 1164 710 q 1049 928 1104 872 q 914 1015 993 985 q 736 1046 835 1046 q 518 1006 619 1046 q 342 894 417 965 q 224 729 267 824 q 181 526 181 635 q 215 347 181 431 q 308 201 249 263 q 447 105 367 140 q 618 69 526 69 q 705 77 664 69 q 781 94 746 85 q 847 112 817 104 q 901 119 876 119 m 496 638 q 507 578 496 607 q 537 528 518 550 q 580 494 556 507 q 632 482 604 482 q 685 494 660 482 q 731 528 711 507 q 764 575 751 549 q 776 629 776 601 q 766 689 776 658 q 737 743 756 719 q 692 782 718 767 q 636 797 667 797 q 581 784 607 797 q 537 749 556 771 q 507 698 518 726 q 496 638 496 669 z "},"A":{"ha":1296,"x_min":1,"x_max":1299,"o":"m 1 -8 q 32 104 1 53 q 108 204 63 156 q 207 300 154 253 q 306 399 260 347 q 382 508 351 450 q 413 636 413 567 q 402 710 413 678 q 379 769 392 742 q 356 820 367 796 q 346 874 346 844 q 370 953 346 915 q 435 1019 394 990 q 531 1065 476 1049 q 643 1082 585 1082 q 738 1069 694 1082 q 815 1032 782 1056 q 865 976 847 1008 q 883 906 883 943 q 879 863 883 888 q 870 813 875 839 q 861 759 865 786 q 857 707 857 732 q 890 591 857 639 q 972 504 922 543 q 1078 429 1021 465 q 1184 349 1135 393 q 1266 248 1233 306 q 1299 108 1299 190 q 1228 -78 1299 -10 q 1038 -146 1158 -146 q 833 60 833 -146 q 819 165 833 115 q 781 251 806 214 q 725 309 757 288 q 657 331 693 331 q 597 307 619 331 q 561 244 575 283 q 538 156 547 206 q 518 54 529 106 q 491 -47 507 3 q 446 -136 475 -97 q 371 -199 417 -175 q 257 -222 325 -222 q 154 -206 201 -222 q 73 -162 107 -190 q 20 -94 39 -133 q 1 -8 1 -54 m 549 572 q 578 510 549 535 q 653 485 608 485 q 719 510 694 485 q 743 579 743 535 q 734 641 743 601 q 710 719 725 681 q 678 788 696 758 q 642 817 660 817 q 603 786 621 817 q 574 715 586 756 q 556 633 563 674 q 549 572 549 593 z "},"B":{"ha":1000,"x_min":32,"x_max":957,"o":"m 374 1094 q 562 1076 478 1094 q 705 1022 646 1057 q 796 938 764 988 q 828 828 828 889 q 802 730 828 771 q 739 660 776 689 q 656 610 701 631 q 574 576 611 590 q 510 551 536 561 q 485 528 485 540 q 519 503 485 514 q 607 480 554 493 q 721 446 660 467 q 835 390 782 425 q 922 301 888 354 q 957 169 957 249 q 905 0 957 75 q 767 -127 853 -75 q 571 -207 682 -179 q 342 -235 460 -235 q 219 -220 275 -235 q 122 -181 163 -206 q 57 -122 81 -156 q 32 -47 33 -87 l 32 -43 q 63 61 32 7 q 129 171 93 115 q 196 283 165 226 q 226 394 226 339 q 197 505 226 450 q 131 618 167 560 q 66 740 96 676 q 36 878 36 804 q 119 1042 36 989 q 374 1094 201 1094 m 443 626 q 480 635 463 626 q 511 660 497 644 q 533 694 525 675 q 542 735 542 714 q 530 788 542 760 q 500 840 518 815 q 461 880 482 864 q 422 896 440 896 q 388 883 406 896 q 356 851 371 871 q 333 807 342 831 q 324 760 324 783 q 334 712 324 736 q 362 669 344 688 q 401 638 379 650 q 443 626 422 626 m 432 83 q 486 100 457 83 q 539 142 515 117 q 578 197 563 167 q 594 253 594 226 q 581 303 594 278 q 545 349 567 328 q 497 383 524 369 q 446 396 471 396 q 387 357 406 396 q 368 231 368 318 q 383 117 368 151 q 432 83 397 83 z "},"C":{"ha":982,"x_min":46,"x_max":963,"o":"m 46 397 q 79 693 46 560 q 174 922 113 826 q 322 1069 236 1017 q 511 1122 407 1122 q 648 1098 582 1122 q 765 1034 714 1074 q 846 942 815 994 q 876 833 876 890 q 861 758 876 793 q 819 697 846 722 q 755 656 792 671 q 676 640 718 640 q 576 672 614 640 q 538 756 538 704 q 545 814 538 781 q 553 878 553 847 q 539 929 553 908 q 483 950 525 950 q 390 920 435 950 q 313 839 346 890 q 260 721 279 788 q 240 579 240 654 q 262 437 240 503 q 321 322 283 371 q 410 247 358 274 q 521 219 461 219 q 665 282 613 219 q 718 456 718 344 q 747 571 718 535 q 840 607 776 607 q 935 561 907 607 q 963 406 963 515 q 926 162 963 272 q 825 -28 890 51 q 669 -151 760 -107 q 467 -194 578 -194 q 153 -44 260 -194 q 46 397 46 107 z "},"D":{"ha":972,"x_min":58,"x_max":953,"o":"m 321 1110 q 473 1082 397 1110 q 619 1005 549 1054 q 750 890 689 956 q 856 747 811 824 q 927 588 901 671 q 953 422 953 504 q 927 260 953 340 q 857 106 901 179 q 751 -31 813 32 q 617 -139 689 -93 q 467 -211 546 -185 q 307 -237 388 -237 q 124 -183 189 -237 q 58 -28 58 -128 q 78 90 58 29 q 122 210 97 150 q 165 327 146 269 q 185 438 185 385 q 169 534 185 486 q 133 633 153 582 q 97 741 113 685 q 81 861 81 797 q 143 1044 81 979 q 321 1110 206 1110 m 426 892 q 358 808 378 892 q 338 557 338 725 q 358 287 338 375 q 433 199 378 199 q 492 226 463 199 q 546 298 522 253 q 584 403 569 343 q 599 528 599 463 q 583 656 599 590 q 542 773 567 721 q 486 858 517 825 q 426 892 456 892 z "},"E":{"ha":967,"x_min":0,"x_max":954,"o":"m 440 1119 q 623 1108 539 1119 q 769 1072 707 1097 q 865 1006 831 1047 q 900 904 900 965 q 881 796 900 836 q 835 734 861 756 q 784 706 810 713 q 747 700 758 700 q 661 715 692 700 q 617 754 631 731 q 600 805 603 778 q 597 856 597 832 q 594 902 597 882 q 578 936 590 922 q 543 957 565 950 q 483 964 521 964 q 426 950 453 964 q 378 912 399 936 q 345 856 357 888 q 333 786 333 824 q 346 725 333 753 q 379 677 358 697 q 427 646 400 657 q 483 635 454 635 q 538 638 503 635 q 614 642 574 642 q 677 638 646 642 q 733 622 708 633 q 774 588 758 610 q 789 532 789 567 q 778 485 789 503 q 749 458 767 468 q 707 445 731 449 q 658 442 683 442 q 603 444 631 442 q 554 446 575 446 q 482 436 521 446 q 410 408 443 426 q 356 363 378 389 q 333 303 333 336 q 347 226 333 260 q 382 170 360 193 q 434 136 404 147 q 496 125 464 125 q 571 140 539 125 q 628 178 603 156 q 676 226 654 200 q 719 275 697 253 q 765 313 740 297 q 824 328 790 328 q 920 276 886 328 q 954 129 954 224 q 821 -148 954 -53 q 431 -243 688 -243 q 113 -181 222 -243 q 0 3 3 -118 l 0 8 q 35 143 0 83 q 113 258 69 203 q 191 370 156 313 q 226 499 226 428 q 199 610 226 561 q 138 703 171 658 q 76 796 104 749 q 49 903 49 843 q 148 1065 49 1010 q 440 1119 247 1119 z "},"F":{"ha":786,"x_min":8,"x_max":779,"o":"m 56 914 q 142 1094 56 1038 q 406 1150 228 1150 q 560 1135 492 1150 q 678 1092 629 1119 q 753 1028 726 1065 q 779 949 779 992 q 740 822 779 868 q 642 775 700 775 q 539 813 579 775 q 499 913 499 851 q 492 961 499 936 q 472 1006 485 986 q 440 1040 458 1026 q 399 1053 422 1053 q 346 1036 369 1053 q 305 994 322 1019 q 278 938 288 968 q 268 881 268 907 q 282 790 268 832 q 319 718 296 749 q 370 670 342 688 q 428 653 399 653 q 483 668 460 653 q 528 701 507 683 q 567 735 549 719 q 607 750 586 750 q 699 724 669 750 q 728 656 728 697 q 719 599 728 629 q 695 542 711 568 q 657 497 679 515 q 607 479 635 479 q 565 488 592 479 q 508 506 539 496 q 447 524 478 515 q 392 535 417 533 q 351 529 367 538 q 335 496 335 521 q 356 405 335 449 q 401 314 376 361 q 446 211 425 267 q 467 85 467 156 q 453 -28 467 29 q 413 -129 440 -85 q 345 -202 386 -174 q 247 -231 304 -231 q 72 -168 135 -231 q 8 3 8 -106 q 22 101 8 54 q 56 191 36 147 q 101 276 76 235 q 145 358 125 317 q 179 440 165 399 q 193 522 193 481 q 172 620 193 571 q 124 719 150 669 q 77 818 99 769 q 56 914 56 867 z "},"G":{"ha":1074,"x_min":32,"x_max":1058,"o":"m 32 442 q 67 725 32 600 q 167 936 101 850 q 326 1068 232 1022 q 542 1114 421 1114 q 673 1099 613 1114 q 778 1057 733 1083 q 848 994 822 1031 q 874 915 874 957 q 860 860 874 886 q 825 813 847 833 q 773 782 803 793 q 708 771 743 771 q 626 790 661 771 q 559 833 590 810 q 497 876 528 857 q 429 896 467 896 q 338 862 382 896 q 258 772 293 828 q 203 643 224 715 q 182 493 182 571 q 203 353 182 417 q 261 243 224 289 q 350 172 299 197 q 463 146 401 146 q 587 172 525 146 q 697 241 649 199 q 776 337 746 283 q 806 444 806 390 q 798 497 806 472 q 778 541 790 522 q 749 571 765 560 q 714 582 732 582 q 677 569 694 582 q 644 535 660 556 q 613 492 629 515 q 577 448 596 468 q 535 415 558 428 q 482 401 511 401 q 401 438 433 401 q 369 532 369 474 q 444 669 369 619 q 647 719 518 719 q 817 691 742 719 q 947 610 893 663 q 1029 483 1000 557 q 1058 315 1058 408 q 1016 101 1058 201 q 901 -75 974 0 q 730 -194 828 -150 q 521 -237 632 -237 q 317 -190 408 -237 q 163 -55 226 -143 q 66 159 100 33 q 32 442 32 285 z "},"H":{"ha":1061,"x_min":17,"x_max":1044,"o":"m 633 303 q 622 349 633 326 q 590 388 610 371 q 542 417 569 406 q 481 428 514 428 q 427 426 456 428 q 374 417 399 424 q 334 395 350 410 q 318 356 318 381 q 348 278 318 321 q 413 190 378 235 q 478 103 449 146 q 508 25 508 61 q 497 -84 508 -33 q 460 -172 486 -135 q 389 -230 433 -208 q 279 -251 344 -251 q 165 -227 214 -251 q 84 -161 117 -203 q 35 -65 51 -119 q 17 49 18 -11 l 17 60 q 34 158 17 110 q 72 258 51 207 q 110 362 93 308 q 128 474 128 415 q 114 578 128 528 q 83 680 100 629 q 53 781 67 731 q 39 886 39 832 q 83 1038 39 993 q 193 1082 126 1082 q 284 1052 258 1082 q 314 979 310 1022 q 311 888 318 936 q 304 803 304 839 q 310 723 304 768 q 334 638 317 678 q 384 572 351 599 q 471 544 417 544 q 517 554 494 544 q 558 584 540 564 q 588 633 576 604 q 600 701 600 663 q 594 754 600 728 q 583 808 589 781 q 571 862 576 835 q 565 918 565 889 q 573 990 565 956 q 599 1051 581 1025 q 646 1094 617 1078 q 718 1110 675 1110 q 817 1091 774 1110 q 891 1040 861 1072 q 937 965 921 1007 q 953 874 953 922 q 935 799 953 839 q 898 719 918 760 q 860 640 878 679 q 843 565 843 600 q 874 430 843 493 q 944 306 906 367 q 1013 182 982 244 q 1044 49 1044 119 q 1031 -62 1044 -8 q 986 -158 1017 -117 q 910 -226 956 -200 q 799 -251 864 -251 q 696 -235 738 -251 q 629 -187 654 -218 q 592 -111 604 -156 q 581 -12 581 -67 l 581 -1 q 589 76 581 38 q 607 151 597 114 q 625 226 617 189 q 633 303 633 264 z "},"I":{"ha":585,"x_min":13,"x_max":522,"o":"m 274 1122 q 428 1079 372 1122 q 485 961 485 1036 q 465 862 485 914 q 422 754 446 810 q 378 642 397 699 q 358 528 358 585 q 384 406 358 464 q 440 285 410 347 q 497 153 471 224 q 522 -10 522 82 q 286 -257 522 -257 q 91 -199 165 -257 q 13 -46 17 -142 l 13 -36 q 31 52 13 10 q 78 136 50 94 q 140 218 107 178 q 202 301 174 258 q 249 388 231 343 q 268 481 268 432 q 238 594 268 543 q 169 697 207 646 q 101 804 132 749 q 71 929 71 860 q 274 1122 71 1122 z "},"J":{"ha":919,"x_min":31,"x_max":888,"o":"m 485 1014 q 552 1023 519 1014 q 618 1042 585 1032 q 685 1062 651 1053 q 754 1071 718 1071 q 853 1038 818 1071 q 888 944 888 1006 q 867 867 888 896 q 811 838 846 838 q 767 848 789 838 q 724 872 744 858 q 685 895 703 885 q 656 906 667 906 q 633 883 633 906 q 647 833 633 871 q 680 750 661 796 q 718 658 699 704 q 749 581 738 611 q 792 419 776 507 q 807 247 807 331 q 781 52 807 139 q 704 -97 754 -35 q 584 -191 654 -158 q 426 -224 514 -224 q 269 -194 342 -224 q 143 -110 196 -164 q 60 16 90 -57 q 31 175 31 89 q 50 304 31 244 q 103 408 69 364 q 182 478 136 453 q 281 503 228 503 q 377 469 343 503 q 411 372 411 435 q 398 306 411 331 q 369 265 385 282 q 341 235 354 249 q 328 200 328 221 q 360 147 328 168 q 440 126 392 126 q 530 149 489 126 q 601 213 571 172 q 649 308 632 253 q 665 429 665 364 q 642 590 665 504 q 593 714 624 656 q 526 815 563 772 q 451 883 490 858 q 376 908 413 908 q 315 888 343 908 q 259 844 286 868 q 203 799 232 819 q 139 779 174 779 q 61 818 90 779 q 32 921 32 857 q 74 1038 32 996 q 189 1081 117 1081 q 263 1070 226 1081 q 337 1047 300 1060 q 410 1024 374 1035 q 485 1014 447 1014 z "},"K":{"ha":1038,"x_min":-6,"x_max":1017,"o":"m 57 919 q 108 1061 57 1011 q 250 1111 158 1111 q 385 1069 336 1111 q 433 951 433 1026 q 428 897 433 924 q 415 847 422 871 q 401 799 407 822 q 396 753 396 776 q 425 713 396 713 q 479 740 454 713 q 528 808 504 767 q 579 897 553 849 q 638 985 606 944 q 712 1053 671 1026 q 807 1081 753 1081 q 878 1066 846 1081 q 935 1025 911 1051 q 973 964 960 999 q 986 888 986 929 q 972 804 986 844 q 933 733 957 764 q 878 683 910 701 q 814 664 847 664 q 758 690 781 664 q 720 745 736 715 q 692 801 704 775 q 664 826 679 826 q 624 799 649 826 q 576 735 599 772 q 536 660 553 699 q 519 597 519 621 q 556 524 519 560 q 649 450 593 488 q 768 372 704 413 q 888 281 832 331 q 980 171 943 231 q 1017 36 1017 111 q 999 -61 1017 -15 q 951 -142 982 -107 q 881 -197 921 -176 q 796 -217 840 -217 q 653 -141 707 -217 q 597 64 600 -65 l 597 76 q 584 214 597 144 q 549 340 571 283 q 502 432 528 396 q 451 468 476 468 q 425 457 438 468 q 403 427 413 446 q 388 384 393 408 q 382 333 382 360 q 403 236 382 281 q 448 150 424 192 q 493 65 472 108 q 514 -28 514 22 q 494 -114 514 -74 q 440 -184 475 -154 q 360 -231 406 -214 q 261 -249 314 -249 q 160 -231 208 -249 q 74 -185 111 -214 q 16 -117 38 -156 q -6 -37 -6 -79 q 14 41 -6 3 q 63 117 33 79 q 125 192 92 154 q 188 271 158 231 q 236 354 217 311 q 256 444 256 397 q 241 522 256 486 q 204 594 226 558 q 156 666 182 631 q 108 741 131 701 q 72 824 86 781 q 57 919 57 868 z "},"L":{"ha":946,"x_min":11,"x_max":906,"o":"m 11 888 q 72 1043 11 986 q 238 1100 133 1100 q 356 1061 321 1100 q 392 932 392 1022 q 373 776 392 860 q 333 603 354 692 q 292 424 311 514 q 274 251 274 335 q 315 65 274 132 q 432 -3 357 -3 q 495 8 463 -3 q 555 36 528 19 q 600 74 582 53 q 618 114 618 94 q 603 156 618 132 q 571 206 589 179 q 538 263 553 233 q 524 324 524 293 q 539 379 524 353 q 581 426 554 406 q 642 459 607 447 q 714 471 676 471 q 856 401 806 471 q 906 201 906 331 q 765 -121 906 -11 q 354 -231 625 -231 q 101 -178 178 -231 q 25 -3 25 -125 q 42 121 25 63 q 79 233 58 179 q 117 341 100 288 q 133 450 133 394 q 115 563 133 508 q 73 669 96 617 q 31 776 50 722 q 11 888 11 829 z "},"M":{"ha":1238,"x_min":35,"x_max":1203,"o":"m 203 1110 q 301 1081 257 1110 q 381 1005 346 1051 q 444 900 417 958 q 492 783 471 842 q 529 671 514 724 q 556 582 544 618 q 565 556 560 571 q 574 529 569 542 q 585 508 579 517 q 594 499 590 499 q 605 508 599 499 q 617 531 611 518 q 628 559 622 544 q 636 582 633 574 q 663 660 647 611 q 699 765 678 708 q 747 878 721 821 q 804 983 774 936 q 871 1059 835 1029 q 947 1089 907 1089 q 1025 1049 994 1089 q 1056 944 1056 1008 q 1044 860 1056 904 q 1017 772 1032 817 q 991 682 1003 726 q 979 594 979 638 q 996 508 979 546 q 1038 436 1013 469 q 1091 370 1063 403 q 1144 300 1119 338 q 1186 216 1169 263 q 1203 107 1203 169 q 1184 -10 1203 43 q 1131 -101 1165 -62 q 1051 -160 1097 -139 q 949 -182 1004 -182 q 817 -131 863 -182 q 768 18 771 -81 l 768 28 q 791 173 768 107 q 842 296 814 239 q 894 403 871 353 q 917 503 917 454 q 910 551 917 526 q 894 594 904 575 q 872 626 885 614 q 846 638 858 638 q 808 608 826 638 q 771 535 789 579 q 735 439 753 490 q 698 343 717 388 q 660 269 679 299 q 619 240 640 240 q 581 265 600 240 q 544 325 563 289 q 507 403 525 361 q 472 482 489 446 q 440 542 456 518 q 411 567 425 567 q 383 531 394 567 q 371 447 371 496 q 385 336 371 390 q 417 226 400 282 q 449 109 435 169 q 464 -21 464 49 q 424 -167 464 -124 q 289 -211 383 -211 q 106 -153 174 -211 q 35 6 39 -96 l 35 15 q 72 165 35 97 q 153 292 108 232 q 234 408 197 351 q 271 526 271 465 q 238 642 271 585 q 165 756 204 700 q 92 867 125 813 q 58 976 58 922 q 99 1072 58 1035 q 203 1110 140 1110 z "},"N":{"ha":1047,"x_min":10,"x_max":1026,"o":"m 235 1081 q 328 1057 294 1081 q 379 975 363 1033 q 397 917 385 956 q 428 830 410 878 q 467 731 446 782 q 513 639 489 681 q 560 571 536 597 q 608 544 585 544 q 648 552 625 544 q 692 576 671 560 q 727 617 713 592 q 742 678 742 643 q 722 753 742 715 q 678 828 701 790 q 634 902 654 865 q 614 976 614 939 q 661 1099 614 1060 q 789 1139 708 1139 q 849 1126 818 1139 q 903 1092 879 1114 q 943 1042 928 1069 q 958 982 958 1014 q 947 793 958 886 q 936 604 936 700 q 950 485 936 543 q 981 368 964 426 q 1013 252 999 310 q 1026 133 1026 194 q 1014 22 1026 74 q 975 -69 1001 -31 q 907 -128 949 -107 q 806 -150 865 -150 q 703 -125 747 -150 q 630 -60 660 -100 q 585 32 600 -19 q 569 136 569 83 q 558 221 569 175 q 529 313 547 267 q 488 403 511 360 q 442 481 465 447 q 396 535 418 515 q 357 556 374 556 q 338 547 344 556 q 326 528 331 539 q 322 504 322 517 q 321 483 321 492 q 344 394 321 444 q 396 287 368 343 q 447 174 424 231 q 471 65 471 117 q 455 -29 471 15 q 410 -107 439 -74 q 338 -159 381 -140 q 243 -178 296 -178 q 151 -158 193 -178 q 77 -106 108 -139 q 28 -30 46 -74 q 10 64 10 14 q 25 228 10 147 q 58 388 40 308 q 90 549 75 468 q 106 711 106 629 q 92 833 106 774 q 79 943 79 893 q 126 1046 79 1011 q 235 1081 172 1081 z "},"O":{"ha":1007,"x_min":35,"x_max":978,"o":"m 135 458 q 119 536 135 504 q 85 600 104 568 q 51 669 67 632 q 35 764 35 707 q 80 915 35 846 q 196 1033 125 983 q 353 1112 267 1083 q 525 1140 440 1140 q 689 1115 610 1140 q 830 1044 768 1090 q 928 933 892 999 q 965 789 965 868 q 954 696 965 738 q 930 618 943 654 q 906 549 917 582 q 894 479 894 515 q 908 410 894 440 q 936 349 921 381 q 965 278 951 317 q 978 182 978 239 q 943 24 978 96 q 845 -99 908 -47 q 694 -178 782 -150 q 501 -207 607 -207 q 323 -182 403 -207 q 187 -110 243 -157 q 101 2 131 -64 q 71 150 71 68 q 81 241 71 200 q 103 318 90 282 q 125 388 115 354 q 135 458 135 421 m 468 908 q 381 878 418 908 q 317 795 343 847 q 278 676 292 743 q 265 533 265 608 q 283 345 265 421 q 330 224 300 269 q 400 159 360 178 q 486 140 440 140 q 566 170 531 140 q 628 252 601 200 q 668 374 654 304 q 682 525 682 444 q 662 703 682 631 q 610 822 642 776 q 541 888 579 868 q 468 908 503 908 z "},"P":{"ha":892,"x_min":19,"x_max":876,"o":"m 60 935 q 142 1095 60 1040 q 383 1150 224 1150 q 590 1122 499 1150 q 745 1040 682 1093 q 842 909 808 986 q 876 735 876 832 q 856 594 876 658 q 797 485 835 531 q 706 413 758 439 q 589 388 653 388 q 510 397 547 388 q 442 419 472 407 q 389 440 413 431 q 350 450 365 450 q 331 441 338 450 q 324 408 324 432 q 340 339 324 372 q 379 274 356 306 q 431 210 403 242 q 483 144 458 178 q 524 71 507 110 q 542 -12 540 32 l 542 -19 q 475 -164 542 -111 q 292 -217 408 -217 q 92 -153 165 -217 q 19 18 19 -90 q 47 150 19 88 q 106 271 74 213 q 165 386 138 329 q 192 501 192 443 q 171 606 192 554 q 126 713 150 658 q 81 822 101 767 q 60 935 60 876 m 465 525 q 511 544 489 525 q 551 593 533 563 q 581 663 569 624 q 592 740 592 701 q 578 823 592 783 q 543 893 565 863 q 492 942 521 924 q 432 961 463 961 q 361 919 386 961 q 336 799 336 878 q 347 697 336 746 q 376 609 358 647 q 417 548 393 571 q 465 525 440 525 z "},"Q":{"ha":1067,"x_min":32,"x_max":1036,"o":"m 571 1111 q 756 1065 671 1111 q 904 936 842 1018 q 1001 741 967 854 q 1036 494 1036 628 q 1023 349 1036 410 q 990 245 1010 288 q 946 174 969 203 q 902 127 922 146 q 869 94 882 108 q 856 67 856 81 q 875 28 856 50 q 919 -21 894 7 q 963 -86 943 -49 q 982 -172 982 -124 q 948 -271 982 -232 q 853 -310 914 -310 q 760 -281 796 -310 q 725 -189 725 -251 q 730 -151 725 -171 q 740 -110 735 -131 q 751 -69 746 -89 q 756 -32 756 -49 q 755 -12 756 -24 q 744 0 754 0 q 713 -16 733 0 q 659 -51 693 -32 q 575 -85 625 -69 q 453 -101 525 -101 q 276 -67 354 -101 q 143 33 197 -32 q 60 192 89 99 q 32 403 32 285 q 54 590 32 500 q 116 760 76 681 q 208 903 156 839 q 320 1014 260 968 q 444 1085 381 1060 q 571 1111 508 1111 m 381 485 q 572 182 381 182 q 733 269 676 182 q 790 515 790 356 q 774 677 790 601 q 731 810 758 753 q 667 899 703 867 q 589 932 631 932 q 508 897 546 932 q 442 800 471 861 q 397 658 414 739 q 381 485 381 576 z "},"R":{"ha":1036,"x_min":26,"x_max":1026,"o":"m 542 483 q 578 441 542 468 q 667 378 614 414 q 784 301 721 343 q 901 211 847 258 q 990 113 954 164 q 1026 10 1026 61 q 1002 -72 1026 -32 q 938 -144 978 -112 q 846 -194 897 -175 q 740 -214 794 -214 q 667 -203 701 -214 q 608 -174 633 -193 q 569 -131 583 -156 q 554 -78 554 -107 q 570 -24 554 -46 q 606 16 586 -3 q 641 55 625 35 q 657 104 657 75 q 632 187 657 140 q 571 276 607 233 q 495 349 535 319 q 425 378 456 378 q 380 355 399 378 q 361 300 361 332 q 386 229 361 263 q 440 160 411 196 q 494 86 469 125 q 519 0 519 47 q 497 -81 519 -42 q 435 -149 474 -119 q 345 -197 396 -179 q 239 -214 294 -214 q 85 -165 144 -214 q 26 -39 26 -117 q 43 41 26 3 q 85 116 60 79 q 140 188 111 153 q 195 259 169 224 q 238 329 221 294 q 254 400 254 364 q 238 470 254 436 q 197 538 221 504 q 144 608 172 572 q 91 681 115 643 q 50 760 67 718 q 33 847 33 801 q 62 960 33 908 q 140 1052 90 1013 q 258 1114 190 1092 q 401 1136 325 1136 q 574 1106 492 1136 q 720 1023 657 1075 q 821 903 783 971 q 858 763 858 836 q 835 663 858 703 q 776 596 811 622 q 700 553 742 569 q 624 526 658 538 q 565 505 589 514 q 542 483 542 496 m 310 738 q 322 669 310 704 q 352 607 333 635 q 392 561 371 579 q 435 543 414 543 q 481 556 460 543 q 519 590 503 568 q 544 641 535 613 q 554 703 554 669 q 544 768 554 736 q 519 826 535 800 q 485 867 504 851 q 447 883 467 883 q 403 876 428 883 q 358 851 379 868 q 324 806 338 833 q 310 738 310 778 z "},"S":{"ha":1069,"x_min":8,"x_max":1050,"o":"m 564 1139 q 716 1120 647 1139 q 835 1067 785 1101 q 913 987 885 1033 q 940 885 940 940 q 898 777 940 815 q 778 739 856 739 q 683 763 717 739 q 650 831 650 786 q 611 919 650 882 q 511 957 572 957 q 444 942 481 957 q 377 906 408 928 q 324 857 346 883 q 303 806 303 831 q 335 749 303 775 q 419 698 367 724 q 540 645 472 672 q 676 587 607 618 q 813 517 746 556 q 933 428 881 478 q 1018 317 986 379 q 1050 176 1050 254 q 1011 19 1050 92 q 903 -105 972 -53 q 739 -186 833 -157 q 532 -215 644 -215 q 323 -185 419 -215 q 157 -102 226 -156 q 48 25 88 -49 q 8 186 8 99 q 66 356 8 293 q 222 419 124 419 q 331 386 293 419 q 369 293 369 353 q 393 227 369 257 q 450 176 417 197 q 519 144 483 156 q 579 133 556 133 q 628 140 603 133 q 676 157 654 146 q 713 184 699 168 q 726 221 726 200 q 699 284 726 254 q 628 342 672 314 q 529 400 585 371 q 415 460 474 429 q 300 527 356 492 q 201 605 244 563 q 130 697 157 647 q 103 808 103 747 q 138 938 103 878 q 236 1043 174 999 q 383 1113 299 1088 q 564 1139 467 1139 z "},"T":{"ha":1010,"x_min":17,"x_max":1000,"o":"m 497 1111 q 597 1110 540 1111 q 713 1104 654 1110 q 827 1087 772 1099 q 921 1053 882 1075 q 983 995 965 1026 q 1000 911 1000 964 q 996 864 1000 888 q 981 822 992 840 q 951 791 969 803 q 903 779 932 779 q 841 796 868 779 q 792 832 814 813 q 749 868 769 851 q 704 885 728 885 q 647 860 672 885 q 604 801 622 836 q 577 729 586 767 q 568 667 568 692 q 601 524 568 597 q 675 374 635 451 q 749 215 715 297 q 782 44 782 133 q 713 -131 782 -76 q 529 -186 644 -186 q 410 -169 468 -186 q 306 -119 351 -153 q 233 -34 261 -85 q 206 85 206 17 q 225 192 206 139 q 274 301 244 244 q 337 417 303 357 q 400 545 371 478 q 449 689 429 613 q 468 854 468 765 q 465 882 468 867 q 456 910 463 897 q 440 933 450 924 q 413 942 429 942 q 356 912 381 942 q 306 847 332 882 q 248 781 281 811 q 167 751 215 751 q 108 765 135 751 q 60 802 81 779 q 28 854 40 825 q 17 914 17 883 q 43 996 17 963 q 112 1051 69 1029 q 207 1085 154 1074 q 313 1103 260 1097 q 415 1110 367 1108 q 497 1111 464 1111 z "},"U":{"ha":1040,"x_min":33,"x_max":1006,"o":"m 922 558 q 935 480 922 518 q 964 399 949 442 q 992 306 979 357 q 1006 188 1006 254 q 972 31 1006 100 q 879 -86 939 -37 q 736 -160 819 -135 q 554 -186 653 -186 q 71 172 71 -186 q 78 266 71 221 q 94 353 85 311 q 110 435 103 396 q 117 513 117 475 q 103 609 117 563 q 75 701 90 656 q 47 794 60 747 q 33 892 33 840 q 50 991 33 946 q 97 1069 67 1036 q 169 1119 128 1101 q 263 1136 211 1136 q 407 1081 354 1136 q 460 932 460 1026 q 432 810 460 861 q 370 711 404 758 q 308 612 336 664 q 281 488 281 560 q 295 391 281 438 q 335 309 310 344 q 395 252 361 274 q 468 231 429 231 l 479 231 q 566 258 528 235 q 631 319 604 282 q 672 405 658 356 q 686 511 686 454 q 673 613 686 565 q 644 705 660 660 q 615 794 628 750 q 601 888 601 839 q 651 1028 601 976 q 786 1081 701 1081 q 871 1065 832 1081 q 938 1020 910 1049 q 981 952 965 992 q 996 864 996 913 q 984 781 996 819 q 959 705 972 742 q 934 632 946 668 q 922 558 922 596 z "},"V":{"ha":1117,"x_min":6,"x_max":1103,"o":"m 6 925 q 19 1004 6 968 q 58 1065 33 1040 q 117 1104 82 1090 q 193 1118 151 1118 q 276 1101 239 1118 q 341 1052 314 1083 q 383 978 368 1021 q 397 882 397 935 q 391 810 397 844 q 376 740 385 775 q 362 668 368 706 q 356 588 356 631 q 372 458 356 522 q 415 341 389 393 q 475 257 442 289 q 542 225 508 225 q 594 247 569 225 q 638 305 618 268 q 668 390 657 342 q 679 490 679 438 q 674 564 679 528 q 663 638 669 600 q 652 713 657 675 q 647 793 647 751 q 666 926 647 867 q 720 1029 685 986 q 805 1095 756 1072 q 914 1118 854 1118 q 1054 1065 1006 1118 q 1103 914 1103 1013 q 1086 816 1103 854 q 1045 748 1069 778 q 992 690 1021 718 q 940 622 964 661 q 899 524 915 582 q 882 378 882 467 q 851 150 882 258 q 767 -40 819 42 q 644 -170 714 -122 q 496 -218 574 -218 q 388 -190 438 -218 q 301 -111 338 -161 q 245 8 265 -61 q 225 160 225 78 q 229 229 225 200 q 238 285 233 258 q 247 335 243 311 q 251 389 251 360 q 233 496 251 447 q 188 587 215 544 q 128 667 160 629 q 69 746 97 706 q 24 830 42 786 q 6 925 6 874 z "},"W":{"ha":1340,"x_min":10,"x_max":1342,"o":"m 208 1093 q 349 1051 299 1093 q 400 935 400 1010 q 388 857 400 896 q 360 774 375 818 q 333 681 346 731 q 321 569 321 631 q 322 533 321 564 q 331 468 324 503 q 356 406 339 433 q 404 378 374 378 q 460 419 442 378 q 490 522 479 460 q 508 656 501 585 q 528 790 515 728 q 564 894 540 853 q 631 935 588 935 q 695 903 668 935 q 743 820 722 872 q 778 702 764 768 q 805 567 793 636 q 827 433 817 499 q 849 315 838 367 q 872 231 860 263 q 903 200 885 200 q 944 238 922 200 q 985 335 967 276 q 1016 462 1004 393 q 1028 592 1028 531 q 1013 717 1028 663 q 980 819 997 772 q 947 907 963 865 q 932 993 932 949 q 1115 1140 932 1140 q 1279 1097 1217 1140 q 1342 983 1342 1054 q 1317 890 1342 938 q 1261 791 1292 842 q 1206 686 1231 740 q 1181 574 1181 632 q 1195 483 1181 529 q 1228 388 1210 436 q 1260 288 1246 339 q 1275 185 1275 238 q 1249 56 1275 118 q 1182 -55 1224 -7 q 1085 -131 1140 -103 q 972 -160 1031 -160 q 873 -137 921 -160 q 790 -75 825 -114 q 733 15 754 -36 q 711 124 711 67 q 723 215 711 174 q 735 286 735 256 q 727 328 735 307 q 707 367 719 350 q 680 397 694 385 q 650 408 665 408 q 615 392 633 408 q 581 352 597 376 q 556 299 565 328 q 546 243 546 269 q 556 190 546 215 q 580 142 567 165 q 604 93 593 118 q 617 40 615 68 l 617 35 q 593 -45 617 -7 q 530 -112 569 -83 q 438 -159 490 -142 q 331 -176 386 -176 q 213 -153 268 -176 q 117 -91 158 -131 q 53 1 76 -51 q 31 115 31 54 q 50 227 31 174 q 92 331 69 281 q 135 431 115 382 q 154 532 154 481 q 132 635 154 588 q 83 728 110 682 q 33 821 56 774 q 10 924 10 868 q 63 1048 10 1003 q 208 1093 115 1093 z "},"X":{"ha":1050,"x_min":26,"x_max":1032,"o":"m 519 289 q 478 274 497 289 q 446 239 460 260 q 424 194 432 218 q 417 150 417 169 q 420 115 417 132 q 428 82 424 99 l 438 49 q 449 -14 449 15 l 450 -19 q 432 -74 450 -51 q 387 -110 414 -96 q 328 -131 360 -124 q 271 -137 297 -137 q 188 -124 231 -137 q 109 -86 144 -111 q 51 -25 74 -61 q 26 56 28 11 l 26 60 q 54 151 26 108 q 124 235 82 194 q 215 315 165 276 q 306 392 264 354 q 375 467 347 429 q 403 544 403 506 q 377 610 403 582 q 314 662 351 638 q 231 710 276 686 q 149 760 186 733 q 85 819 111 786 q 60 896 60 851 q 76 965 60 932 q 120 1024 93 997 q 182 1065 147 1050 q 251 1081 217 1081 q 329 1056 297 1081 q 384 993 361 1031 q 424 912 407 956 q 460 831 442 868 q 499 768 478 793 q 549 743 519 743 q 618 769 593 743 q 659 834 643 794 q 687 919 675 874 q 716 1003 699 964 q 761 1069 733 1043 q 836 1094 789 1094 q 894 1083 868 1094 q 939 1050 919 1071 q 969 1001 958 1029 q 979 943 979 974 q 959 867 979 899 q 908 810 939 836 q 843 760 878 783 q 778 707 808 736 q 727 640 747 678 q 707 547 707 601 q 731 472 707 506 q 792 405 756 438 q 869 340 828 372 q 947 269 911 308 q 1008 181 983 229 q 1032 71 1032 133 q 1015 -20 1032 19 q 967 -87 997 -60 q 896 -128 938 -114 q 804 -142 854 -142 q 729 -133 768 -142 q 658 -105 690 -124 q 605 -56 626 -86 q 582 17 583 -25 l 582 21 q 588 61 582 42 q 599 101 593 81 q 611 140 606 121 q 617 181 617 160 q 608 217 617 197 q 586 252 600 236 q 555 278 572 268 q 519 289 538 289 z "},"Y":{"ha":814,"x_min":6,"x_max":793,"o":"m 406 758 q 460 784 442 758 q 488 849 478 810 q 505 934 497 889 q 526 1019 513 979 q 565 1084 540 1058 q 635 1110 589 1110 q 697 1096 668 1110 q 747 1059 725 1082 q 781 1006 768 1036 q 793 944 793 976 q 770 855 793 897 q 713 772 747 813 q 638 692 678 732 q 564 611 599 653 q 506 526 529 569 q 483 433 483 482 q 496 365 483 397 q 528 303 508 333 q 569 244 547 274 q 611 185 592 215 q 644 123 631 156 q 658 53 657 90 l 658 47 q 638 -35 658 -1 q 586 -89 618 -68 q 514 -119 554 -110 q 432 -129 474 -129 q 352 -120 393 -129 q 277 -92 311 -111 q 221 -41 243 -72 q 197 36 199 -10 l 197 40 q 222 143 197 92 q 277 244 247 194 q 332 344 307 294 q 357 439 357 393 q 331 545 357 499 q 266 630 306 592 q 181 701 226 668 q 97 766 136 733 q 31 834 57 799 q 6 911 6 869 q 23 978 6 944 q 67 1039 40 1013 q 129 1082 94 1065 q 197 1099 164 1099 q 261 1074 239 1099 q 294 1010 283 1049 q 312 928 306 972 q 327 847 318 885 q 353 783 336 808 q 406 758 371 758 z "},"Z":{"ha":981,"x_min":22,"x_max":967,"o":"m 443 -118 q 282 -95 358 -118 q 148 -34 206 -72 q 56 56 90 4 q 22 164 22 107 q 61 282 22 226 q 158 389 100 338 q 283 488 215 440 q 408 581 350 536 q 504 670 465 626 q 543 757 543 714 q 534 797 543 778 q 510 832 525 817 q 477 856 496 847 q 439 865 458 865 q 391 849 413 865 q 350 810 369 833 q 312 758 331 786 q 271 707 293 731 q 222 667 249 683 q 158 651 194 651 q 78 684 107 651 q 49 775 49 717 q 89 902 49 842 q 197 1008 129 963 q 353 1082 264 1054 q 539 1110 442 1110 q 674 1094 611 1110 q 782 1051 736 1079 q 853 987 828 1024 q 879 906 879 950 q 840 801 879 850 q 740 708 800 753 q 611 622 681 664 q 482 539 542 581 q 383 454 422 497 q 343 364 343 411 q 357 308 343 336 q 394 259 371 281 q 444 224 417 238 q 501 210 472 210 q 558 224 531 210 q 605 265 585 239 q 637 324 625 290 q 649 394 649 357 q 682 489 649 457 q 778 521 715 521 q 915 463 864 521 q 967 310 967 406 q 924 146 967 224 q 810 10 882 68 q 644 -83 739 -49 q 443 -118 549 -118 z "},"[":{"ha":517,"x_min":24,"x_max":503,"o":"m 439 1078 q 429 1035 439 1054 q 392 1015 419 1015 q 336 1022 363 1015 q 290 1028 310 1028 q 272 986 281 1028 q 257 878 263 944 q 248 728 251 811 q 244 565 244 646 q 247 528 244 553 q 254 472 250 503 q 265 407 258 440 q 281 347 272 374 q 299 302 289 319 q 318 285 308 285 q 369 294 338 285 q 435 303 400 303 q 469 281 456 303 q 490 228 482 258 q 500 167 497 197 q 503 122 503 138 q 473 36 503 65 q 398 -6 443 7 q 300 -19 353 -18 q 203 -19 247 -19 q 144 -10 168 -19 q 104 32 121 -1 q 40 264 57 126 q 24 561 24 401 q 24 676 24 614 q 27 801 24 739 q 40 922 31 864 q 68 1024 49 979 q 118 1097 88 1069 q 194 1124 149 1124 q 258 1123 217 1124 q 339 1118 299 1122 q 409 1105 379 1114 q 439 1078 439 1096 z "},"\\":{"ha":814,"x_min":78,"x_max":790,"o":"m 135 1135 q 190 1094 153 1135 q 276 987 226 1054 q 381 831 325 919 q 494 649 438 743 q 604 461 551 556 q 698 287 657 367 q 764 147 739 207 q 790 61 789 88 l 790 58 q 777 -6 790 24 q 742 -58 764 -36 q 690 -93 719 -81 q 625 -106 660 -106 q 501 -62 560 -106 q 392 55 443 -18 q 299 222 342 128 q 221 418 256 317 q 159 621 186 519 q 114 808 132 722 q 87 958 96 894 q 78 1049 78 1022 q 81 1094 78 1076 q 90 1120 83 1111 q 108 1132 97 1129 q 135 1135 119 1135 z "},"]":{"ha":517,"x_min":10,"x_max":489,"o":"m 74 1078 q 103 1105 74 1096 q 174 1118 133 1114 q 255 1123 214 1122 q 318 1124 296 1124 q 423 1092 388 1124 q 473 992 458 1060 q 488 817 488 924 q 489 561 489 710 q 472 264 489 401 q 408 32 454 126 q 368 -10 392 -1 q 310 -19 344 -19 q 213 -19 265 -19 q 115 -6 160 -18 q 40 36 69 7 q 10 122 10 65 q 13 167 10 138 q 23 228 15 197 q 43 281 31 258 q 76 303 56 303 q 142 294 111 303 q 194 285 174 285 q 215 302 206 285 q 232 347 224 319 q 247 407 240 374 q 258 472 254 440 q 265 528 263 503 q 268 565 268 553 q 265 728 268 646 q 256 878 261 811 q 242 986 250 944 q 222 1028 233 1028 q 176 1022 203 1028 q 121 1015 150 1015 q 83 1035 93 1015 q 74 1078 74 1054 z "},"^":{"ha":747,"x_min":33,"x_max":747,"o":"m 383 1110 q 355 1088 364 1110 q 342 1031 346 1065 q 341 953 339 996 q 346 867 343 910 q 352 785 349 824 q 356 724 356 747 q 312 610 356 651 q 193 568 268 568 q 76 610 118 568 q 33 726 33 651 q 66 871 33 794 q 149 1012 99 947 q 257 1119 199 1076 q 367 1161 315 1161 q 445 1140 403 1161 q 530 1083 488 1118 q 611 1001 572 1047 q 681 906 650 956 q 729 808 711 857 q 747 717 747 758 q 704 614 747 653 q 589 575 661 575 q 453 630 504 575 q 403 776 403 685 q 410 844 403 814 q 427 901 418 875 q 444 948 436 926 q 451 988 451 969 q 431 1076 451 1043 q 383 1110 410 1110 z "},"_":{"ha":740,"x_min":40,"x_max":696,"o":"m 40 -54 q 65 22 40 -10 q 130 76 90 54 q 219 110 169 97 q 319 131 269 124 q 416 140 369 138 q 494 142 463 142 q 590 135 551 142 q 653 107 629 128 q 686 49 676 86 q 696 -47 696 13 q 660 -146 696 -111 q 571 -197 624 -181 q 458 -215 518 -212 q 350 -218 399 -218 q 246 -217 300 -218 q 146 -202 192 -217 q 70 -153 100 -187 q 40 -54 40 -119 z "},"`":{"ha":582,"x_min":104,"x_max":551,"o":"m 551 1233 q 535 1195 551 1211 q 494 1169 518 1179 q 442 1154 469 1158 q 394 1150 415 1150 q 336 1167 368 1150 q 272 1213 304 1185 q 210 1278 240 1242 q 156 1352 179 1314 q 118 1427 132 1390 q 104 1493 104 1464 q 116 1528 104 1511 q 145 1559 128 1546 q 183 1581 163 1572 q 219 1589 203 1589 q 276 1568 243 1589 q 347 1515 310 1547 q 420 1442 383 1483 q 486 1363 457 1401 q 533 1289 515 1324 q 551 1233 551 1254 z "},"a":{"ha":1296,"x_min":1,"x_max":1299,"o":"m 1 -8 q 32 104 1 53 q 108 204 63 156 q 207 300 154 253 q 306 399 260 347 q 382 508 351 450 q 413 636 413 567 q 402 710 413 678 q 379 769 392 742 q 356 820 367 796 q 346 874 346 844 q 370 953 346 915 q 435 1019 394 990 q 531 1065 476 1049 q 643 1082 585 1082 q 738 1069 694 1082 q 815 1032 782 1056 q 865 976 847 1008 q 883 906 883 943 q 879 863 883 888 q 870 813 875 839 q 861 759 865 786 q 857 707 857 732 q 890 591 857 639 q 972 504 922 543 q 1078 429 1021 465 q 1184 349 1135 393 q 1266 248 1233 306 q 1299 108 1299 190 q 1228 -78 1299 -10 q 1038 -146 1158 -146 q 833 60 833 -146 q 819 165 833 115 q 781 251 806 214 q 725 309 757 288 q 657 331 693 331 q 597 307 619 331 q 561 244 575 283 q 538 156 547 206 q 518 54 529 106 q 491 -47 507 3 q 446 -136 475 -97 q 371 -199 417 -175 q 257 -222 325 -222 q 154 -206 201 -222 q 73 -162 107 -190 q 20 -94 39 -133 q 1 -8 1 -54 m 549 572 q 578 510 549 535 q 653 485 608 485 q 719 510 694 485 q 743 579 743 535 q 734 641 743 601 q 710 719 725 681 q 678 788 696 758 q 642 817 660 817 q 603 786 621 817 q 574 715 586 756 q 556 633 563 674 q 549 572 549 593 z "},"b":{"ha":1000,"x_min":32,"x_max":957,"o":"m 374 1094 q 562 1076 478 1094 q 705 1022 646 1057 q 796 938 764 988 q 828 828 828 889 q 802 730 828 771 q 739 660 776 689 q 656 610 701 631 q 574 576 611 590 q 510 551 536 561 q 485 528 485 540 q 519 503 485 514 q 607 480 554 493 q 721 446 660 467 q 835 390 782 425 q 922 301 888 354 q 957 169 957 249 q 905 0 957 75 q 767 -127 853 -75 q 571 -207 682 -179 q 342 -235 460 -235 q 219 -220 275 -235 q 122 -181 163 -206 q 57 -122 81 -156 q 32 -47 33 -87 l 32 -43 q 63 61 32 7 q 129 171 93 115 q 196 283 165 226 q 226 394 226 339 q 197 505 226 450 q 131 618 167 560 q 66 740 96 676 q 36 878 36 804 q 119 1042 36 989 q 374 1094 201 1094 m 443 626 q 480 635 463 626 q 511 660 497 644 q 533 694 525 675 q 542 735 542 714 q 530 788 542 760 q 500 840 518 815 q 461 880 482 864 q 422 896 440 896 q 388 883 406 896 q 356 851 371 871 q 333 807 342 831 q 324 760 324 783 q 334 712 324 736 q 362 669 344 688 q 401 638 379 650 q 443 626 422 626 m 432 83 q 486 100 457 83 q 539 142 515 117 q 578 197 563 167 q 594 253 594 226 q 581 303 594 278 q 545 349 567 328 q 497 383 524 369 q 446 396 471 396 q 387 357 406 396 q 368 231 368 318 q 383 117 368 151 q 432 83 397 83 z "},"c":{"ha":982,"x_min":46,"x_max":963,"o":"m 46 397 q 79 693 46 560 q 174 922 113 826 q 322 1069 236 1017 q 511 1122 407 1122 q 648 1098 582 1122 q 765 1034 714 1074 q 846 942 815 994 q 876 833 876 890 q 861 758 876 793 q 819 697 846 722 q 755 656 792 671 q 676 640 718 640 q 576 672 614 640 q 538 756 538 704 q 545 814 538 781 q 553 878 553 847 q 539 929 553 908 q 483 950 525 950 q 390 920 435 950 q 313 839 346 890 q 260 721 279 788 q 240 579 240 654 q 262 437 240 503 q 321 322 283 371 q 410 247 358 274 q 521 219 461 219 q 665 282 613 219 q 718 456 718 344 q 747 571 718 535 q 840 607 776 607 q 935 561 907 607 q 963 406 963 515 q 926 162 963 272 q 825 -28 890 51 q 669 -151 760 -107 q 467 -194 578 -194 q 153 -44 260 -194 q 46 397 46 107 z "},"d":{"ha":972,"x_min":58,"x_max":953,"o":"m 321 1110 q 473 1082 397 1110 q 619 1005 549 1054 q 750 890 689 956 q 856 747 811 824 q 927 588 901 671 q 953 422 953 504 q 927 260 953 340 q 857 106 901 179 q 751 -31 813 32 q 617 -139 689 -93 q 467 -211 546 -185 q 307 -237 388 -237 q 124 -183 189 -237 q 58 -28 58 -128 q 78 90 58 29 q 122 210 97 150 q 165 327 146 269 q 185 438 185 385 q 169 534 185 486 q 133 633 153 582 q 97 741 113 685 q 81 861 81 797 q 143 1044 81 979 q 321 1110 206 1110 m 426 892 q 358 808 378 892 q 338 557 338 725 q 358 287 338 375 q 433 199 378 199 q 492 226 463 199 q 546 298 522 253 q 584 403 569 343 q 599 528 599 463 q 583 656 599 590 q 542 773 567 721 q 486 858 517 825 q 426 892 456 892 z "},"e":{"ha":967,"x_min":0,"x_max":954,"o":"m 440 1119 q 623 1108 539 1119 q 769 1072 707 1097 q 865 1006 831 1047 q 900 904 900 965 q 881 796 900 836 q 835 734 861 756 q 784 706 810 713 q 747 700 758 700 q 661 715 692 700 q 617 754 631 731 q 600 805 603 778 q 597 856 597 832 q 594 902 597 882 q 578 936 590 922 q 543 957 565 950 q 483 964 521 964 q 426 950 453 964 q 378 912 399 936 q 345 856 357 888 q 333 786 333 824 q 346 725 333 753 q 379 677 358 697 q 427 646 400 657 q 483 635 454 635 q 529 638 500 635 q 592 642 558 640 q 661 640 626 643 q 724 625 696 636 q 771 592 753 614 q 789 532 789 569 q 763 468 789 488 q 701 444 738 449 q 624 442 665 439 q 554 446 583 446 q 482 436 521 446 q 410 408 443 426 q 356 363 378 389 q 333 303 333 336 q 347 226 333 260 q 382 170 360 193 q 434 136 404 147 q 496 125 464 125 q 571 140 539 125 q 628 178 603 156 q 676 226 654 200 q 719 275 697 253 q 765 313 740 297 q 824 328 790 328 q 920 276 886 328 q 954 129 954 224 q 821 -148 954 -53 q 431 -243 688 -243 q 113 -181 222 -243 q 0 3 3 -118 l 0 8 q 35 143 0 83 q 113 258 69 203 q 191 370 156 313 q 226 499 226 428 q 199 610 226 561 q 138 703 171 658 q 76 796 104 749 q 49 903 49 843 q 148 1065 49 1010 q 440 1119 247 1119 z "},"f":{"ha":786,"x_min":8,"x_max":779,"o":"m 56 914 q 142 1094 56 1038 q 406 1150 228 1150 q 560 1135 492 1150 q 678 1092 629 1119 q 753 1028 726 1065 q 779 949 779 992 q 740 822 779 868 q 642 775 700 775 q 539 813 579 775 q 499 913 499 851 q 492 961 499 936 q 472 1006 485 986 q 440 1040 458 1026 q 399 1053 422 1053 q 346 1036 369 1053 q 305 994 322 1019 q 278 938 288 968 q 268 881 268 907 q 282 790 268 832 q 319 718 296 749 q 370 670 342 688 q 428 653 399 653 q 483 668 460 653 q 528 701 507 683 q 567 735 549 719 q 607 750 586 750 q 699 724 669 750 q 728 656 728 697 q 719 599 728 629 q 695 542 711 568 q 657 497 679 515 q 607 479 635 479 q 565 488 592 479 q 508 506 539 496 q 447 524 478 515 q 392 535 417 533 q 351 529 367 538 q 335 496 335 521 q 356 405 335 449 q 401 314 376 361 q 446 211 425 267 q 467 85 467 156 q 453 -28 467 29 q 413 -129 440 -85 q 345 -202 386 -174 q 247 -231 304 -231 q 72 -168 135 -231 q 8 3 8 -106 q 22 101 8 54 q 56 191 36 147 q 101 276 76 235 q 145 358 125 317 q 179 440 165 399 q 193 522 193 481 q 172 620 193 571 q 124 719 150 669 q 77 818 99 769 q 56 914 56 867 z "},"g":{"ha":1074,"x_min":32,"x_max":1058,"o":"m 32 442 q 67 725 32 600 q 167 936 101 850 q 326 1068 232 1022 q 542 1114 421 1114 q 673 1099 613 1114 q 778 1057 733 1083 q 848 994 822 1031 q 874 915 874 957 q 860 860 874 886 q 825 813 847 833 q 773 782 803 793 q 708 771 743 771 q 626 790 661 771 q 559 833 590 810 q 497 876 528 857 q 429 896 467 896 q 338 862 382 896 q 258 772 293 828 q 203 643 224 715 q 182 493 182 571 q 203 353 182 417 q 261 243 224 289 q 350 172 299 197 q 463 146 401 146 q 587 172 525 146 q 697 241 649 199 q 776 337 746 283 q 806 444 806 390 q 798 497 806 472 q 778 541 790 522 q 749 571 765 560 q 714 582 732 582 q 677 569 694 582 q 644 535 660 556 q 613 492 629 515 q 577 448 596 468 q 535 415 558 428 q 482 401 511 401 q 401 438 433 401 q 369 532 369 474 q 444 669 369 619 q 647 719 518 719 q 817 691 742 719 q 947 610 893 663 q 1029 483 1000 557 q 1058 315 1058 408 q 1016 101 1058 201 q 901 -75 974 0 q 730 -194 828 -150 q 521 -237 632 -237 q 317 -190 408 -237 q 163 -55 226 -143 q 66 159 100 33 q 32 442 32 285 z "},"h":{"ha":1061,"x_min":17,"x_max":1044,"o":"m 633 303 q 622 349 633 326 q 590 388 610 371 q 542 417 569 406 q 481 428 514 428 q 427 426 456 428 q 374 417 399 424 q 334 395 350 410 q 318 356 318 381 q 348 278 318 321 q 413 190 378 235 q 478 103 449 146 q 508 25 508 61 q 497 -84 508 -33 q 460 -172 486 -135 q 389 -230 433 -208 q 279 -251 344 -251 q 165 -227 214 -251 q 84 -161 117 -203 q 35 -65 51 -119 q 17 49 18 -11 l 17 60 q 34 158 17 110 q 72 258 51 207 q 110 362 93 308 q 128 474 128 415 q 114 578 128 528 q 83 680 100 629 q 53 781 67 731 q 39 886 39 832 q 83 1038 39 993 q 193 1082 126 1082 q 284 1052 258 1082 q 314 979 310 1022 q 311 888 318 936 q 304 803 304 839 q 310 723 304 768 q 334 638 317 678 q 384 572 351 599 q 471 544 417 544 q 517 554 494 544 q 558 584 540 564 q 588 633 576 604 q 600 701 600 663 q 594 754 600 728 q 583 808 589 781 q 571 862 576 835 q 565 918 565 889 q 573 990 565 956 q 599 1051 581 1025 q 646 1094 617 1078 q 718 1110 675 1110 q 817 1091 774 1110 q 891 1040 861 1072 q 937 965 921 1007 q 953 874 953 922 q 935 799 953 839 q 898 719 918 760 q 860 640 878 679 q 843 565 843 600 q 874 430 843 493 q 944 306 906 367 q 1013 182 982 244 q 1044 49 1044 119 q 1031 -62 1044 -8 q 986 -158 1017 -117 q 910 -226 956 -200 q 799 -251 864 -251 q 696 -235 738 -251 q 629 -187 654 -218 q 592 -111 604 -156 q 581 -12 581 -67 l 581 -1 q 589 76 581 38 q 607 151 597 114 q 625 226 617 189 q 633 303 633 264 z "},"i":{"ha":585,"x_min":13,"x_max":522,"o":"m 274 1122 q 428 1079 372 1122 q 485 961 485 1036 q 465 862 485 914 q 422 754 446 810 q 378 642 397 699 q 358 528 358 585 q 384 406 358 464 q 440 285 410 347 q 497 153 471 224 q 522 -10 522 82 q 286 -257 522 -257 q 91 -199 165 -257 q 13 -46 17 -142 l 13 -36 q 31 52 13 10 q 78 136 50 94 q 140 218 107 178 q 202 301 174 258 q 249 388 231 343 q 268 481 268 432 q 238 594 268 543 q 169 697 207 646 q 101 804 132 749 q 71 929 71 860 q 274 1122 71 1122 z "},"j":{"ha":919,"x_min":31,"x_max":888,"o":"m 485 1014 q 552 1023 519 1014 q 618 1042 585 1032 q 685 1062 651 1053 q 754 1071 718 1071 q 853 1038 818 1071 q 888 944 888 1006 q 867 867 888 896 q 811 838 846 838 q 767 848 789 838 q 724 872 744 858 q 685 895 703 885 q 656 906 667 906 q 633 883 633 906 q 647 833 633 871 q 680 750 661 796 q 718 658 699 704 q 749 581 738 611 q 792 419 776 507 q 807 247 807 331 q 781 52 807 139 q 704 -97 754 -35 q 584 -191 654 -158 q 426 -224 514 -224 q 269 -194 342 -224 q 143 -110 196 -164 q 60 16 90 -57 q 31 175 31 89 q 50 304 31 244 q 103 408 69 364 q 182 478 136 453 q 281 503 228 503 q 377 469 343 503 q 411 372 411 435 q 398 306 411 331 q 369 265 385 282 q 341 235 354 249 q 328 200 328 221 q 360 147 328 168 q 440 126 392 126 q 530 149 489 126 q 601 213 571 172 q 649 308 632 253 q 665 429 665 364 q 642 590 665 504 q 593 714 624 656 q 526 815 563 772 q 451 883 490 858 q 376 908 413 908 q 315 888 343 908 q 259 844 286 868 q 203 799 232 819 q 139 779 174 779 q 61 818 90 779 q 32 921 32 857 q 74 1038 32 996 q 189 1081 117 1081 q 263 1070 226 1081 q 337 1047 300 1060 q 410 1024 374 1035 q 485 1014 447 1014 z "},"k":{"ha":1038,"x_min":-6,"x_max":1017,"o":"m 57 919 q 108 1061 57 1011 q 250 1111 158 1111 q 385 1069 336 1111 q 433 951 433 1026 q 428 897 433 924 q 415 847 422 871 q 401 799 407 822 q 396 753 396 776 q 425 713 396 713 q 479 740 454 713 q 528 808 504 767 q 579 897 553 849 q 638 985 606 944 q 712 1053 671 1026 q 807 1081 753 1081 q 878 1066 846 1081 q 935 1025 911 1051 q 973 964 960 999 q 986 888 986 929 q 972 804 986 844 q 933 733 957 764 q 878 683 910 701 q 814 664 847 664 q 758 690 781 664 q 720 745 736 715 q 692 801 704 775 q 664 826 679 826 q 624 799 649 826 q 576 735 599 772 q 536 660 553 699 q 519 597 519 621 q 556 524 519 560 q 649 450 593 488 q 768 372 704 413 q 888 281 832 331 q 980 171 943 231 q 1017 36 1017 111 q 999 -61 1017 -15 q 951 -142 982 -107 q 881 -197 921 -176 q 796 -217 840 -217 q 653 -141 707 -217 q 597 64 600 -65 l 597 76 q 584 214 597 144 q 549 340 571 283 q 502 432 528 396 q 451 468 476 468 q 425 457 438 468 q 403 427 413 446 q 388 384 393 408 q 382 333 382 360 q 403 236 382 281 q 448 150 424 192 q 493 65 472 108 q 514 -28 514 22 q 494 -114 514 -74 q 440 -184 475 -154 q 360 -231 406 -214 q 261 -249 314 -249 q 160 -231 208 -249 q 74 -185 111 -214 q 16 -117 38 -156 q -6 -37 -6 -79 q 14 41 -6 3 q 63 117 33 79 q 125 192 92 154 q 188 271 158 231 q 236 354 217 311 q 256 444 256 397 q 241 522 256 486 q 204 594 226 558 q 156 666 182 631 q 108 741 131 701 q 72 824 86 781 q 57 919 57 868 z "},"l":{"ha":946,"x_min":11,"x_max":906,"o":"m 11 888 q 72 1043 11 986 q 238 1100 133 1100 q 356 1061 321 1100 q 392 932 392 1022 q 373 776 392 860 q 333 603 354 692 q 292 424 311 514 q 274 251 274 335 q 315 65 274 132 q 432 -3 357 -3 q 495 8 463 -3 q 555 36 528 19 q 600 74 582 53 q 618 114 618 94 q 603 156 618 132 q 571 206 589 179 q 538 263 553 233 q 524 324 524 293 q 539 379 524 353 q 581 426 554 406 q 642 459 607 447 q 714 471 676 471 q 856 401 806 471 q 906 201 906 331 q 765 -121 906 -11 q 354 -231 625 -231 q 101 -178 178 -231 q 25 -3 25 -125 q 42 121 25 63 q 79 233 58 179 q 117 341 100 288 q 133 450 133 394 q 115 563 133 508 q 73 669 96 617 q 31 776 50 722 q 11 888 11 829 z "},"m":{"ha":1238,"x_min":35,"x_max":1203,"o":"m 203 1110 q 301 1081 257 1110 q 381 1005 346 1051 q 444 900 417 958 q 492 783 471 842 q 529 671 514 724 q 556 582 544 618 q 565 556 560 571 q 574 529 569 542 q 585 508 579 517 q 594 499 590 499 q 605 508 599 499 q 617 531 611 518 q 628 559 622 544 q 636 582 633 574 q 663 660 647 611 q 699 765 678 708 q 747 878 721 821 q 804 983 774 936 q 871 1059 835 1029 q 947 1089 907 1089 q 1025 1049 994 1089 q 1056 944 1056 1008 q 1044 860 1056 904 q 1017 772 1032 817 q 991 682 1003 726 q 979 594 979 638 q 996 508 979 546 q 1038 436 1013 469 q 1091 370 1063 403 q 1144 300 1119 338 q 1186 216 1169 263 q 1203 107 1203 169 q 1184 -10 1203 43 q 1131 -101 1165 -62 q 1051 -160 1097 -139 q 949 -182 1004 -182 q 817 -131 863 -182 q 768 18 771 -81 l 768 28 q 791 173 768 107 q 842 296 814 239 q 894 403 871 353 q 917 503 917 454 q 910 551 917 526 q 894 594 904 575 q 872 626 885 614 q 846 638 858 638 q 808 608 826 638 q 771 535 789 579 q 735 439 753 490 q 698 343 717 388 q 660 269 679 299 q 619 240 640 240 q 581 265 600 240 q 544 325 563 289 q 507 403 525 361 q 472 482 489 446 q 440 542 456 518 q 411 567 425 567 q 383 531 394 567 q 371 447 371 496 q 385 336 371 390 q 417 226 400 282 q 449 109 435 169 q 464 -21 464 49 q 424 -167 464 -124 q 289 -211 383 -211 q 106 -153 174 -211 q 35 6 39 -96 l 35 15 q 72 165 35 97 q 153 292 108 232 q 234 408 197 351 q 271 526 271 465 q 238 642 271 585 q 165 756 204 700 q 92 867 125 813 q 58 976 58 922 q 99 1072 58 1035 q 203 1110 140 1110 z "},"n":{"ha":1047,"x_min":10,"x_max":1026,"o":"m 235 1081 q 328 1057 294 1081 q 379 975 363 1033 q 397 917 385 956 q 428 830 410 878 q 467 731 446 782 q 513 639 489 681 q 560 571 536 597 q 608 544 585 544 q 648 552 625 544 q 692 576 671 560 q 727 617 713 592 q 742 678 742 643 q 722 753 742 715 q 678 828 701 790 q 634 902 654 865 q 614 976 614 939 q 661 1099 614 1060 q 789 1139 708 1139 q 849 1126 818 1139 q 903 1092 879 1114 q 943 1042 928 1069 q 958 982 958 1014 q 947 793 958 886 q 936 604 936 700 q 950 485 936 543 q 981 368 964 426 q 1013 252 999 310 q 1026 133 1026 194 q 1014 22 1026 74 q 975 -69 1001 -31 q 907 -128 949 -107 q 806 -150 865 -150 q 703 -125 747 -150 q 630 -60 660 -100 q 585 32 600 -19 q 569 136 569 83 q 558 221 569 175 q 529 313 547 267 q 488 403 511 360 q 442 481 465 447 q 396 535 418 515 q 357 556 374 556 q 338 547 344 556 q 326 528 331 539 q 322 504 322 517 q 321 483 321 492 q 344 394 321 444 q 396 287 368 343 q 447 174 424 231 q 471 65 471 117 q 455 -29 471 15 q 410 -107 439 -74 q 338 -159 381 -140 q 243 -178 296 -178 q 151 -158 193 -178 q 77 -106 108 -139 q 28 -30 46 -74 q 10 64 10 14 q 25 228 10 147 q 58 388 40 308 q 90 549 75 468 q 106 711 106 629 q 92 833 106 774 q 79 943 79 893 q 126 1046 79 1011 q 235 1081 172 1081 z "},"o":{"ha":1007,"x_min":35,"x_max":978,"o":"m 135 458 q 119 536 135 504 q 85 600 104 568 q 51 669 67 632 q 35 764 35 707 q 80 915 35 846 q 196 1033 125 983 q 353 1112 267 1083 q 525 1140 440 1140 q 689 1115 610 1140 q 830 1044 768 1090 q 928 933 892 999 q 965 789 965 868 q 954 696 965 738 q 930 618 943 654 q 906 549 917 582 q 894 479 894 515 q 908 410 894 440 q 936 349 921 381 q 965 278 951 317 q 978 182 978 239 q 943 24 978 96 q 845 -99 908 -47 q 694 -178 782 -150 q 501 -207 607 -207 q 323 -182 403 -207 q 187 -110 243 -157 q 101 2 131 -64 q 71 150 71 68 q 81 241 71 200 q 103 318 90 282 q 125 388 115 354 q 135 458 135 421 m 468 908 q 381 878 418 908 q 317 795 343 847 q 278 676 292 743 q 265 533 265 608 q 283 345 265 421 q 330 224 300 269 q 400 159 360 178 q 486 140 440 140 q 566 170 531 140 q 628 252 601 200 q 668 374 654 304 q 682 525 682 444 q 662 703 682 631 q 610 822 642 776 q 541 888 579 868 q 468 908 503 908 z "},"p":{"ha":892,"x_min":19,"x_max":876,"o":"m 60 935 q 142 1095 60 1040 q 383 1150 224 1150 q 590 1122 499 1150 q 745 1040 682 1093 q 842 909 808 986 q 876 735 876 832 q 856 594 876 658 q 797 485 835 531 q 706 413 758 439 q 589 388 653 388 q 480 406 529 388 q 396 437 431 424 q 342 449 361 450 q 324 408 324 447 q 340 339 324 372 q 379 274 356 306 q 431 210 403 242 q 483 144 458 178 q 524 71 507 110 q 542 -12 540 32 l 542 -19 q 475 -164 542 -111 q 292 -217 408 -217 q 92 -153 165 -217 q 19 18 19 -90 q 47 150 19 88 q 106 271 74 213 q 165 386 138 329 q 192 501 192 443 q 171 606 192 554 q 126 713 150 658 q 81 822 101 767 q 60 935 60 876 m 465 525 q 511 544 489 525 q 551 593 533 563 q 581 663 569 624 q 592 740 592 701 q 578 823 592 783 q 543 893 565 863 q 492 942 521 924 q 432 961 463 961 q 361 919 386 961 q 336 799 336 878 q 347 697 336 746 q 376 609 358 647 q 417 548 393 571 q 465 525 440 525 z "},"q":{"ha":1067,"x_min":32,"x_max":1036,"o":"m 571 1111 q 756 1065 671 1111 q 904 936 842 1018 q 1001 741 967 854 q 1036 494 1036 628 q 1023 349 1036 410 q 990 245 1010 288 q 946 174 969 203 q 902 127 922 146 q 869 94 882 108 q 856 67 856 81 q 875 28 856 50 q 919 -21 894 7 q 963 -86 943 -49 q 982 -172 982 -124 q 948 -271 982 -232 q 853 -310 914 -310 q 760 -281 796 -310 q 725 -189 725 -251 q 730 -151 725 -171 q 740 -110 735 -131 q 751 -69 746 -89 q 756 -32 756 -49 q 755 -12 756 -24 q 744 0 754 0 q 713 -16 733 0 q 659 -51 693 -32 q 575 -85 625 -69 q 453 -101 525 -101 q 276 -67 354 -101 q 143 33 197 -32 q 60 192 89 99 q 32 403 32 285 q 54 590 32 500 q 116 760 76 681 q 208 903 156 839 q 320 1014 260 968 q 444 1085 381 1060 q 571 1111 508 1111 m 381 485 q 572 182 381 182 q 733 269 676 182 q 790 515 790 356 q 774 677 790 601 q 731 810 758 753 q 667 899 703 867 q 589 932 631 932 q 508 897 546 932 q 442 800 471 861 q 397 658 414 739 q 381 485 381 576 z "},"r":{"ha":1036,"x_min":26,"x_max":1026,"o":"m 542 483 q 578 441 542 468 q 667 378 614 414 q 784 301 721 343 q 901 211 847 258 q 990 113 954 164 q 1026 10 1026 61 q 1002 -72 1026 -32 q 938 -144 978 -112 q 846 -194 897 -175 q 740 -214 794 -214 q 667 -203 701 -214 q 608 -174 633 -193 q 569 -131 583 -156 q 554 -78 554 -107 q 570 -24 554 -46 q 606 16 586 -3 q 641 55 625 35 q 657 104 657 75 q 632 187 657 140 q 571 276 607 233 q 495 349 535 319 q 425 378 456 378 q 380 355 399 378 q 361 300 361 332 q 386 229 361 263 q 440 160 411 196 q 494 86 469 125 q 519 0 519 47 q 497 -81 519 -42 q 435 -149 474 -119 q 345 -197 396 -179 q 239 -214 294 -214 q 85 -165 144 -214 q 26 -39 26 -117 q 43 41 26 3 q 85 116 60 79 q 140 188 111 153 q 195 259 169 224 q 238 329 221 294 q 254 400 254 364 q 238 470 254 436 q 197 538 221 504 q 144 608 172 572 q 91 681 115 643 q 50 760 67 718 q 33 847 33 801 q 62 960 33 908 q 140 1052 90 1013 q 258 1114 190 1092 q 401 1136 325 1136 q 574 1106 492 1136 q 720 1023 657 1075 q 821 903 783 971 q 858 763 858 836 q 835 663 858 703 q 776 596 811 622 q 700 553 742 569 q 624 526 658 538 q 565 505 589 514 q 542 483 542 496 m 310 738 q 322 669 310 704 q 352 607 333 635 q 392 561 371 579 q 435 543 414 543 q 481 556 460 543 q 519 590 503 568 q 544 641 535 613 q 554 703 554 669 q 544 768 554 736 q 519 826 535 800 q 485 867 504 851 q 447 883 467 883 q 403 876 428 883 q 358 851 379 868 q 324 806 338 833 q 310 738 310 778 z "},"s":{"ha":1069,"x_min":8,"x_max":1050,"o":"m 564 1139 q 716 1120 647 1139 q 835 1067 785 1101 q 913 987 885 1033 q 940 885 940 940 q 898 777 940 815 q 778 739 856 739 q 683 763 717 739 q 650 831 650 786 q 611 919 650 882 q 511 957 572 957 q 444 942 481 957 q 377 906 408 928 q 324 857 346 883 q 303 806 303 831 q 335 749 303 775 q 419 698 367 724 q 540 645 472 672 q 676 587 607 618 q 813 517 746 556 q 933 428 881 478 q 1018 317 986 379 q 1050 176 1050 254 q 1011 19 1050 92 q 903 -105 972 -53 q 739 -186 833 -157 q 532 -215 644 -215 q 323 -185 419 -215 q 157 -102 226 -156 q 48 25 88 -49 q 8 186 8 99 q 66 356 8 293 q 222 419 124 419 q 331 386 293 419 q 369 293 369 353 q 393 227 369 257 q 450 176 417 197 q 519 144 483 156 q 579 133 556 133 q 628 140 603 133 q 676 157 654 146 q 713 184 699 168 q 726 221 726 200 q 699 284 726 254 q 628 342 672 314 q 529 400 585 371 q 415 460 474 429 q 300 527 356 492 q 201 605 244 563 q 130 697 157 647 q 103 808 103 747 q 138 938 103 878 q 236 1043 174 999 q 383 1113 299 1088 q 564 1139 467 1139 z "},"t":{"ha":1010,"x_min":17,"x_max":1000,"o":"m 497 1111 q 597 1110 540 1111 q 713 1104 654 1110 q 827 1087 772 1099 q 921 1053 882 1075 q 983 995 965 1026 q 1000 911 1000 964 q 996 864 1000 888 q 981 822 992 840 q 951 791 969 803 q 903 779 932 779 q 841 796 868 779 q 792 832 814 813 q 749 868 769 851 q 704 885 728 885 q 647 860 672 885 q 604 801 622 836 q 577 729 586 767 q 568 667 568 692 q 601 524 568 597 q 675 374 635 451 q 749 215 715 297 q 782 44 782 133 q 713 -131 782 -76 q 529 -186 644 -186 q 410 -169 468 -186 q 306 -119 351 -153 q 233 -34 261 -85 q 206 85 206 17 q 225 192 206 139 q 274 301 244 244 q 337 417 303 357 q 400 545 371 478 q 449 689 429 613 q 468 854 468 765 q 465 882 468 867 q 456 910 463 897 q 440 933 450 924 q 413 942 429 942 q 356 912 381 942 q 306 847 332 882 q 248 781 281 811 q 167 751 215 751 q 108 765 135 751 q 60 802 81 779 q 28 854 40 825 q 17 914 17 883 q 43 996 17 963 q 112 1051 69 1029 q 207 1085 154 1074 q 313 1103 260 1097 q 415 1110 367 1108 q 497 1111 464 1111 z "},"u":{"ha":1040,"x_min":33,"x_max":1006,"o":"m 922 558 q 935 480 922 518 q 964 399 949 442 q 992 306 979 357 q 1006 188 1006 254 q 972 31 1006 100 q 879 -86 939 -37 q 736 -160 819 -135 q 554 -186 653 -186 q 71 172 71 -186 q 78 266 71 221 q 94 353 85 311 q 110 435 103 396 q 117 513 117 475 q 103 609 117 563 q 75 701 90 656 q 47 794 60 747 q 33 892 33 840 q 50 991 33 946 q 97 1069 67 1036 q 169 1119 128 1101 q 263 1136 211 1136 q 407 1081 354 1136 q 460 932 460 1026 q 432 810 460 861 q 370 711 404 758 q 308 612 336 664 q 281 488 281 560 q 297 388 281 436 q 340 303 313 339 q 403 247 367 267 q 479 231 439 226 q 566 258 528 235 q 631 319 604 282 q 672 405 658 356 q 686 511 686 454 q 673 613 686 565 q 644 705 660 660 q 615 794 628 750 q 601 888 601 839 q 651 1028 601 976 q 786 1081 701 1081 q 871 1065 832 1081 q 938 1020 910 1049 q 981 952 965 992 q 996 864 996 913 q 984 781 996 819 q 959 705 972 742 q 934 632 946 668 q 922 558 922 596 z "},"v":{"ha":1117,"x_min":6,"x_max":1103,"o":"m 6 925 q 19 1004 6 968 q 58 1065 33 1040 q 117 1104 82 1090 q 193 1118 151 1118 q 276 1101 239 1118 q 341 1052 314 1083 q 383 978 368 1021 q 397 882 397 935 q 391 810 397 844 q 376 740 385 775 q 362 668 368 706 q 356 588 356 631 q 372 458 356 522 q 415 341 389 393 q 475 257 442 289 q 542 225 508 225 q 594 247 569 225 q 638 305 618 268 q 668 390 657 342 q 679 490 679 438 q 674 564 679 528 q 663 638 669 600 q 652 713 657 675 q 647 793 647 751 q 666 926 647 867 q 720 1029 685 986 q 805 1095 756 1072 q 914 1118 854 1118 q 1054 1065 1006 1118 q 1103 914 1103 1013 q 1086 816 1103 854 q 1045 748 1069 778 q 992 690 1021 718 q 940 622 964 661 q 899 524 915 582 q 882 378 882 467 q 851 150 882 258 q 767 -40 819 42 q 644 -170 714 -122 q 496 -218 574 -218 q 388 -190 438 -218 q 301 -111 338 -161 q 245 8 265 -61 q 225 160 225 78 q 229 229 225 200 q 238 285 233 258 q 247 335 243 311 q 251 389 251 360 q 233 496 251 447 q 188 587 215 544 q 128 667 160 629 q 69 746 97 706 q 24 830 42 786 q 6 925 6 874 z "},"w":{"ha":1340,"x_min":10,"x_max":1342,"o":"m 208 1093 q 349 1051 299 1093 q 400 935 400 1010 q 388 857 400 896 q 360 774 375 818 q 333 681 346 731 q 321 569 321 631 q 322 533 321 564 q 331 468 324 503 q 356 406 339 433 q 404 378 374 378 q 460 419 442 378 q 490 522 479 460 q 508 656 501 585 q 528 790 515 728 q 564 894 540 853 q 631 935 588 935 q 695 903 668 935 q 743 820 722 872 q 778 702 764 768 q 805 567 793 636 q 827 433 817 499 q 849 315 838 367 q 872 231 860 263 q 903 200 885 200 q 944 238 922 200 q 985 335 967 276 q 1016 462 1004 393 q 1028 592 1028 531 q 1013 717 1028 663 q 980 819 997 772 q 947 907 963 865 q 932 993 932 949 q 1115 1140 932 1140 q 1279 1097 1217 1140 q 1342 983 1342 1054 q 1317 890 1342 938 q 1261 791 1292 842 q 1206 686 1231 740 q 1181 574 1181 632 q 1195 483 1181 529 q 1228 388 1210 436 q 1260 288 1246 339 q 1275 185 1275 238 q 1249 56 1275 118 q 1182 -55 1224 -7 q 1085 -131 1140 -103 q 972 -160 1031 -160 q 873 -137 921 -160 q 790 -75 825 -114 q 733 15 754 -36 q 711 124 711 67 q 723 215 711 174 q 735 286 735 256 q 727 328 735 307 q 707 367 719 350 q 680 397 694 385 q 650 408 665 408 q 615 392 633 408 q 581 352 597 376 q 556 299 565 328 q 546 243 546 269 q 556 190 546 215 q 580 142 567 165 q 604 93 593 118 q 617 40 615 68 l 617 35 q 593 -45 617 -7 q 530 -112 569 -83 q 438 -159 490 -142 q 331 -176 386 -176 q 213 -153 268 -176 q 117 -91 158 -131 q 53 1 76 -51 q 31 115 31 54 q 50 227 31 174 q 92 331 69 281 q 135 431 115 382 q 154 532 154 481 q 132 635 154 588 q 83 728 110 682 q 33 821 56 774 q 10 924 10 868 q 63 1048 10 1003 q 208 1093 115 1093 z "},"x":{"ha":1050,"x_min":26,"x_max":1032,"o":"m 519 289 q 478 274 497 289 q 446 239 460 260 q 424 194 432 218 q 417 150 417 169 q 420 115 417 132 q 428 82 424 99 l 438 49 q 449 -14 449 15 l 450 -19 q 432 -74 450 -51 q 387 -110 414 -96 q 328 -131 360 -124 q 271 -137 297 -137 q 188 -124 231 -137 q 109 -86 144 -111 q 51 -25 74 -61 q 26 56 28 11 l 26 60 q 54 151 26 108 q 124 235 82 194 q 215 315 165 276 q 306 392 264 354 q 375 467 347 429 q 403 544 403 506 q 377 610 403 582 q 314 662 351 638 q 231 710 276 686 q 149 760 186 733 q 85 819 111 786 q 60 896 60 851 q 76 965 60 932 q 120 1024 93 997 q 182 1065 147 1050 q 251 1081 217 1081 q 329 1056 297 1081 q 384 993 361 1031 q 424 912 407 956 q 460 831 442 868 q 499 768 478 793 q 549 743 519 743 q 618 769 593 743 q 659 834 643 794 q 687 919 675 874 q 716 1003 699 964 q 761 1069 733 1043 q 836 1094 789 1094 q 894 1083 868 1094 q 939 1050 919 1071 q 969 1001 958 1029 q 979 943 979 974 q 959 867 979 899 q 908 810 939 836 q 843 760 878 783 q 778 707 808 736 q 727 640 747 678 q 707 547 707 601 q 731 472 707 506 q 792 405 756 438 q 869 340 828 372 q 947 269 911 308 q 1008 181 983 229 q 1032 71 1032 133 q 1015 -20 1032 19 q 967 -87 997 -60 q 896 -128 938 -114 q 804 -142 854 -142 q 729 -133 768 -142 q 658 -105 690 -124 q 605 -56 626 -86 q 582 17 583 -25 l 582 21 q 588 61 582 42 q 599 101 593 81 q 611 140 606 121 q 617 181 617 160 q 608 217 617 197 q 586 252 600 236 q 555 278 572 268 q 519 289 538 289 z "},"y":{"ha":814,"x_min":6,"x_max":793,"o":"m 406 758 q 460 784 442 758 q 488 849 478 810 q 505 934 497 889 q 526 1019 513 979 q 565 1084 540 1058 q 635 1110 589 1110 q 697 1096 668 1110 q 747 1059 725 1082 q 781 1006 768 1036 q 793 944 793 976 q 770 855 793 897 q 713 772 747 813 q 638 692 678 732 q 564 611 599 653 q 506 526 529 569 q 483 433 483 482 q 496 365 483 397 q 528 303 508 333 q 569 244 547 274 q 611 185 592 215 q 644 123 631 156 q 658 53 657 90 l 658 47 q 638 -35 658 -1 q 586 -89 618 -68 q 514 -119 554 -110 q 432 -129 474 -129 q 352 -120 393 -129 q 277 -92 311 -111 q 221 -41 243 -72 q 197 36 199 -10 l 197 40 q 222 143 197 92 q 277 244 247 194 q 332 344 307 294 q 357 439 357 393 q 331 545 357 499 q 266 630 306 592 q 181 701 226 668 q 97 766 136 733 q 31 834 57 799 q 6 911 6 869 q 23 978 6 944 q 67 1039 40 1013 q 129 1082 94 1065 q 197 1099 164 1099 q 261 1074 239 1099 q 294 1010 283 1049 q 312 928 306 972 q 327 847 318 885 q 353 783 336 808 q 406 758 371 758 z "},"z":{"ha":981,"x_min":22,"x_max":967,"o":"m 443 -118 q 282 -95 358 -118 q 148 -34 206 -72 q 56 56 90 4 q 22 164 22 107 q 61 282 22 226 q 158 389 100 338 q 283 488 215 440 q 408 581 350 536 q 504 670 465 626 q 543 757 543 714 q 534 797 543 778 q 510 832 525 817 q 477 856 496 847 q 439 865 458 865 q 391 849 413 865 q 350 810 369 833 q 312 758 331 786 q 271 707 293 731 q 222 667 249 683 q 158 651 194 651 q 78 684 107 651 q 49 775 49 717 q 89 902 49 842 q 197 1008 129 963 q 353 1082 264 1054 q 539 1110 442 1110 q 674 1094 611 1110 q 782 1051 736 1079 q 853 987 828 1024 q 879 906 879 950 q 840 801 879 850 q 740 708 800 753 q 611 622 681 664 q 482 539 542 581 q 383 454 422 497 q 343 364 343 411 q 357 308 343 336 q 394 259 371 281 q 444 224 417 238 q 501 210 472 210 q 558 224 531 210 q 605 265 585 239 q 637 324 625 290 q 649 394 649 357 q 682 489 649 457 q 778 521 715 521 q 915 463 864 521 q 967 310 967 406 q 924 146 967 224 q 810 10 882 68 q 644 -83 739 -49 q 443 -118 549 -118 z "},"{":{"ha":589,"x_min":6,"x_max":583,"o":"m 313 886 q 319 836 313 867 q 335 773 326 806 q 351 710 344 740 q 358 660 358 679 q 342 603 358 629 q 308 556 326 576 q 273 520 289 535 q 257 499 257 506 q 274 483 257 490 q 313 465 292 476 q 352 436 335 454 q 369 389 369 418 q 381 346 369 365 q 408 313 392 326 q 444 291 425 299 q 478 283 463 283 q 536 252 511 283 q 561 143 561 221 q 545 71 561 101 q 503 19 529 40 q 441 -12 476 -1 q 368 -22 406 -22 q 281 -8 326 -22 q 200 34 236 7 q 140 99 164 61 q 117 183 117 136 q 118 210 117 197 q 119 238 119 224 q 101 327 119 290 q 63 392 83 364 q 24 440 42 419 q 6 479 6 461 q 25 522 6 503 q 67 560 44 540 q 110 607 90 581 q 129 672 129 633 q 118 739 129 707 q 107 806 107 771 q 192 1031 107 958 q 424 1103 276 1103 q 472 1101 444 1103 q 524 1090 499 1099 q 566 1065 549 1082 q 583 1021 583 1049 q 570 985 583 993 q 538 980 557 978 q 495 988 518 982 q 453 994 472 994 q 407 989 432 994 q 361 971 382 983 q 326 938 340 958 q 313 886 313 917 z "},"|":{"ha":335,"x_min":54,"x_max":293,"o":"m 165 1125 q 244 1071 214 1125 q 274 925 274 1017 q 262 815 274 865 q 235 718 250 764 q 209 630 221 672 q 197 542 197 588 q 213 437 197 490 q 245 327 228 383 q 278 212 263 271 q 293 90 293 153 q 263 -52 293 3 q 183 -107 232 -107 q 135 -91 158 -107 q 93 -48 111 -75 q 65 15 75 -21 q 54 90 54 51 q 66 180 54 133 q 92 275 78 226 q 119 376 107 324 q 131 483 131 428 q 119 587 131 538 q 92 686 107 636 q 66 791 78 736 q 54 911 54 846 q 84 1067 54 1010 q 165 1125 114 1125 z "},"}":{"ha":594,"x_min":19,"x_max":554,"o":"m 210 346 q 206 365 210 358 q 198 377 203 371 q 190 393 193 383 q 186 419 186 403 q 200 479 186 453 q 231 526 214 506 q 261 560 247 546 q 275 583 275 574 q 267 602 275 590 q 248 631 258 614 q 228 671 238 649 q 219 722 219 693 q 233 802 219 763 q 246 882 246 842 q 221 963 246 931 q 160 994 196 994 q 122 989 143 994 q 83 980 101 983 q 53 981 65 976 q 42 1004 42 985 q 99 1076 42 1049 q 251 1103 157 1103 q 421 1055 369 1103 q 472 899 472 1007 q 485 790 472 839 q 513 703 497 742 q 542 635 529 664 q 554 583 554 606 q 540 544 554 560 q 507 515 525 529 q 474 480 489 500 q 460 426 460 460 q 471 350 460 394 q 482 250 482 306 q 462 138 482 188 q 404 52 442 88 q 313 -3 367 17 q 194 -22 260 -22 q 19 124 19 -22 q 47 221 19 183 q 115 258 74 258 q 181 285 153 258 q 210 346 210 311 z "},"~":{"ha":888,"x_min":35,"x_max":849,"o":"m 314 507 q 296 497 303 507 q 285 471 289 488 q 281 433 282 454 q 281 390 281 413 q 259 303 281 332 q 182 274 238 274 q 125 285 151 274 q 78 317 99 297 q 47 364 58 338 q 35 421 35 390 q 58 522 35 476 q 118 598 81 567 q 204 647 156 629 q 304 664 253 664 q 385 644 346 664 q 459 599 425 624 q 520 553 493 574 q 564 533 547 533 q 602 553 586 533 q 633 595 618 572 q 663 637 647 618 q 701 656 679 656 q 758 644 732 656 q 805 612 785 632 q 837 565 825 592 q 849 508 849 539 q 821 417 849 457 q 749 351 793 378 q 652 311 706 325 q 547 297 599 297 q 467 313 499 297 q 415 351 436 328 q 383 402 394 375 q 361 453 371 429 q 341 492 351 476 q 314 507 331 507 z "},"¡":{"ha":471,"x_min":39,"x_max":429,"o":"m 299 703 q 288 656 299 679 q 261 613 278 632 q 222 581 244 593 q 174 568 199 568 q 81 606 115 568 q 47 703 47 644 q 72 778 47 760 q 153 796 97 796 q 202 793 176 796 q 249 781 228 790 q 285 752 271 771 q 299 703 299 733 m 188 525 q 244 485 215 525 q 299 384 272 446 q 350 247 326 322 q 391 98 374 171 q 419 -36 408 25 q 429 -131 429 -97 q 424 -235 429 -190 q 398 -310 418 -281 q 338 -356 378 -340 q 229 -371 299 -371 q 163 -362 196 -371 q 111 -322 129 -354 q 76 -237 90 -286 q 54 -134 63 -187 q 42 -28 46 -81 q 39 67 39 25 q 42 144 39 99 q 53 241 46 190 q 72 342 60 292 q 100 434 83 393 q 138 500 117 475 q 188 525 160 525 z "},"¢":{"ha":903,"x_min":71,"x_max":853,"o":"m 842 768 q 810 673 842 708 q 726 638 779 638 q 663 660 683 638 q 631 717 642 683 q 616 790 621 750 q 599 864 611 831 q 565 920 588 897 q 496 943 542 943 q 411 919 450 943 q 344 853 372 896 q 299 753 315 811 q 283 626 283 694 q 299 498 283 558 q 340 392 314 438 q 401 319 367 346 q 475 293 436 293 q 544 324 517 293 q 572 403 572 354 q 609 497 572 460 q 701 535 646 535 q 763 520 735 535 q 810 479 790 506 q 842 417 831 453 q 853 338 853 381 q 827 212 853 272 q 758 103 801 151 q 655 24 714 56 q 529 -15 596 -7 q 519 -58 524 -36 q 506 -97 515 -79 q 478 -126 496 -115 q 429 -137 461 -137 q 390 -129 403 -137 q 374 -108 378 -121 q 370 -78 369 -94 q 371 -46 371 -62 q 371 -28 371 -39 q 372 -7 371 -18 q 150 152 229 26 q 71 471 71 278 q 98 679 71 582 q 173 851 125 776 q 288 974 221 926 q 436 1035 356 1022 q 461 1108 443 1086 q 515 1131 479 1131 q 561 1113 547 1131 q 575 1056 575 1096 l 575 1033 q 683 997 633 1022 q 767 937 732 972 q 822 858 803 901 q 842 768 842 815 z "},"£":{"ha":850,"x_min":15,"x_max":814,"o":"m 53 147 q 64 205 53 172 q 88 276 75 238 q 114 359 101 314 q 129 454 126 404 q 91 459 111 457 q 54 468 71 461 q 26 488 38 475 q 15 522 15 500 q 28 560 15 546 q 60 582 42 574 q 101 594 79 590 q 139 603 122 599 q 240 935 158 829 q 476 1040 321 1040 q 606 1022 547 1040 q 708 968 665 1004 q 775 878 751 932 q 799 756 799 825 q 774 653 799 690 q 707 617 750 617 q 653 631 679 617 q 606 669 626 644 q 572 728 585 694 q 558 800 558 761 q 549 868 558 836 q 523 924 539 900 q 489 963 507 949 q 454 978 471 978 q 395 950 415 978 q 365 874 375 922 q 352 761 356 826 q 342 621 349 696 q 405 621 369 621 q 473 615 440 621 q 528 592 506 608 q 550 544 550 576 q 525 492 550 510 q 465 467 500 475 q 395 457 431 458 q 339 454 360 456 q 329 400 332 419 q 326 369 326 381 q 362 297 326 325 q 454 269 397 269 q 556 298 514 269 q 599 367 599 326 q 629 428 599 401 q 699 454 660 454 q 783 399 751 454 q 814 253 814 344 q 794 130 814 179 q 740 50 774 81 q 665 5 707 19 q 578 -15 622 -10 q 494 -21 535 -21 q 421 -21 453 -21 q 272 -8 339 -21 q 156 26 204 4 q 80 78 107 47 q 53 147 53 110 z "},"¤":{"ha":1013,"x_min":90,"x_max":950,"o":"m 161 303 q 150 320 161 304 q 126 364 139 336 q 101 428 113 392 q 90 508 90 465 q 112 602 90 558 q 158 680 133 646 q 205 736 183 714 q 226 764 226 758 q 209 783 226 778 q 170 796 192 789 q 131 815 149 803 q 114 856 114 828 q 125 904 114 883 q 153 939 136 925 q 192 959 171 953 q 235 965 214 965 q 284 950 267 965 q 313 917 301 935 q 333 885 324 900 q 357 869 343 869 q 375 876 363 869 q 408 890 388 882 q 457 903 429 897 q 521 910 485 910 q 583 901 557 910 q 626 884 608 893 q 654 867 643 875 q 674 858 665 858 q 688 878 679 858 q 708 920 696 897 q 740 963 721 943 q 786 982 760 982 q 836 970 814 982 q 874 942 858 958 q 898 906 889 925 q 907 872 907 888 q 900 839 907 856 q 885 806 893 822 q 869 773 876 789 q 863 742 863 757 q 876 717 863 733 q 906 674 890 701 q 936 607 922 647 q 950 510 950 567 q 937 413 950 453 q 907 345 924 372 q 877 303 890 318 q 864 281 864 288 q 871 247 864 263 q 885 216 878 232 q 900 185 893 200 q 907 151 907 169 q 900 119 907 138 q 878 83 893 100 q 841 55 864 67 q 786 43 818 43 q 736 58 754 43 q 707 92 718 74 q 687 125 696 110 q 663 140 678 140 q 636 135 647 140 q 610 123 625 129 q 574 111 596 117 q 515 106 551 106 q 458 113 479 106 q 420 127 436 119 q 390 142 404 135 q 354 149 375 149 q 323 135 333 149 q 301 104 313 121 q 273 74 290 88 q 221 60 256 60 q 167 72 188 60 q 134 100 146 83 q 118 136 122 117 q 114 169 114 156 q 122 204 114 188 q 138 236 129 221 q 153 268 146 251 q 161 303 161 285 m 292 550 q 313 474 292 506 q 364 422 333 442 q 430 392 394 401 q 493 382 465 382 q 569 397 531 382 q 640 438 608 411 q 690 503 671 465 q 710 586 710 540 q 694 672 710 631 q 652 744 679 713 q 588 795 625 776 q 507 814 551 814 q 424 790 463 814 q 356 727 385 765 q 309 642 326 689 q 292 550 292 596 z "},"¥":{"ha":879,"x_min":50,"x_max":835,"o":"m 317 114 q 318 143 317 129 q 322 171 319 157 q 278 177 307 174 q 219 189 249 181 q 169 210 190 197 q 147 246 147 224 q 173 288 147 274 q 233 310 199 303 q 302 318 267 317 q 356 321 338 319 l 358 351 q 303 356 339 353 q 231 369 267 360 q 168 394 194 378 q 142 438 142 411 q 166 478 142 464 q 224 501 190 493 q 290 511 257 508 q 342 515 324 514 q 301 573 328 543 q 242 635 275 603 q 176 699 210 667 q 114 764 142 732 q 68 826 86 796 q 50 883 50 856 q 61 949 50 917 q 92 1007 72 982 q 142 1047 113 1032 q 207 1063 171 1063 q 272 1029 244 1063 q 321 947 300 996 q 357 839 342 897 q 384 731 372 781 q 407 649 396 682 q 431 615 418 615 q 471 638 463 615 q 479 686 479 660 q 473 776 479 731 q 467 865 467 821 q 522 1018 467 974 q 681 1063 576 1063 q 740 1050 713 1063 q 789 1015 768 1038 q 822 965 810 993 q 835 906 835 938 q 817 847 835 878 q 771 785 799 817 q 712 722 743 753 q 653 663 681 690 q 607 611 625 635 q 589 572 589 588 q 601 540 589 550 q 631 526 613 531 q 671 519 650 522 q 710 507 692 515 q 741 481 729 499 q 753 428 753 463 q 736 388 753 401 q 695 367 719 374 q 645 358 671 360 q 601 356 619 357 l 607 325 q 653 324 626 325 q 706 315 681 322 q 748 294 731 308 q 765 251 765 279 q 752 211 765 228 q 719 184 739 194 q 677 169 700 174 q 635 161 654 164 q 647 106 642 133 q 651 51 651 79 q 605 -69 651 -32 q 479 -106 558 -106 q 388 -90 421 -106 q 339 -44 354 -74 q 320 25 324 -15 q 317 114 317 65 z "},"¦":{"ha":349,"x_min":65,"x_max":269,"o":"m 268 1025 l 268 714 q 249 638 268 671 q 181 606 229 606 q 99 642 128 606 q 69 729 69 679 q 69 810 69 775 q 67 876 68 844 q 66 943 67 908 q 65 1024 65 978 q 88 1103 65 1078 q 167 1128 110 1128 q 240 1099 213 1128 q 268 1025 268 1071 m 171 503 q 193 497 182 503 q 213 481 204 490 q 228 460 222 471 q 235 438 235 449 q 238 333 235 385 q 244 228 242 281 q 258 138 247 182 q 269 47 269 93 q 245 -30 269 4 q 174 -64 221 -64 q 132 -54 151 -64 q 98 -29 113 -44 q 76 7 83 -14 q 68 50 68 28 q 76 139 68 94 q 88 228 85 183 q 97 331 90 281 q 104 433 104 382 q 124 482 104 461 q 171 503 143 503 z "},"§":{"ha":1017,"x_min":49,"x_max":954,"o":"m 944 935 q 913 836 944 875 q 831 797 881 797 q 758 831 786 797 q 729 919 729 865 q 714 994 729 960 q 672 1055 699 1029 q 610 1095 646 1081 q 532 1110 574 1110 q 463 1099 496 1110 q 404 1068 429 1088 q 364 1024 379 1049 q 349 972 349 1000 q 374 905 349 936 q 443 844 400 874 q 540 788 486 815 q 651 731 594 760 q 763 672 708 703 q 860 608 817 642 q 928 535 903 574 q 954 453 954 497 q 931 388 954 410 q 876 356 908 367 q 806 342 843 346 q 742 333 769 339 q 721 328 733 332 q 708 317 708 325 q 724 291 708 307 q 765 253 740 275 q 817 202 789 231 q 871 141 846 174 q 913 71 896 108 q 931 -8 929 33 l 931 -14 q 899 -121 932 -72 q 807 -206 865 -169 q 669 -262 749 -242 q 494 -282 589 -282 q 316 -260 397 -282 q 176 -199 235 -239 q 83 -106 117 -160 q 49 14 50 -51 l 49 21 q 60 97 49 61 q 91 159 71 132 q 138 201 111 186 q 193 217 164 217 q 242 208 215 217 q 292 183 268 199 q 331 148 315 168 q 347 107 347 128 q 354 53 347 79 q 376 8 361 28 q 415 -23 392 -11 q 469 -35 438 -35 q 523 -26 497 -35 q 569 -1 549 -17 q 601 35 589 15 q 613 76 613 56 q 579 142 613 113 q 497 199 546 171 q 390 260 447 228 q 283 331 332 292 q 200 422 233 371 q 167 542 167 474 q 184 622 167 593 q 222 667 201 650 q 260 692 243 683 q 278 714 278 701 q 259 735 278 721 q 217 771 240 749 q 176 823 194 793 q 157 893 157 853 q 184 1017 157 960 q 263 1115 211 1074 q 389 1181 314 1157 q 560 1204 464 1204 q 710 1183 640 1204 q 833 1126 781 1163 q 915 1040 885 1089 q 944 935 944 992 m 400 503 q 417 461 400 482 q 460 425 433 440 q 523 400 488 410 q 594 390 558 390 q 656 399 631 390 q 681 421 681 408 q 653 455 681 433 q 590 496 626 476 q 513 530 553 515 q 449 544 474 544 q 413 533 426 544 q 400 503 400 522 z "},"¨":{"ha":754,"x_min":58,"x_max":703,"o":"m 543 1556 q 607 1534 578 1556 q 658 1480 636 1513 q 691 1409 679 1447 q 703 1339 703 1371 q 685 1268 703 1297 q 640 1220 667 1239 q 580 1193 613 1201 q 519 1185 547 1185 q 422 1224 456 1185 q 389 1324 389 1264 q 400 1399 389 1358 q 431 1474 411 1439 q 479 1532 450 1508 q 543 1556 508 1556 m 213 1535 q 275 1513 246 1535 q 326 1460 304 1492 q 359 1390 347 1428 q 371 1319 371 1351 q 353 1249 371 1278 q 308 1201 335 1219 q 248 1174 281 1182 q 188 1165 215 1165 q 91 1205 124 1165 q 58 1304 58 1244 q 69 1379 58 1339 q 100 1454 81 1419 q 149 1512 119 1489 q 213 1535 178 1535 z "},"©":{"ha":1189,"x_min":63,"x_max":1133,"o":"m 63 467 q 104 685 63 583 q 217 861 146 786 q 387 979 289 936 q 597 1022 485 1022 q 808 979 710 1022 q 978 862 906 936 q 1092 688 1050 788 q 1133 472 1133 588 q 1091 253 1133 356 q 975 74 1049 150 q 803 -46 901 -1 q 593 -90 706 -90 q 385 -53 482 -90 q 216 55 288 -17 q 103 230 144 126 q 63 467 63 333 m 613 92 q 756 126 686 92 q 879 218 825 161 q 966 349 933 275 q 999 500 999 422 q 963 658 999 581 q 868 797 926 736 q 735 894 810 857 q 581 931 660 931 q 435 897 506 931 q 311 808 365 864 q 224 681 257 753 q 192 532 192 608 q 228 347 192 428 q 324 208 265 265 q 459 122 383 151 q 613 92 535 92 m 310 507 q 332 643 310 582 q 395 749 354 704 q 492 817 436 793 q 617 842 549 842 q 694 833 658 842 q 758 809 731 824 q 800 774 785 794 q 815 731 815 754 q 792 696 815 701 q 733 696 768 690 q 662 710 699 701 q 597 719 625 719 q 544 706 568 719 q 502 669 519 693 q 474 614 485 646 q 464 544 464 582 q 494 441 464 478 q 579 404 525 404 q 624 410 603 404 q 663 426 646 417 q 691 449 681 436 q 701 474 701 461 q 710 497 701 485 q 731 518 718 508 q 759 534 743 528 q 789 540 775 540 q 844 504 825 540 q 864 404 864 468 q 802 229 864 292 q 628 167 740 167 q 499 192 557 167 q 398 261 440 217 q 333 369 356 306 q 310 507 310 432 z "},"ª":{"ha":547,"x_min":22,"x_max":528,"o":"m 307 1168 q 263 1143 288 1168 q 212 1088 239 1118 q 157 1032 185 1057 q 101 1007 129 1007 q 55 1024 74 1007 q 36 1069 36 1040 q 62 1135 36 1107 q 124 1183 88 1164 q 201 1210 160 1201 q 272 1219 242 1219 q 342 1211 307 1219 q 409 1185 378 1203 q 464 1141 440 1167 q 497 1079 488 1115 q 506 1031 504 1056 q 507 982 507 1006 q 504 914 507 947 q 501 846 501 881 q 515 760 501 801 q 528 676 528 719 q 522 640 528 658 q 503 606 515 621 q 475 583 492 592 q 439 574 458 574 q 388 601 404 574 q 363 662 371 629 q 349 722 354 694 q 328 750 343 750 q 306 724 311 750 q 292 667 300 699 q 268 610 285 636 q 214 583 251 583 q 142 601 176 583 q 81 647 107 618 q 38 711 54 675 q 22 786 22 747 q 36 858 22 824 q 74 919 50 892 q 132 962 99 946 q 203 978 165 978 q 253 967 229 978 q 300 957 276 957 q 313 967 313 957 q 314 986 314 976 q 319 1028 314 999 q 328 1090 325 1058 q 328 1144 332 1121 q 307 1168 325 1168 m 314 853 q 306 874 314 864 q 288 893 299 885 q 263 906 276 901 q 236 911 249 911 q 192 897 213 911 q 172 863 172 883 q 181 843 172 851 q 203 828 190 835 q 228 819 215 822 q 250 817 242 817 q 269 819 258 817 q 290 825 279 821 q 307 836 300 829 q 314 853 314 843 m 129 414 q 81 435 101 414 q 60 483 60 456 q 80 535 60 511 q 129 560 100 560 l 458 560 q 508 535 488 560 q 528 483 528 511 q 507 435 528 456 q 458 414 486 414 l 129 414 z "},"«":{"ha":989,"x_min":104,"x_max":913,"o":"m 104 500 q 119 550 104 517 q 156 623 133 583 q 209 704 179 663 q 269 781 239 746 q 328 837 300 815 q 378 858 357 858 q 411 854 393 858 q 445 841 429 850 q 472 818 461 832 q 482 786 482 804 q 450 724 482 756 q 380 665 418 693 q 310 613 342 638 q 278 567 278 588 q 296 540 278 551 q 341 518 314 529 q 399 494 368 507 q 458 460 431 481 q 503 410 485 440 q 521 336 521 381 q 515 284 521 315 q 495 224 508 253 q 463 173 482 194 q 417 151 443 151 q 363 172 394 151 q 296 224 331 192 q 227 297 261 257 q 165 375 193 336 q 121 447 138 414 q 104 500 104 481 m 497 492 q 512 541 497 508 q 549 614 526 574 q 601 695 572 654 q 661 771 631 736 q 720 827 692 806 q 769 849 749 849 q 803 844 785 849 q 837 831 821 840 q 863 809 853 822 q 874 776 874 796 q 844 719 874 746 q 781 669 815 693 q 717 624 746 644 q 688 582 688 603 q 704 554 688 567 q 746 528 721 542 q 800 498 771 514 q 854 459 829 482 q 896 404 879 436 q 913 328 913 372 q 906 276 913 307 q 887 215 900 244 q 854 165 874 186 q 808 143 835 143 q 754 163 786 143 q 688 216 722 183 q 619 288 654 249 q 558 367 585 328 q 514 439 531 406 q 497 492 497 472 z "},"¬":{"ha":892,"x_min":72,"x_max":813,"o":"m 813 538 q 805 477 813 511 q 797 392 797 443 q 636 203 797 203 q 535 234 571 203 q 500 324 500 265 q 510 385 500 356 q 531 438 519 414 q 551 481 542 463 q 561 508 561 499 q 538 522 561 522 q 461 504 504 522 q 372 465 418 486 q 281 426 326 444 q 194 408 235 408 q 107 443 142 408 q 72 531 72 478 q 90 601 72 568 q 140 658 108 633 q 212 698 171 683 q 300 713 253 713 l 375 713 q 558 701 478 713 q 696 667 639 690 q 783 612 753 644 q 813 538 813 579 z "},"®":{"ha":897,"x_min":38,"x_max":861,"o":"m 38 828 q 70 978 38 908 q 158 1101 103 1049 q 290 1185 214 1154 q 450 1215 365 1215 q 610 1185 535 1215 q 740 1101 685 1154 q 828 978 796 1049 q 861 828 861 908 q 837 674 861 749 q 763 541 813 599 q 637 449 713 483 q 458 414 561 414 q 278 449 357 414 q 146 541 199 483 q 65 674 93 599 q 38 828 38 749 m 467 560 q 584 581 531 560 q 677 638 638 601 q 739 726 717 675 q 761 836 761 776 q 733 960 761 903 q 658 1060 706 1018 q 544 1126 610 1101 q 403 1150 479 1150 q 208 1085 276 1150 q 140 897 140 1019 q 165 763 140 825 q 233 656 189 700 q 336 585 276 611 q 467 560 396 560 m 531 842 q 555 818 531 833 q 608 783 579 803 q 662 740 638 764 q 686 692 686 717 q 652 638 686 661 q 575 614 618 614 q 535 621 553 614 q 508 642 517 628 q 494 683 500 654 q 483 739 489 711 q 467 788 476 767 q 443 810 458 810 q 428 803 433 810 q 422 785 422 796 q 430 761 422 772 q 446 739 438 750 q 462 715 454 728 q 469 686 469 701 q 460 655 469 669 q 434 629 450 640 q 397 612 418 618 q 351 606 375 606 q 286 624 311 606 q 261 669 261 642 q 274 713 261 690 q 302 756 286 735 q 331 797 318 776 q 343 838 343 818 q 331 872 343 857 q 303 904 318 888 q 276 940 289 921 q 264 982 264 958 q 276 1024 264 1004 q 308 1058 288 1043 q 358 1081 329 1072 q 419 1089 386 1089 q 494 1077 460 1089 q 556 1046 529 1065 q 599 1000 583 1026 q 614 944 614 974 q 601 899 614 917 q 572 872 588 882 q 544 855 557 861 q 531 842 531 849 m 386 939 q 391 918 386 929 q 403 898 396 907 q 419 883 410 889 q 436 876 428 876 q 465 893 451 876 q 479 926 479 910 q 463 960 479 946 q 424 974 446 974 q 397 964 407 974 q 386 939 386 954 z "},"¯":{"ha":657,"x_min":60,"x_max":586,"o":"m 586 1368 q 565 1290 586 1319 q 508 1244 543 1260 q 428 1223 472 1228 q 338 1218 383 1218 q 244 1222 293 1218 q 153 1240 194 1225 q 86 1287 113 1256 q 60 1374 60 1318 q 69 1458 60 1428 q 101 1501 79 1488 q 155 1517 122 1514 q 233 1519 188 1519 q 338 1514 278 1519 q 454 1492 399 1508 q 548 1447 510 1476 q 586 1368 586 1417 z "},"°":{"ha":533,"x_min":60,"x_max":457,"o":"m 457 938 q 447 843 457 890 q 413 759 436 796 q 354 699 390 722 q 265 676 318 676 q 174 697 213 676 q 110 749 135 717 q 72 823 85 782 q 60 906 60 864 q 72 1004 60 953 q 110 1099 85 1056 q 174 1169 135 1142 q 265 1197 213 1197 q 354 1173 318 1197 q 413 1110 390 1149 q 447 1026 436 1072 q 457 938 457 981 m 194 982 q 199 947 194 965 q 211 915 203 929 q 232 890 219 900 q 260 881 244 881 q 319 908 292 881 q 346 975 346 935 q 338 1014 346 994 q 319 1049 331 1033 q 295 1074 308 1064 q 271 1083 282 1083 q 247 1074 260 1083 q 222 1049 233 1064 q 202 1017 210 1035 q 194 982 194 999 z "},"±":{"ha":974,"x_min":67,"x_max":931,"o":"m 572 638 q 592 579 572 608 q 634 519 611 550 q 676 457 657 489 q 694 389 694 425 q 674 324 694 351 q 622 278 653 296 q 556 252 592 261 q 489 243 519 243 q 436 249 464 243 q 385 267 408 254 q 347 301 363 281 q 332 353 332 322 q 356 427 332 389 q 410 503 381 465 q 465 576 440 542 q 489 638 489 611 q 478 665 489 654 q 450 676 468 676 q 401 656 431 676 q 338 609 371 635 q 272 563 304 583 q 211 542 239 542 q 162 553 188 542 q 115 585 136 564 q 81 636 94 606 q 67 704 67 667 q 78 770 67 743 q 109 815 90 797 q 151 840 128 832 q 197 849 175 849 q 244 840 221 849 q 289 822 267 832 q 334 802 311 811 q 381 793 357 793 q 405 799 396 793 q 414 821 414 806 q 397 869 414 844 q 360 920 381 894 q 324 971 340 946 q 307 1021 307 996 q 327 1069 307 1049 q 376 1103 347 1089 q 435 1123 404 1117 q 488 1129 465 1129 q 539 1123 510 1129 q 594 1103 568 1117 q 639 1069 621 1090 q 657 1021 657 1049 q 644 976 657 999 q 617 931 632 953 q 590 888 603 908 q 578 847 578 867 q 592 813 578 829 q 625 796 606 796 q 663 807 642 796 q 707 832 683 818 q 755 857 731 846 q 801 868 779 868 q 850 853 826 868 q 891 817 874 839 q 919 769 908 796 q 931 719 931 743 q 919 672 931 693 q 888 635 907 650 q 845 611 869 619 q 794 603 821 603 q 740 611 767 603 q 687 630 713 619 q 637 649 661 640 q 590 657 613 657 q 572 638 572 657 m 853 60 q 815 -22 853 10 q 724 -71 778 -53 q 608 -95 669 -89 q 497 -101 546 -101 q 424 -101 465 -101 q 338 -97 382 -101 q 251 -83 294 -93 q 175 -55 208 -74 q 121 -7 142 -36 q 100 65 100 22 q 113 155 100 125 q 156 197 126 185 q 231 210 185 210 q 342 211 276 211 q 424 209 374 211 q 530 201 474 207 q 644 185 586 196 q 748 158 701 175 q 824 117 794 140 q 853 60 853 93 z "},"²":{"ha":665,"x_min":0,"x_max":658,"o":"m 318 1314 q 484 1275 422 1314 q 546 1171 546 1236 q 524 1097 546 1132 q 469 1028 501 1061 q 397 966 436 996 q 326 908 358 936 q 271 856 293 881 q 249 807 249 831 q 282 755 249 778 q 357 732 315 732 q 403 740 381 732 q 442 760 425 747 q 470 789 460 772 q 481 822 481 806 q 499 860 481 846 q 547 875 517 875 q 627 835 596 875 q 658 729 658 794 q 598 603 658 644 q 411 561 538 561 q 335 559 378 561 q 247 558 292 557 q 160 563 203 558 q 83 581 117 568 q 30 618 50 594 q 10 679 10 642 q 38 768 10 725 q 108 850 65 811 q 199 925 150 889 q 290 994 247 961 q 360 1059 332 1028 q 388 1118 388 1090 q 363 1164 388 1146 q 303 1182 339 1182 q 241 1165 267 1182 q 192 1126 215 1147 q 142 1087 168 1104 q 81 1069 117 1069 q 22 1089 44 1069 q 0 1140 0 1108 q 26 1206 0 1175 q 97 1262 53 1238 q 198 1300 140 1286 q 318 1314 256 1314 z "},"³":{"ha":625,"x_min":17,"x_max":596,"o":"m 306 1322 q 395 1312 354 1322 q 466 1283 436 1301 q 513 1240 496 1265 q 529 1186 529 1215 q 497 1115 529 1143 q 427 1070 465 1088 q 357 1044 389 1053 q 325 1029 325 1035 q 345 1024 325 1026 q 395 1016 365 1022 q 460 998 425 1010 q 526 963 496 986 q 576 904 556 940 q 596 813 596 868 q 575 715 596 758 q 517 641 554 672 q 426 593 479 610 q 308 576 374 576 q 192 592 244 576 q 101 635 139 607 q 41 703 63 664 q 19 788 19 742 q 31 850 19 821 q 61 901 42 879 q 108 934 81 922 q 165 946 135 946 q 224 923 206 946 q 242 847 242 900 q 294 756 242 756 q 358 788 331 756 q 385 863 385 819 q 360 924 385 904 q 306 956 336 943 q 252 982 276 969 q 228 1021 228 994 q 252 1069 228 1049 q 306 1108 276 1089 q 360 1146 336 1126 q 385 1190 385 1165 q 359 1233 385 1215 q 296 1250 333 1250 q 213 1222 247 1250 q 179 1151 179 1193 q 154 1093 179 1117 q 92 1069 129 1069 q 37 1090 57 1069 q 17 1144 17 1110 q 40 1213 17 1181 q 103 1269 64 1244 q 195 1308 143 1293 q 306 1322 247 1322 z "},"´":{"ha":610,"x_min":68,"x_max":535,"o":"m 253 1150 q 202 1154 233 1150 q 141 1168 171 1158 q 90 1193 111 1178 q 68 1229 68 1208 q 89 1294 68 1258 q 142 1367 110 1331 q 216 1439 175 1404 q 298 1501 257 1474 q 375 1544 339 1528 q 435 1561 411 1561 q 466 1554 449 1561 q 499 1536 483 1547 q 524 1510 514 1525 q 535 1481 535 1496 q 522 1421 535 1456 q 488 1349 510 1386 q 438 1277 465 1313 q 378 1213 410 1242 q 314 1167 346 1185 q 253 1150 282 1150 z "},"¶":{"ha":972,"x_min":58,"x_max":936,"o":"m 58 840 q 97 992 58 921 q 203 1118 136 1064 q 358 1203 269 1172 q 544 1235 446 1235 q 682 1216 619 1235 q 790 1164 744 1197 q 861 1084 836 1131 q 886 982 886 1038 q 877 910 886 947 q 858 831 868 872 q 838 744 847 790 q 829 647 829 699 q 846 504 829 576 q 883 358 863 432 q 919 211 903 285 q 936 64 936 138 q 905 -81 936 -31 q 815 -131 874 -131 q 711 -67 749 -131 q 674 114 674 -3 q 683 240 674 175 q 704 374 693 306 q 725 514 715 443 q 735 657 735 585 q 713 828 735 764 q 654 893 690 893 q 603 833 621 893 q 586 658 586 772 q 592 516 586 588 q 606 374 599 444 q 619 238 613 304 q 625 111 625 172 q 597 -73 625 -11 q 511 -135 568 -135 q 451 -117 481 -135 q 397 -69 421 -100 q 357 2 372 -39 q 342 90 342 43 q 359 201 342 147 q 398 302 376 254 q 437 392 419 350 q 454 468 454 433 q 425 535 454 511 q 351 578 396 560 q 256 613 307 596 q 161 656 206 629 q 88 726 117 682 q 58 840 58 769 z "},"·":{"ha":549,"x_min":83,"x_max":467,"o":"m 274 661 q 341 634 307 661 q 403 567 375 607 q 449 481 431 526 q 467 399 467 436 q 445 321 467 351 q 390 272 424 290 q 318 247 357 254 q 243 240 279 240 q 124 284 164 240 q 83 396 83 328 q 101 481 83 435 q 146 567 118 528 q 207 634 174 607 q 274 661 240 661 z "},"¸":{"ha":589,"x_min":33,"x_max":503,"o":"m 379 4 q 399 -35 379 -22 q 441 -64 418 -49 q 483 -106 464 -79 q 503 -186 503 -132 q 472 -294 503 -250 q 394 -364 442 -337 q 290 -401 347 -390 q 181 -412 233 -412 q 115 -400 143 -412 q 69 -365 88 -387 q 42 -315 51 -343 q 33 -254 33 -286 q 57 -199 33 -218 q 116 -172 81 -181 q 193 -160 151 -162 q 270 -154 235 -158 q 329 -140 306 -150 q 353 -108 353 -131 q 323 -83 353 -93 q 256 -65 293 -74 q 189 -44 219 -56 q 157 -12 158 -33 l 157 -10 q 170 47 157 19 q 204 93 183 74 q 253 124 225 113 q 310 136 281 136 q 339 133 324 136 q 367 122 354 129 q 388 103 379 115 q 396 75 396 92 q 388 40 396 56 q 379 4 379 24 z "},"¹":{"ha":674,"x_min":33,"x_max":635,"o":"m 476 1135 q 472 1066 476 1103 q 464 992 468 1029 q 456 917 460 954 q 451 849 451 881 q 453 815 451 835 q 460 778 454 796 q 478 747 467 760 q 507 735 489 735 q 544 743 526 735 q 582 751 563 751 q 607 744 597 751 q 623 724 617 736 q 632 697 629 711 q 635 671 635 683 q 603 595 635 622 q 527 556 572 568 q 433 540 482 543 q 350 538 385 538 q 300 538 331 538 q 235 543 269 539 q 166 554 201 547 q 103 574 131 561 q 57 606 75 588 q 39 653 39 625 q 62 724 39 696 q 129 753 85 753 q 173 746 151 753 q 217 739 194 739 q 274 760 251 739 q 310 817 296 782 q 331 894 324 851 q 340 980 338 938 q 343 1060 343 1022 q 343 1121 343 1097 q 342 1151 343 1132 q 338 1191 342 1171 q 326 1226 335 1211 q 303 1240 318 1240 q 259 1229 278 1240 q 228 1200 240 1218 q 210 1160 215 1182 q 204 1115 204 1138 q 186 1045 204 1075 q 122 1015 168 1015 q 60 1037 86 1015 q 33 1097 33 1058 q 62 1174 33 1140 q 131 1233 90 1208 q 218 1269 172 1257 q 300 1282 264 1282 q 431 1250 385 1282 q 476 1135 476 1218 z "},"º":{"ha":549,"x_min":43,"x_max":519,"o":"m 493 917 q 482 776 493 838 q 446 674 471 715 q 380 610 421 632 q 278 589 339 589 q 185 609 228 589 q 110 669 142 629 q 61 768 79 708 q 43 908 43 828 q 53 1001 43 949 q 90 1101 64 1054 q 162 1180 117 1147 q 278 1213 207 1213 q 386 1183 344 1213 q 451 1110 428 1154 q 484 1014 475 1065 q 493 917 493 963 m 181 943 q 206 836 181 868 q 274 804 232 804 q 347 840 319 804 q 375 940 375 875 q 371 987 375 953 q 356 1057 367 1021 q 326 1122 344 1093 q 278 1150 307 1150 q 230 1122 249 1150 q 200 1056 211 1093 q 185 986 189 1019 q 181 943 181 953 m 121 414 q 72 435 93 414 q 51 483 51 456 q 72 535 51 511 q 121 560 93 560 l 450 560 q 499 535 478 560 q 519 483 519 511 q 499 435 519 456 q 450 414 478 414 l 121 414 z "},"»":{"ha":1017,"x_min":104,"x_max":925,"o":"m 521 506 q 503 447 521 482 q 458 372 486 411 q 394 293 429 332 q 324 222 358 254 q 258 171 289 190 q 206 151 226 151 q 169 167 188 151 q 137 209 151 183 q 113 267 122 235 q 104 331 104 299 q 123 410 104 376 q 171 469 142 444 q 233 513 200 494 q 294 547 265 532 q 342 576 324 563 q 361 604 361 589 q 343 633 361 619 q 297 659 325 646 q 238 687 269 672 q 179 717 207 701 q 133 753 151 733 q 115 794 115 772 q 122 824 115 810 q 140 851 129 839 q 165 872 151 864 q 193 879 179 879 q 248 858 215 879 q 317 803 281 838 q 390 728 353 769 q 456 645 426 686 q 503 567 485 604 q 521 506 521 529 m 925 508 q 908 449 925 485 q 862 373 890 413 q 798 294 833 333 q 728 222 763 254 q 662 171 693 190 q 610 151 631 151 q 574 167 592 151 q 541 210 556 183 q 517 268 526 236 q 508 333 508 300 q 525 411 508 379 q 567 466 542 443 q 621 506 592 489 q 675 535 650 522 q 717 561 700 549 q 733 589 733 574 q 704 631 733 610 q 640 676 675 653 q 576 726 606 700 q 547 781 547 751 q 554 808 547 794 q 572 833 561 822 q 597 851 583 844 q 624 858 611 858 q 676 839 646 858 q 740 788 707 819 q 807 719 774 757 q 866 642 840 681 q 908 567 892 603 q 925 508 925 532 z "},"¼":{"ha":1719,"x_min":61,"x_max":1661,"o":"m 504 1010 q 500 941 504 978 q 492 867 496 904 q 483 792 488 829 q 479 724 479 756 q 481 691 479 710 q 488 654 482 672 q 506 624 494 636 q 535 611 517 611 q 572 619 554 611 q 610 628 590 628 q 635 619 625 628 q 651 599 644 611 q 659 574 657 588 q 661 547 661 560 q 630 470 661 497 q 554 431 599 443 q 461 416 510 418 q 378 414 413 414 q 297 416 349 414 q 193 430 244 418 q 103 465 142 442 q 65 529 65 488 q 89 599 65 571 q 157 628 113 628 q 200 621 179 628 q 244 614 221 614 q 301 636 278 614 q 338 693 324 658 q 358 771 351 728 q 368 856 365 814 q 371 936 371 899 q 371 997 371 974 q 370 1026 371 1007 q 366 1066 369 1046 q 354 1101 363 1086 q 331 1115 346 1115 q 287 1104 306 1115 q 256 1076 268 1093 q 238 1036 243 1058 q 232 992 232 1014 q 214 920 232 950 q 150 890 196 890 q 88 912 114 890 q 61 972 61 933 q 90 1049 61 1015 q 159 1108 118 1083 q 246 1144 200 1132 q 328 1157 292 1157 q 458 1126 413 1157 q 504 1010 504 1094 m 1078 1099 q 1094 1092 1085 1099 q 1111 1076 1103 1086 q 1125 1056 1119 1067 q 1131 1036 1131 1044 q 1116 974 1131 1022 q 1078 853 1101 925 q 1022 694 1054 782 q 956 516 990 607 q 888 337 922 425 q 825 176 854 249 q 774 54 796 104 q 740 -11 751 4 q 717 -35 732 -24 q 682 -54 701 -46 q 642 -67 663 -62 q 603 -72 622 -72 q 555 -63 578 -72 q 514 -39 532 -54 q 485 -4 496 -24 q 474 36 474 15 q 496 127 474 65 q 556 269 518 189 q 641 442 593 349 q 742 627 689 535 q 847 804 794 719 q 945 955 900 889 q 1026 1060 990 1021 q 1078 1099 1061 1099 m 1532 367 q 1548 375 1540 367 q 1564 393 1556 383 q 1583 411 1572 403 q 1610 419 1594 419 q 1636 411 1626 419 q 1651 391 1646 403 q 1659 365 1657 379 q 1661 340 1661 351 q 1658 309 1661 326 q 1647 277 1654 292 q 1628 252 1640 263 q 1596 242 1615 242 q 1550 257 1571 242 q 1515 272 1529 272 q 1494 258 1503 272 q 1485 232 1485 243 q 1496 199 1485 218 q 1521 160 1507 181 q 1546 116 1535 139 q 1557 69 1557 93 q 1539 17 1557 39 q 1494 -18 1521 -4 q 1437 -38 1468 -32 q 1379 -44 1406 -44 q 1335 -40 1361 -44 q 1285 -27 1308 -36 q 1244 -2 1261 -18 q 1225 36 1226 14 l 1224 40 q 1248 97 1224 68 q 1301 152 1272 125 q 1353 203 1329 179 q 1378 246 1378 228 q 1372 262 1378 256 q 1356 272 1365 268 q 1336 276 1346 275 q 1318 278 1326 278 q 1261 265 1292 278 q 1198 238 1231 253 q 1132 211 1165 224 q 1065 199 1099 199 q 1019 210 1039 199 q 985 240 999 221 q 965 281 971 258 q 958 326 958 304 q 994 455 958 389 q 1085 574 1029 521 q 1209 662 1140 628 q 1344 696 1278 696 q 1463 656 1428 696 q 1497 542 1497 617 q 1496 503 1497 522 q 1494 464 1494 483 q 1496 441 1494 457 q 1501 408 1497 425 q 1513 379 1506 392 q 1532 367 1519 367 m 1163 367 q 1172 351 1163 357 q 1195 342 1182 346 q 1222 338 1208 339 q 1242 338 1235 338 q 1294 344 1274 338 q 1326 367 1314 350 q 1342 414 1338 385 q 1347 489 1347 443 q 1347 517 1347 494 q 1344 563 1346 539 q 1336 607 1342 588 q 1322 626 1331 626 q 1297 610 1313 626 q 1263 569 1281 594 q 1228 513 1246 543 q 1195 453 1210 482 q 1172 401 1181 424 q 1163 367 1163 378 z "},"½":{"ha":1703,"x_min":61,"x_max":1657,"o":"m 504 1010 q 500 941 504 978 q 492 867 496 904 q 483 792 488 829 q 479 724 479 756 q 481 691 479 710 q 488 654 482 672 q 506 624 494 636 q 535 611 517 611 q 572 619 554 611 q 610 628 590 628 q 635 619 625 628 q 651 599 644 611 q 659 574 657 588 q 661 547 661 560 q 630 470 661 497 q 554 431 599 443 q 461 416 510 418 q 378 414 413 414 q 297 416 349 414 q 193 430 244 418 q 103 465 142 442 q 65 529 65 488 q 89 599 65 571 q 157 628 113 628 q 200 621 179 628 q 244 614 221 614 q 301 636 278 614 q 338 693 324 658 q 358 771 351 728 q 368 856 365 814 q 371 936 371 899 q 371 997 371 974 q 370 1026 371 1007 q 366 1066 369 1046 q 354 1101 363 1086 q 331 1115 346 1115 q 287 1104 306 1115 q 256 1076 268 1093 q 238 1036 243 1058 q 232 992 232 1014 q 214 920 232 950 q 150 890 196 890 q 88 912 114 890 q 61 972 61 933 q 90 1049 61 1015 q 159 1108 118 1083 q 246 1144 200 1132 q 328 1157 292 1157 q 458 1126 413 1157 q 504 1010 504 1094 m 1078 1099 q 1094 1092 1085 1099 q 1111 1076 1103 1086 q 1125 1056 1119 1067 q 1131 1036 1131 1044 q 1116 974 1131 1022 q 1078 853 1101 925 q 1022 694 1054 782 q 956 516 990 607 q 888 337 922 425 q 825 176 854 249 q 774 54 796 104 q 740 -11 751 4 q 717 -35 732 -24 q 682 -54 701 -46 q 642 -67 663 -62 q 603 -72 622 -72 q 555 -63 578 -72 q 514 -39 532 -54 q 485 -4 496 -24 q 474 36 474 15 q 496 127 474 65 q 556 269 518 189 q 641 442 593 349 q 742 627 689 535 q 847 804 794 719 q 945 955 900 889 q 1026 1060 990 1021 q 1078 1099 1061 1099 m 1317 689 q 1483 651 1421 689 q 1544 547 1544 613 q 1522 472 1544 508 q 1467 403 1500 436 q 1396 341 1435 371 q 1324 283 1357 311 q 1269 231 1292 256 q 1247 182 1247 206 q 1281 130 1247 153 q 1356 107 1314 107 q 1401 115 1379 107 q 1441 135 1424 122 q 1469 164 1458 147 q 1479 197 1479 181 q 1497 236 1479 221 q 1546 251 1515 251 q 1626 210 1594 251 q 1657 104 1657 169 q 1597 -22 1657 19 q 1410 -62 1536 -62 q 1334 -65 1376 -62 q 1248 -66 1292 -67 q 1162 -61 1204 -65 q 1086 -44 1119 -57 q 1031 -9 1053 -32 q 1008 50 1010 14 l 1008 56 q 1036 144 1008 101 q 1106 225 1064 186 q 1197 300 1149 264 q 1288 370 1246 336 q 1358 435 1331 404 q 1386 494 1386 465 q 1362 540 1386 522 q 1301 558 1338 558 q 1240 540 1265 558 q 1190 501 1214 522 q 1141 463 1167 481 q 1079 444 1115 444 q 1021 464 1043 444 q 999 515 999 483 q 1025 581 999 550 q 1095 637 1051 613 q 1197 675 1139 661 q 1317 689 1254 689 z "},"¾":{"ha":1697,"x_min":83,"x_max":1649,"o":"m 374 1208 q 463 1198 422 1208 q 534 1170 504 1188 q 581 1128 564 1153 q 597 1074 597 1103 q 565 1002 597 1031 q 494 956 533 974 q 424 930 456 939 q 392 917 392 921 q 412 910 392 913 q 463 903 432 908 q 528 885 493 897 q 593 851 563 874 q 644 792 624 828 q 664 700 664 756 q 585 528 664 592 q 375 464 507 464 q 258 479 311 464 q 167 523 206 494 q 108 590 129 551 q 88 675 88 629 q 99 738 88 708 q 129 788 110 767 q 175 822 149 810 q 232 833 201 833 q 290 810 272 833 q 308 733 308 786 q 363 642 308 642 q 425 674 399 642 q 451 750 451 707 q 427 811 451 792 q 374 843 403 831 q 320 869 344 856 q 296 908 296 882 q 320 955 296 935 q 374 994 344 975 q 427 1032 403 1013 q 451 1076 451 1051 q 426 1120 451 1103 q 363 1138 400 1138 q 281 1108 314 1138 q 247 1039 247 1079 q 222 981 247 1004 q 158 957 196 957 q 104 977 125 957 q 83 1031 83 997 q 107 1099 83 1067 q 170 1155 131 1131 q 263 1194 210 1179 q 374 1208 315 1208 m 1065 1099 q 1081 1092 1072 1099 q 1099 1076 1090 1086 q 1113 1056 1107 1067 q 1118 1036 1118 1044 q 1103 974 1118 1022 q 1065 853 1089 925 q 1010 694 1042 782 q 944 516 978 607 q 876 337 910 425 q 813 176 842 249 q 761 54 783 104 q 728 -11 739 4 q 704 -35 719 -24 q 669 -54 689 -46 q 630 -67 650 -62 q 590 -72 610 -72 q 542 -63 565 -72 q 501 -39 519 -54 q 472 -4 483 -24 q 461 36 461 15 q 483 127 461 65 q 543 269 506 189 q 628 442 581 349 q 729 627 676 535 q 835 804 782 719 q 933 955 888 889 q 1013 1060 978 1021 q 1065 1099 1049 1099 m 1519 367 q 1535 375 1528 367 q 1551 393 1543 383 q 1571 411 1560 403 q 1597 419 1582 419 q 1624 411 1614 419 q 1639 391 1633 403 q 1647 365 1644 379 q 1649 340 1649 351 q 1645 309 1649 326 q 1635 277 1642 292 q 1615 252 1628 263 q 1583 242 1603 242 q 1538 257 1558 242 q 1503 272 1517 272 q 1481 258 1490 272 q 1472 232 1472 243 q 1483 199 1472 218 q 1508 160 1494 181 q 1533 116 1522 139 q 1544 69 1544 93 q 1526 17 1544 39 q 1482 -18 1508 -4 q 1424 -38 1456 -32 q 1367 -44 1393 -44 q 1322 -40 1349 -44 q 1272 -27 1296 -36 q 1231 -2 1249 -18 q 1213 36 1214 14 l 1211 40 q 1235 97 1211 68 q 1288 152 1260 125 q 1341 203 1317 179 q 1365 246 1365 228 q 1359 262 1365 256 q 1343 272 1353 268 q 1324 276 1333 275 q 1306 278 1314 278 q 1249 265 1279 278 q 1185 238 1218 253 q 1119 211 1153 224 q 1053 199 1086 199 q 1006 210 1026 199 q 972 240 986 221 q 952 281 958 258 q 946 326 946 304 q 981 455 946 389 q 1072 574 1017 521 q 1197 662 1128 628 q 1332 696 1265 696 q 1450 656 1415 696 q 1485 542 1485 617 q 1483 503 1485 522 q 1482 464 1482 483 q 1483 441 1482 457 q 1489 408 1485 425 q 1500 379 1493 392 q 1519 367 1507 367 m 1150 367 q 1160 351 1150 357 q 1183 342 1169 346 q 1209 338 1196 339 q 1229 338 1222 338 q 1281 344 1261 338 q 1313 367 1301 350 q 1330 414 1325 385 q 1335 489 1335 443 q 1334 517 1335 494 q 1331 563 1333 539 q 1324 607 1329 588 q 1310 626 1318 626 q 1284 610 1300 626 q 1251 569 1268 594 q 1215 513 1233 543 q 1183 453 1197 482 q 1159 401 1168 424 q 1150 367 1150 378 z "},"¿":{"ha":706,"x_min":24,"x_max":678,"o":"m 246 715 q 283 793 246 763 q 379 824 321 824 q 499 696 499 824 q 472 603 499 636 q 399 569 446 569 q 342 582 369 569 q 294 615 315 594 q 259 661 272 635 q 246 715 246 688 m 210 57 q 247 -14 210 15 q 335 -43 283 -43 q 426 -14 388 -43 q 464 56 464 15 q 490 111 464 89 q 556 133 517 133 q 644 85 611 133 q 678 -43 678 38 q 654 -165 678 -110 q 589 -260 631 -219 q 488 -323 547 -300 q 358 -347 429 -346 l 351 -347 q 216 -324 276 -347 q 113 -255 156 -300 q 47 -147 69 -210 q 24 -4 24 -83 q 40 74 24 40 q 81 137 57 108 q 135 190 106 165 q 188 241 164 215 q 229 297 213 267 q 246 365 246 326 q 259 433 246 400 q 294 490 272 465 q 344 531 315 515 q 401 546 372 546 q 472 514 444 546 q 499 432 499 482 q 477 351 499 388 q 424 283 456 315 q 354 224 392 251 q 285 169 317 196 q 231 115 253 142 q 210 57 210 88 z "},"À":{"ha":1296,"x_min":1,"x_max":1299,"o":"m 872 1233 q 855 1195 872 1211 q 813 1169 838 1179 q 762 1154 789 1158 q 715 1150 735 1150 q 657 1167 689 1150 q 592 1213 625 1185 q 530 1278 560 1242 q 476 1352 500 1314 q 438 1427 453 1390 q 424 1493 424 1464 q 435 1528 424 1511 q 465 1559 447 1546 q 502 1581 482 1572 q 539 1589 522 1589 q 596 1568 563 1589 q 666 1515 629 1547 q 740 1442 703 1483 q 806 1363 776 1401 q 854 1289 836 1324 q 872 1233 872 1254 m 1 -8 q 32 104 1 53 q 108 204 63 156 q 207 300 154 253 q 306 399 260 347 q 382 508 351 450 q 413 636 413 567 q 402 710 413 678 q 379 769 392 742 q 356 820 367 796 q 346 874 346 844 q 370 953 346 915 q 435 1019 394 990 q 531 1065 476 1049 q 643 1082 585 1082 q 738 1069 694 1082 q 815 1032 782 1056 q 865 976 847 1008 q 883 906 883 943 q 879 863 883 888 q 870 813 875 839 q 861 759 865 786 q 857 707 857 732 q 890 591 857 639 q 972 504 922 543 q 1078 429 1021 465 q 1184 349 1135 393 q 1266 248 1233 306 q 1299 108 1299 190 q 1228 -78 1299 -10 q 1038 -146 1158 -146 q 833 60 833 -146 q 819 165 833 115 q 781 251 806 214 q 725 309 757 288 q 657 331 693 331 q 597 307 619 331 q 561 244 575 283 q 538 156 547 206 q 518 54 529 106 q 491 -47 507 3 q 446 -136 475 -97 q 371 -199 417 -175 q 257 -222 325 -222 q 154 -206 201 -222 q 73 -162 107 -190 q 20 -94 39 -133 q 1 -8 1 -54 m 549 572 q 578 510 549 535 q 653 485 608 485 q 719 510 694 485 q 743 579 743 535 q 734 641 743 601 q 710 719 725 681 q 678 788 696 758 q 642 817 660 817 q 603 786 621 817 q 574 715 586 756 q 556 633 563 674 q 549 572 549 593 z "},"Á":{"ha":1296,"x_min":1,"x_max":1299,"o":"m 600 1150 q 549 1154 581 1150 q 487 1168 517 1158 q 435 1193 457 1178 q 414 1229 414 1208 q 435 1294 414 1258 q 488 1367 456 1331 q 563 1439 521 1404 q 645 1501 604 1474 q 722 1544 686 1528 q 782 1561 758 1561 q 813 1554 796 1561 q 846 1536 831 1547 q 872 1510 861 1525 q 882 1481 882 1496 q 869 1421 882 1456 q 835 1349 857 1386 q 785 1277 813 1313 q 725 1213 757 1242 q 661 1167 693 1185 q 600 1150 629 1150 m 1 -8 q 32 104 1 53 q 108 204 63 156 q 207 300 154 253 q 306 399 260 347 q 382 508 351 450 q 413 636 413 567 q 402 710 413 678 q 379 769 392 742 q 356 820 367 796 q 346 874 346 844 q 370 953 346 915 q 435 1019 394 990 q 531 1065 476 1049 q 643 1082 585 1082 q 738 1069 694 1082 q 815 1032 782 1056 q 865 976 847 1008 q 883 906 883 943 q 879 863 883 888 q 870 813 875 839 q 861 759 865 786 q 857 707 857 732 q 890 591 857 639 q 972 504 922 543 q 1078 429 1021 465 q 1184 349 1135 393 q 1266 248 1233 306 q 1299 108 1299 190 q 1228 -78 1299 -10 q 1038 -146 1158 -146 q 833 60 833 -146 q 819 165 833 115 q 781 251 806 214 q 725 309 757 288 q 657 331 693 331 q 597 307 619 331 q 561 244 575 283 q 538 156 547 206 q 518 54 529 106 q 491 -47 507 3 q 446 -136 475 -97 q 371 -199 417 -175 q 257 -222 325 -222 q 154 -206 201 -222 q 73 -162 107 -190 q 20 -94 39 -133 q 1 -8 1 -54 m 549 572 q 578 510 549 535 q 653 485 608 485 q 719 510 694 485 q 743 579 743 535 q 734 641 743 601 q 710 719 725 681 q 678 788 696 758 q 642 817 660 817 q 603 786 621 817 q 574 715 586 756 q 556 633 563 674 q 549 572 549 593 z "},"Â":{"ha":1296,"x_min":1,"x_max":1299,"o":"m 643 1619 q 700 1601 667 1619 q 769 1552 733 1582 q 840 1484 806 1522 q 903 1407 875 1446 q 948 1331 931 1368 q 965 1268 965 1294 q 951 1222 965 1244 q 915 1183 936 1200 q 871 1157 894 1167 q 828 1147 847 1147 q 793 1175 810 1147 q 760 1244 776 1203 q 730 1335 744 1286 q 702 1426 715 1385 q 677 1496 689 1468 q 656 1524 665 1524 q 635 1496 647 1524 q 609 1426 624 1468 q 576 1335 594 1385 q 538 1244 558 1286 q 494 1175 517 1203 q 444 1147 471 1147 q 365 1178 399 1147 q 332 1264 332 1210 q 348 1331 332 1293 q 390 1408 364 1368 q 450 1485 417 1447 q 517 1553 483 1524 q 585 1601 551 1583 q 643 1619 618 1619 m 1 -8 q 32 104 1 53 q 108 204 63 156 q 207 300 154 253 q 306 399 260 347 q 382 508 351 450 q 413 636 413 567 q 402 710 413 678 q 379 769 392 742 q 356 820 367 796 q 346 874 346 844 q 370 953 346 915 q 435 1019 394 990 q 531 1065 476 1049 q 643 1082 585 1082 q 738 1069 694 1082 q 815 1032 782 1056 q 865 976 847 1008 q 883 906 883 943 q 879 863 883 888 q 870 813 875 839 q 861 759 865 786 q 857 707 857 732 q 890 591 857 639 q 972 504 922 543 q 1078 429 1021 465 q 1184 349 1135 393 q 1266 248 1233 306 q 1299 108 1299 190 q 1228 -78 1299 -10 q 1038 -146 1158 -146 q 833 60 833 -146 q 819 165 833 115 q 781 251 806 214 q 725 309 757 288 q 657 331 693 331 q 597 307 619 331 q 561 244 575 283 q 538 156 547 206 q 518 54 529 106 q 491 -47 507 3 q 446 -136 475 -97 q 371 -199 417 -175 q 257 -222 325 -222 q 154 -206 201 -222 q 73 -162 107 -190 q 20 -94 39 -133 q 1 -8 1 -54 m 549 572 q 578 510 549 535 q 653 485 608 485 q 719 510 694 485 q 743 579 743 535 q 734 641 743 601 q 710 719 725 681 q 678 788 696 758 q 642 817 660 817 q 603 786 621 817 q 574 715 586 756 q 556 633 563 674 q 549 572 549 593 z "},"Ã":{"ha":1296,"x_min":1,"x_max":1299,"o":"m 508 1496 q 486 1450 486 1496 q 492 1406 486 1429 q 503 1358 497 1383 q 515 1306 510 1333 q 521 1249 521 1278 q 418 1131 521 1131 q 306 1175 350 1131 q 261 1290 261 1219 q 285 1390 261 1342 q 349 1475 310 1438 q 440 1535 389 1513 q 544 1557 490 1557 q 649 1531 606 1557 q 726 1473 693 1504 q 783 1415 758 1442 q 828 1389 807 1389 q 851 1397 846 1389 q 856 1418 857 1406 q 852 1446 856 1431 q 849 1475 849 1461 q 869 1519 849 1500 q 924 1538 890 1538 q 1003 1499 972 1538 q 1035 1399 1035 1460 q 1014 1306 1035 1351 q 959 1226 993 1261 q 881 1169 925 1190 q 789 1149 836 1149 q 699 1174 736 1149 q 635 1239 661 1200 q 591 1322 608 1278 q 560 1406 574 1367 q 535 1470 547 1444 q 508 1496 524 1496 m 1 -8 q 32 104 1 53 q 108 204 63 156 q 207 300 154 253 q 306 399 260 347 q 382 508 351 450 q 413 636 413 567 q 402 710 413 678 q 379 769 392 742 q 356 820 367 796 q 346 874 346 844 q 370 953 346 915 q 435 1019 394 990 q 531 1065 476 1049 q 643 1082 585 1082 q 738 1069 694 1082 q 815 1032 782 1056 q 865 976 847 1008 q 883 906 883 943 q 879 863 883 888 q 870 813 875 839 q 861 759 865 786 q 857 707 857 732 q 890 591 857 639 q 972 504 922 543 q 1078 429 1021 465 q 1184 349 1135 393 q 1266 248 1233 306 q 1299 108 1299 190 q 1228 -78 1299 -10 q 1038 -146 1158 -146 q 833 60 833 -146 q 819 165 833 115 q 781 251 806 214 q 725 309 757 288 q 657 331 693 331 q 597 307 619 331 q 561 244 575 283 q 538 156 547 206 q 518 54 529 106 q 491 -47 507 3 q 446 -136 475 -97 q 371 -199 417 -175 q 257 -222 325 -222 q 154 -206 201 -222 q 73 -162 107 -190 q 20 -94 39 -133 q 1 -8 1 -54 m 549 572 q 578 510 549 535 q 653 485 608 485 q 719 510 694 485 q 743 579 743 535 q 734 641 743 601 q 710 719 725 681 q 678 788 696 758 q 642 817 660 817 q 603 786 621 817 q 574 715 586 756 q 556 633 563 674 q 549 572 549 593 z "},"Ä":{"ha":1296,"x_min":1,"x_max":1299,"o":"m 811 1556 q 874 1534 844 1556 q 924 1480 903 1513 q 958 1409 946 1447 q 971 1339 971 1371 q 953 1268 971 1297 q 907 1220 935 1239 q 847 1193 879 1201 q 786 1185 814 1185 q 690 1224 724 1185 q 657 1324 657 1264 q 668 1399 657 1358 q 699 1474 679 1439 q 747 1532 718 1508 q 811 1556 776 1556 m 479 1535 q 543 1513 514 1535 q 594 1460 572 1492 q 627 1390 615 1428 q 639 1319 639 1351 q 621 1249 639 1278 q 576 1201 603 1219 q 516 1174 549 1182 q 456 1165 483 1165 q 358 1205 392 1165 q 325 1304 325 1244 q 336 1379 325 1339 q 367 1454 347 1419 q 415 1512 386 1489 q 479 1535 444 1535 m 1 -8 q 32 104 1 53 q 108 204 63 156 q 207 300 154 253 q 306 399 260 347 q 382 508 351 450 q 413 636 413 567 q 402 710 413 678 q 379 769 392 742 q 356 820 367 796 q 346 874 346 844 q 370 953 346 915 q 435 1019 394 990 q 531 1065 476 1049 q 643 1082 585 1082 q 738 1069 694 1082 q 815 1032 782 1056 q 865 976 847 1008 q 883 906 883 943 q 879 863 883 888 q 870 813 875 839 q 861 759 865 786 q 857 707 857 732 q 890 591 857 639 q 972 504 922 543 q 1078 429 1021 465 q 1184 349 1135 393 q 1266 248 1233 306 q 1299 108 1299 190 q 1228 -78 1299 -10 q 1038 -146 1158 -146 q 833 60 833 -146 q 819 165 833 115 q 781 251 806 214 q 725 309 757 288 q 657 331 693 331 q 597 307 619 331 q 561 244 575 283 q 538 156 547 206 q 518 54 529 106 q 491 -47 507 3 q 446 -136 475 -97 q 371 -199 417 -175 q 257 -222 325 -222 q 154 -206 201 -222 q 73 -162 107 -190 q 20 -94 39 -133 q 1 -8 1 -54 m 549 572 q 578 510 549 535 q 653 485 608 485 q 719 510 694 485 q 743 579 743 535 q 734 641 743 601 q 710 719 725 681 q 678 788 696 758 q 642 817 660 817 q 603 786 621 817 q 574 715 586 756 q 556 633 563 674 q 549 572 549 593 z "},"Å":{"ha":1296,"x_min":1,"x_max":1299,"o":"m 651 1157 q 529 1172 583 1157 q 437 1216 475 1188 q 378 1285 399 1244 q 357 1375 357 1325 q 379 1472 357 1428 q 441 1548 401 1515 q 535 1599 481 1581 q 654 1617 590 1617 q 769 1599 717 1617 q 860 1550 822 1582 q 918 1474 897 1518 q 939 1376 939 1429 q 863 1215 939 1274 q 651 1157 786 1157 m 646 1524 q 603 1515 625 1524 q 565 1494 582 1507 q 535 1464 547 1481 q 524 1432 524 1447 q 535 1401 524 1417 q 563 1372 546 1385 q 601 1350 581 1358 q 643 1342 622 1342 q 687 1351 664 1342 q 729 1374 710 1360 q 761 1404 749 1388 q 774 1435 774 1421 q 762 1465 774 1449 q 731 1494 750 1481 q 690 1515 713 1507 q 646 1524 667 1524 m 1 -8 q 32 104 1 53 q 108 204 63 156 q 207 300 154 253 q 306 399 260 347 q 382 508 351 450 q 413 636 413 567 q 402 710 413 678 q 379 769 392 742 q 356 820 367 796 q 346 874 346 844 q 370 953 346 915 q 435 1019 394 990 q 531 1065 476 1049 q 643 1082 585 1082 q 738 1069 694 1082 q 815 1032 782 1056 q 865 976 847 1008 q 883 906 883 943 q 879 863 883 888 q 870 813 875 839 q 861 759 865 786 q 857 707 857 732 q 890 591 857 639 q 972 504 922 543 q 1078 429 1021 465 q 1184 349 1135 393 q 1266 248 1233 306 q 1299 108 1299 190 q 1228 -78 1299 -10 q 1038 -146 1158 -146 q 833 60 833 -146 q 819 165 833 115 q 781 251 806 214 q 725 309 757 288 q 657 331 693 331 q 597 307 619 331 q 561 244 575 283 q 538 156 547 206 q 518 54 529 106 q 491 -47 507 3 q 446 -136 475 -97 q 371 -199 417 -175 q 257 -222 325 -222 q 154 -206 201 -222 q 73 -162 107 -190 q 20 -94 39 -133 q 1 -8 1 -54 m 549 572 q 578 510 549 535 q 653 485 608 485 q 719 510 694 485 q 743 579 743 535 q 734 641 743 601 q 710 719 725 681 q 678 788 696 758 q 642 817 660 817 q 603 786 621 817 q 574 715 586 756 q 556 633 563 674 q 549 572 549 593 z "},"Æ":{"ha":1629,"x_min":1,"x_max":1617,"o":"m 1 -8 q 32 104 1 53 q 108 204 63 156 q 207 300 154 253 q 306 399 260 347 q 382 508 351 450 q 413 636 413 567 q 402 708 413 676 q 379 767 392 739 q 356 820 367 794 q 346 874 346 846 q 376 964 346 925 q 451 1029 407 1003 q 547 1069 496 1056 q 642 1082 599 1082 q 717 1074 679 1082 q 788 1049 754 1067 q 858 1085 819 1071 q 939 1106 897 1099 q 1023 1117 981 1114 q 1103 1119 1065 1119 q 1186 1117 1139 1119 q 1285 1109 1233 1115 q 1386 1089 1336 1103 q 1475 1051 1436 1075 q 1538 991 1514 1026 q 1563 904 1563 956 q 1554 833 1563 869 q 1527 767 1546 797 q 1479 719 1508 738 q 1410 700 1450 700 q 1311 719 1342 700 q 1271 768 1281 739 q 1262 832 1261 797 q 1256 896 1263 867 q 1227 944 1250 925 q 1146 964 1204 964 q 1083 948 1111 964 q 1036 907 1056 932 q 1006 850 1017 882 q 996 786 996 818 q 1008 728 996 756 q 1040 679 1019 700 q 1087 647 1060 658 q 1146 635 1114 635 q 1211 638 1178 635 q 1276 642 1244 642 q 1335 638 1304 642 q 1392 623 1367 635 q 1435 590 1418 611 q 1451 532 1451 568 q 1440 485 1451 503 q 1410 458 1429 467 q 1368 445 1392 449 q 1321 442 1344 442 q 1269 444 1294 442 q 1217 446 1243 446 q 1149 437 1188 446 q 1077 410 1111 428 q 1019 366 1043 393 q 996 303 996 339 q 1007 233 996 265 q 1039 177 1018 201 q 1090 139 1060 153 q 1158 125 1119 125 q 1233 140 1201 125 q 1290 178 1265 156 q 1337 226 1315 200 q 1381 275 1358 253 q 1428 313 1403 297 q 1486 328 1453 328 q 1551 308 1526 328 q 1591 260 1576 289 q 1611 196 1606 231 q 1617 129 1617 161 q 1570 -56 1617 17 q 1449 -169 1524 -128 q 1281 -227 1374 -211 q 1093 -243 1188 -243 q 956 -235 1031 -243 q 815 -199 881 -226 q 706 -123 750 -172 q 663 8 663 -74 q 677 94 663 57 q 708 160 692 131 q 740 213 725 189 q 754 260 754 238 q 723 315 754 300 q 657 331 692 331 q 597 307 619 331 q 561 244 575 283 q 538 156 547 206 q 518 54 529 106 q 490 -47 507 3 q 444 -136 474 -97 q 370 -199 415 -175 q 257 -222 325 -222 q 163 -208 210 -222 q 81 -167 117 -194 q 24 -101 46 -140 q 1 -8 1 -61 m 549 572 q 581 508 549 531 q 653 485 614 485 q 719 510 696 485 q 743 579 743 536 q 735 635 743 596 q 713 715 726 674 q 681 786 699 756 q 642 817 663 817 q 602 785 619 817 q 573 711 585 753 q 555 629 561 669 q 549 572 549 589 z "},"Ç":{"ha":982,"x_min":46,"x_max":963,"o":"m 46 397 q 79 693 46 560 q 174 922 113 826 q 322 1069 236 1017 q 511 1122 407 1122 q 648 1098 582 1122 q 765 1034 714 1074 q 846 942 815 994 q 876 833 876 890 q 861 758 876 793 q 819 697 846 722 q 755 656 792 671 q 676 640 718 640 q 576 672 614 640 q 538 756 538 704 q 545 814 538 781 q 553 878 553 847 q 539 929 553 908 q 483 950 525 950 q 390 920 435 950 q 313 839 346 890 q 260 721 279 788 q 240 579 240 654 q 262 437 240 503 q 321 322 283 371 q 410 247 358 274 q 521 219 461 219 q 665 282 613 219 q 718 456 718 344 q 747 571 718 535 q 839 607 776 607 q 935 561 907 607 q 963 406 963 515 q 940 206 963 299 q 874 41 917 114 q 769 -85 831 -32 q 633 -165 708 -137 q 664 -187 646 -178 q 699 -212 682 -197 q 727 -252 715 -228 q 739 -318 739 -276 q 708 -426 739 -382 q 631 -496 678 -469 q 526 -533 583 -522 q 417 -544 469 -544 q 351 -532 379 -544 q 306 -498 324 -519 q 280 -447 289 -476 q 271 -386 271 -418 q 294 -332 271 -350 q 353 -305 318 -314 q 431 -293 389 -296 q 508 -286 472 -290 q 567 -273 543 -282 q 590 -242 590 -264 q 581 -226 590 -233 q 556 -215 571 -219 q 520 -205 540 -210 q 481 -194 500 -200 l 467 -194 q 153 -44 260 -194 q 46 397 46 107 z "},"È":{"ha":967,"x_min":0,"x_max":954,"o":"m 707 1233 q 690 1195 707 1211 q 649 1169 674 1179 q 598 1154 625 1158 q 551 1150 571 1150 q 493 1167 525 1150 q 428 1213 461 1185 q 366 1278 396 1242 q 313 1352 336 1314 q 274 1427 289 1390 q 260 1493 260 1464 q 272 1528 260 1511 q 301 1559 283 1546 q 338 1581 318 1572 q 375 1589 358 1589 q 432 1568 399 1589 q 502 1515 465 1547 q 576 1442 539 1483 q 642 1363 613 1401 q 689 1289 671 1324 q 707 1233 707 1254 m 440 1119 q 623 1108 539 1119 q 769 1072 707 1097 q 865 1006 831 1047 q 900 904 900 965 q 881 796 900 836 q 835 734 861 756 q 784 706 810 713 q 747 700 758 700 q 661 715 692 700 q 617 754 631 731 q 600 805 603 778 q 597 856 597 832 q 594 902 597 882 q 578 936 590 922 q 543 957 565 950 q 483 964 521 964 q 426 950 453 964 q 378 912 399 936 q 345 856 357 888 q 333 786 333 824 q 346 725 333 753 q 379 677 358 697 q 427 646 400 657 q 483 635 454 635 q 529 638 500 635 q 592 642 558 640 q 661 640 626 643 q 724 625 696 636 q 771 592 753 614 q 789 532 789 569 q 763 468 789 488 q 701 444 738 449 q 624 442 665 439 q 554 446 583 446 q 482 436 521 446 q 410 408 443 426 q 356 363 378 389 q 333 303 333 336 q 347 226 333 260 q 382 170 360 193 q 434 136 404 147 q 496 125 464 125 q 571 140 539 125 q 628 178 603 156 q 676 226 654 200 q 719 275 697 253 q 765 313 740 297 q 824 328 790 328 q 920 276 886 328 q 954 129 954 224 q 821 -148 954 -53 q 431 -243 688 -243 q 113 -181 222 -243 q 0 3 3 -118 l 0 8 q 35 143 0 83 q 113 258 69 203 q 191 370 156 313 q 226 499 226 428 q 199 610 226 561 q 138 703 171 658 q 76 796 104 749 q 49 903 49 843 q 148 1065 49 1010 q 440 1119 247 1119 z "},"É":{"ha":967,"x_min":0,"x_max":954,"o":"m 435 1150 q 384 1154 415 1150 q 323 1168 353 1158 q 272 1193 293 1178 q 250 1229 250 1208 q 271 1294 250 1258 q 324 1367 292 1331 q 398 1439 357 1404 q 480 1501 439 1474 q 557 1544 521 1528 q 617 1561 593 1561 q 649 1554 632 1561 q 681 1536 667 1547 q 706 1510 696 1525 q 717 1481 717 1496 q 704 1421 717 1456 q 669 1349 692 1386 q 619 1277 647 1313 q 560 1213 592 1242 q 496 1167 528 1185 q 435 1150 464 1150 m 440 1119 q 623 1108 539 1119 q 769 1072 707 1097 q 865 1006 831 1047 q 900 904 900 965 q 881 796 900 836 q 835 734 861 756 q 784 706 810 713 q 747 700 758 700 q 661 715 692 700 q 617 754 631 731 q 600 805 603 778 q 597 856 597 832 q 594 902 597 882 q 578 936 590 922 q 543 957 565 950 q 483 964 521 964 q 426 950 453 964 q 378 912 399 936 q 345 856 357 888 q 333 786 333 824 q 346 725 333 753 q 379 677 358 697 q 427 646 400 657 q 483 635 454 635 q 529 638 500 635 q 592 642 558 640 q 661 640 626 643 q 724 625 696 636 q 771 592 753 614 q 789 532 789 569 q 763 468 789 488 q 701 444 738 449 q 624 442 665 439 q 554 446 583 446 q 482 436 521 446 q 410 408 443 426 q 356 363 378 389 q 333 303 333 336 q 347 226 333 260 q 382 170 360 193 q 434 136 404 147 q 496 125 464 125 q 571 140 539 125 q 628 178 603 156 q 676 226 654 200 q 719 275 697 253 q 765 313 740 297 q 824 328 790 328 q 920 276 886 328 q 954 129 954 224 q 821 -148 954 -53 q 431 -243 688 -243 q 113 -181 222 -243 q 0 3 3 -118 l 0 8 q 35 143 0 83 q 113 258 69 203 q 191 370 156 313 q 226 499 226 428 q 199 610 226 561 q 138 703 171 658 q 76 796 104 749 q 49 903 49 843 q 148 1065 49 1010 q 440 1119 247 1119 z "},"Ê":{"ha":967,"x_min":0,"x_max":954,"o":"m 479 1619 q 535 1601 503 1619 q 604 1552 568 1582 q 675 1484 640 1522 q 738 1407 710 1446 q 783 1331 765 1368 q 800 1268 800 1294 q 786 1222 800 1244 q 751 1183 772 1200 q 707 1157 731 1167 q 664 1147 683 1147 q 629 1175 646 1147 q 597 1244 613 1203 q 566 1335 581 1286 q 538 1426 551 1385 q 513 1496 525 1468 q 492 1524 501 1524 q 471 1496 483 1524 q 444 1426 458 1468 q 411 1335 429 1385 q 373 1244 393 1286 q 330 1175 353 1203 q 281 1147 307 1147 q 201 1178 235 1147 q 167 1264 167 1210 q 183 1331 167 1293 q 225 1408 199 1368 q 285 1485 251 1447 q 353 1553 318 1524 q 421 1601 388 1583 q 479 1619 454 1619 m 440 1119 q 623 1108 539 1119 q 769 1072 707 1097 q 865 1006 831 1047 q 900 904 900 965 q 881 796 900 836 q 835 734 861 756 q 784 706 810 713 q 747 700 758 700 q 661 715 692 700 q 617 754 631 731 q 600 805 603 778 q 597 856 597 832 q 594 902 597 882 q 578 936 590 922 q 543 957 565 950 q 483 964 521 964 q 426 950 453 964 q 378 912 399 936 q 345 856 357 888 q 333 786 333 824 q 346 725 333 753 q 379 677 358 697 q 427 646 400 657 q 483 635 454 635 q 529 638 500 635 q 592 642 558 640 q 661 640 626 643 q 724 625 696 636 q 771 592 753 614 q 789 532 789 569 q 763 468 789 488 q 701 444 738 449 q 624 442 665 439 q 554 446 583 446 q 482 436 521 446 q 410 408 443 426 q 356 363 378 389 q 333 303 333 336 q 347 226 333 260 q 382 170 360 193 q 434 136 404 147 q 496 125 464 125 q 571 140 539 125 q 628 178 603 156 q 676 226 654 200 q 719 275 697 253 q 765 313 740 297 q 824 328 790 328 q 920 276 886 328 q 954 129 954 224 q 821 -148 954 -53 q 431 -243 688 -243 q 113 -181 222 -243 q 0 3 3 -118 l 0 8 q 35 143 0 83 q 113 258 69 203 q 191 370 156 313 q 226 499 226 428 q 199 610 226 561 q 138 703 171 658 q 76 796 104 749 q 49 903 49 843 q 148 1065 49 1010 q 440 1119 247 1119 z "},"Ë":{"ha":967,"x_min":0,"x_max":954,"o":"m 646 1556 q 710 1534 681 1556 q 760 1480 739 1513 q 794 1409 782 1447 q 806 1339 806 1371 q 788 1268 806 1297 q 742 1220 769 1239 q 683 1193 715 1201 q 622 1185 650 1185 q 525 1224 558 1185 q 492 1324 492 1264 q 503 1399 492 1358 q 533 1474 514 1439 q 582 1532 553 1508 q 646 1556 611 1556 m 315 1535 q 378 1513 349 1535 q 428 1460 407 1492 q 463 1390 450 1428 q 475 1319 475 1351 q 457 1249 475 1278 q 411 1201 439 1219 q 351 1174 383 1182 q 290 1165 318 1165 q 194 1205 228 1165 q 161 1304 161 1244 q 172 1379 161 1339 q 203 1454 183 1419 q 251 1512 222 1489 q 315 1535 281 1535 m 440 1119 q 623 1108 539 1119 q 769 1072 707 1097 q 865 1006 831 1047 q 900 904 900 965 q 881 796 900 836 q 835 734 861 756 q 784 706 810 713 q 747 700 758 700 q 661 715 692 700 q 617 754 631 731 q 600 805 603 778 q 597 856 597 832 q 594 902 597 882 q 578 936 590 922 q 543 957 565 950 q 483 964 521 964 q 426 950 453 964 q 378 912 399 936 q 345 856 357 888 q 333 786 333 824 q 346 725 333 753 q 379 677 358 697 q 427 646 400 657 q 483 635 454 635 q 529 638 500 635 q 592 642 558 640 q 661 640 626 643 q 724 625 696 636 q 771 592 753 614 q 789 532 789 569 q 763 468 789 488 q 701 444 738 449 q 624 442 665 439 q 554 446 583 446 q 482 436 521 446 q 410 408 443 426 q 356 363 378 389 q 333 303 333 336 q 347 226 333 260 q 382 170 360 193 q 434 136 404 147 q 496 125 464 125 q 571 140 539 125 q 628 178 603 156 q 676 226 654 200 q 719 275 697 253 q 765 313 740 297 q 824 328 790 328 q 920 276 886 328 q 954 129 954 224 q 821 -148 954 -53 q 431 -243 688 -243 q 113 -181 222 -243 q 0 3 3 -118 l 0 8 q 35 143 0 83 q 113 258 69 203 q 191 370 156 313 q 226 499 226 428 q 199 610 226 561 q 138 703 171 658 q 76 796 104 749 q 49 903 49 843 q 148 1065 49 1010 q 440 1119 247 1119 z "},"Ì":{"ha":585,"x_min":13,"x_max":522,"o":"m 517 1233 q 499 1195 517 1211 q 458 1169 482 1179 q 406 1154 433 1158 q 360 1150 379 1150 q 301 1167 333 1150 q 237 1213 269 1185 q 174 1278 204 1242 q 121 1352 144 1314 q 83 1427 97 1390 q 68 1493 68 1464 q 80 1528 68 1511 q 109 1559 92 1546 q 147 1581 126 1572 q 183 1589 167 1589 q 240 1568 207 1589 q 311 1515 274 1547 q 385 1442 349 1483 q 451 1363 422 1401 q 499 1289 481 1324 q 517 1233 517 1254 m 274 1122 q 428 1079 372 1122 q 485 961 485 1036 q 465 862 485 914 q 422 754 446 810 q 378 642 397 699 q 358 528 358 585 q 384 406 358 464 q 440 285 410 347 q 497 153 471 224 q 522 -10 522 82 q 286 -257 522 -257 q 91 -199 165 -257 q 13 -46 17 -142 l 13 -36 q 31 52 13 10 q 78 136 50 94 q 140 218 107 178 q 202 301 174 258 q 249 388 231 343 q 268 481 268 432 q 238 594 268 543 q 169 697 207 646 q 101 804 132 749 q 71 929 71 860 q 274 1122 71 1122 z "},"Í":{"ha":585,"x_min":13,"x_max":526,"o":"m 244 1150 q 193 1154 225 1150 q 131 1168 161 1158 q 80 1193 101 1178 q 58 1229 58 1208 q 79 1294 58 1258 q 133 1367 100 1331 q 207 1439 165 1404 q 290 1501 249 1474 q 367 1544 331 1528 q 426 1561 403 1561 q 458 1554 440 1561 q 490 1536 475 1547 q 516 1510 506 1525 q 526 1481 526 1496 q 514 1421 526 1456 q 479 1349 501 1386 q 429 1277 457 1313 q 369 1213 401 1242 q 306 1167 338 1185 q 244 1150 274 1150 m 274 1122 q 428 1079 372 1122 q 485 961 485 1036 q 465 862 485 914 q 422 754 446 810 q 378 642 397 699 q 358 528 358 585 q 384 406 358 464 q 440 285 410 347 q 497 153 471 224 q 522 -10 522 82 q 286 -257 522 -257 q 91 -199 165 -257 q 13 -46 17 -142 l 13 -36 q 31 52 13 10 q 78 136 50 94 q 140 218 107 178 q 202 301 174 258 q 249 388 231 343 q 268 481 268 432 q 238 594 268 543 q 169 697 207 646 q 101 804 132 749 q 71 929 71 860 q 274 1122 71 1122 z "},"Î":{"ha":585,"x_min":-25,"x_max":608,"o":"m 288 1619 q 344 1601 311 1619 q 413 1552 378 1582 q 484 1484 449 1522 q 547 1407 519 1446 q 591 1331 574 1368 q 608 1268 608 1294 q 594 1222 608 1244 q 560 1183 581 1200 q 515 1157 539 1167 q 472 1147 492 1147 q 438 1175 454 1147 q 405 1244 421 1203 q 374 1335 389 1286 q 347 1426 360 1385 q 322 1496 333 1468 q 300 1524 310 1524 q 280 1496 292 1524 q 253 1426 268 1468 q 221 1335 239 1385 q 182 1244 203 1286 q 138 1175 161 1203 q 89 1147 115 1147 q 9 1178 43 1147 q -25 1264 -25 1210 q -9 1331 -25 1293 q 33 1408 7 1368 q 93 1485 60 1447 q 161 1553 126 1524 q 229 1601 196 1583 q 288 1619 263 1619 m 274 1122 q 428 1079 372 1122 q 485 961 485 1036 q 465 862 485 914 q 422 754 446 810 q 378 642 397 699 q 358 528 358 585 q 384 406 358 464 q 440 285 410 347 q 497 153 471 224 q 522 -10 522 82 q 286 -257 522 -257 q 91 -199 165 -257 q 13 -46 17 -142 l 13 -36 q 31 52 13 10 q 78 136 50 94 q 140 218 107 178 q 202 301 174 258 q 249 388 231 343 q 268 481 268 432 q 238 594 268 543 q 169 697 207 646 q 101 804 132 749 q 71 929 71 860 q 274 1122 71 1122 z "},"Ï":{"ha":585,"x_min":-31,"x_max":615,"o":"m 456 1556 q 518 1534 489 1556 q 569 1480 547 1513 q 603 1409 590 1447 q 615 1339 615 1371 q 597 1268 615 1297 q 551 1220 579 1239 q 491 1193 524 1201 q 431 1185 458 1185 q 335 1224 368 1185 q 301 1324 301 1264 q 313 1399 301 1358 q 343 1474 324 1439 q 392 1532 363 1508 q 456 1556 421 1556 m 124 1535 q 188 1513 158 1535 q 238 1460 217 1492 q 272 1390 260 1428 q 283 1319 283 1351 q 265 1249 283 1278 q 220 1201 247 1219 q 160 1174 193 1182 q 100 1165 128 1165 q 3 1205 36 1165 q -31 1304 -31 1244 q -19 1379 -31 1339 q 11 1454 -8 1419 q 60 1512 31 1489 q 124 1535 89 1535 m 274 1122 q 428 1079 372 1122 q 485 961 485 1036 q 465 862 485 914 q 422 754 446 810 q 378 642 397 699 q 358 528 358 585 q 384 406 358 464 q 440 285 410 347 q 497 153 471 224 q 522 -10 522 82 q 286 -257 522 -257 q 91 -199 165 -257 q 13 -46 17 -142 l 13 -36 q 31 52 13 10 q 78 136 50 94 q 140 218 107 178 q 202 301 174 258 q 249 388 231 343 q 268 481 268 432 q 238 594 268 543 q 169 697 207 646 q 101 804 132 749 q 71 929 71 860 q 274 1122 71 1122 z "},"Ð":{"ha":972,"x_min":-11,"x_max":953,"o":"m 321 1110 q 473 1082 397 1110 q 619 1005 549 1054 q 750 890 689 956 q 856 747 811 824 q 927 588 901 671 q 953 422 953 504 q 927 260 953 340 q 857 106 901 179 q 751 -31 813 32 q 617 -139 689 -93 q 467 -211 546 -185 q 307 -237 388 -237 q 124 -183 189 -237 q 58 -28 58 -128 q 78 90 58 29 q 122 210 97 150 q 165 327 146 269 q 185 438 185 385 q 174 514 185 472 q 147 492 161 501 q 108 483 132 483 q 23 530 57 483 q -11 646 -11 576 q 15 744 -11 707 q 86 785 42 782 q 82 823 83 804 q 81 861 81 842 q 143 1044 81 979 q 321 1110 206 1110 m 426 892 q 356 801 379 892 q 404 811 382 811 q 492 763 460 811 q 524 631 524 715 q 504 540 524 568 q 440 513 485 513 q 387 521 413 513 q 338 539 361 529 q 358 282 338 365 q 433 199 379 199 q 492 226 463 199 q 546 298 522 253 q 584 403 569 343 q 599 528 599 463 q 583 656 599 590 q 542 773 567 721 q 486 858 517 825 q 426 892 456 892 z "},"Ñ":{"ha":1047,"x_min":10,"x_max":1026,"o":"m 383 1496 q 363 1450 363 1496 q 368 1406 363 1429 q 380 1358 374 1383 q 392 1306 386 1333 q 397 1249 397 1278 q 294 1131 397 1131 q 181 1175 225 1131 q 138 1290 138 1219 q 162 1390 138 1342 q 226 1475 186 1438 q 316 1535 265 1513 q 421 1557 367 1557 q 525 1531 482 1557 q 601 1473 568 1504 q 658 1415 633 1442 q 704 1389 682 1389 q 728 1397 722 1389 q 733 1418 733 1406 q 728 1446 732 1431 q 725 1475 725 1461 q 745 1519 725 1500 q 800 1538 765 1538 q 879 1499 849 1538 q 910 1399 910 1460 q 889 1306 910 1351 q 834 1226 868 1261 q 756 1169 800 1190 q 664 1149 711 1149 q 574 1174 611 1149 q 510 1239 536 1200 q 467 1322 485 1278 q 436 1406 450 1367 q 410 1470 422 1444 q 383 1496 399 1496 m 235 1081 q 328 1057 294 1081 q 379 975 363 1033 q 397 917 385 956 q 428 830 410 878 q 467 731 446 782 q 513 639 489 681 q 560 571 536 597 q 608 544 585 544 q 648 552 625 544 q 692 576 671 560 q 727 617 713 592 q 742 678 742 643 q 722 753 742 715 q 678 828 701 790 q 634 902 654 865 q 614 976 614 939 q 661 1099 614 1060 q 789 1139 708 1139 q 849 1126 818 1139 q 903 1092 879 1114 q 943 1042 928 1069 q 958 982 958 1014 q 947 793 958 886 q 936 604 936 700 q 950 485 936 543 q 981 368 964 426 q 1013 252 999 310 q 1026 133 1026 194 q 1014 22 1026 74 q 975 -69 1001 -31 q 907 -128 949 -107 q 806 -150 865 -150 q 703 -125 747 -150 q 630 -60 660 -100 q 585 32 600 -19 q 569 136 569 83 q 558 221 569 175 q 529 313 547 267 q 488 403 511 360 q 442 481 465 447 q 396 535 418 515 q 357 556 374 556 q 338 547 344 556 q 326 528 331 539 q 322 504 322 517 q 321 483 321 492 q 344 394 321 444 q 396 287 368 343 q 447 174 424 231 q 471 65 471 117 q 455 -29 471 15 q 410 -107 439 -74 q 338 -159 381 -140 q 243 -178 296 -178 q 151 -158 193 -178 q 77 -106 108 -139 q 28 -30 46 -74 q 10 64 10 14 q 25 228 10 147 q 58 388 40 308 q 90 549 75 468 q 106 711 106 629 q 92 833 106 774 q 79 943 79 893 q 126 1046 79 1011 q 235 1081 172 1081 z "},"Ò":{"ha":1007,"x_min":35,"x_max":978,"o":"m 728 1233 q 710 1195 728 1211 q 669 1169 693 1179 q 617 1154 644 1158 q 571 1150 590 1150 q 513 1167 544 1150 q 448 1213 481 1185 q 385 1278 415 1242 q 332 1352 356 1314 q 294 1427 308 1390 q 279 1493 279 1464 q 291 1528 279 1511 q 320 1559 303 1546 q 358 1581 338 1572 q 394 1589 378 1589 q 451 1568 418 1589 q 522 1515 485 1547 q 595 1442 558 1483 q 662 1363 632 1401 q 710 1289 692 1324 q 728 1233 728 1254 m 135 458 q 119 536 135 504 q 85 600 104 568 q 51 669 67 632 q 35 764 35 707 q 80 915 35 846 q 196 1033 125 983 q 353 1112 267 1083 q 525 1140 440 1140 q 689 1115 610 1140 q 830 1044 768 1090 q 928 933 892 999 q 965 789 965 868 q 954 696 965 738 q 930 618 943 654 q 906 549 917 582 q 894 479 894 515 q 908 410 894 440 q 936 349 921 381 q 965 278 951 317 q 978 182 978 239 q 943 24 978 96 q 845 -99 908 -47 q 694 -178 782 -150 q 501 -207 607 -207 q 323 -182 403 -207 q 187 -110 243 -157 q 101 2 131 -64 q 71 150 71 68 q 81 241 71 200 q 103 318 90 282 q 125 388 115 354 q 135 458 135 421 m 468 908 q 381 878 418 908 q 317 795 343 847 q 278 676 292 743 q 265 533 265 608 q 283 345 265 421 q 330 224 300 269 q 400 159 360 178 q 486 140 440 140 q 566 170 531 140 q 628 252 601 200 q 668 374 654 304 q 682 525 682 444 q 662 703 682 631 q 610 822 642 776 q 541 888 579 868 q 468 908 503 908 z "},"Ó":{"ha":1007,"x_min":35,"x_max":978,"o":"m 456 1150 q 404 1154 436 1150 q 342 1168 372 1158 q 291 1193 313 1178 q 269 1229 269 1208 q 290 1294 269 1258 q 344 1367 311 1331 q 418 1439 376 1404 q 501 1501 460 1474 q 578 1544 542 1528 q 638 1561 614 1561 q 669 1554 651 1561 q 701 1536 686 1547 q 727 1510 717 1525 q 738 1481 738 1496 q 725 1421 738 1456 q 690 1349 713 1386 q 640 1277 668 1313 q 581 1213 613 1242 q 517 1167 549 1185 q 456 1150 485 1150 m 135 458 q 119 536 135 504 q 85 600 104 568 q 51 669 67 632 q 35 764 35 707 q 80 915 35 846 q 196 1033 125 983 q 353 1112 267 1083 q 525 1140 440 1140 q 689 1115 610 1140 q 830 1044 768 1090 q 928 933 892 999 q 965 789 965 868 q 954 696 965 738 q 930 618 943 654 q 906 549 917 582 q 894 479 894 515 q 908 410 894 440 q 936 349 921 381 q 965 278 951 317 q 978 182 978 239 q 943 24 978 96 q 845 -99 908 -47 q 694 -178 782 -150 q 501 -207 607 -207 q 323 -182 403 -207 q 187 -110 243 -157 q 101 2 131 -64 q 71 150 71 68 q 81 241 71 200 q 103 318 90 282 q 125 388 115 354 q 135 458 135 421 m 468 908 q 381 878 418 908 q 317 795 343 847 q 278 676 292 743 q 265 533 265 608 q 283 345 265 421 q 330 224 300 269 q 400 159 360 178 q 486 140 440 140 q 566 170 531 140 q 628 252 601 200 q 668 374 654 304 q 682 525 682 444 q 662 703 682 631 q 610 822 642 776 q 541 888 579 868 q 468 908 503 908 z "},"Ô":{"ha":1007,"x_min":35,"x_max":978,"o":"m 499 1619 q 556 1601 522 1619 q 625 1552 589 1582 q 696 1484 661 1522 q 758 1407 731 1446 q 803 1331 786 1368 q 821 1268 821 1294 q 806 1222 821 1244 q 771 1183 792 1200 q 726 1157 750 1167 q 683 1147 703 1147 q 649 1175 665 1147 q 616 1244 632 1203 q 585 1335 600 1286 q 558 1426 571 1385 q 533 1496 544 1468 q 511 1524 521 1524 q 491 1496 503 1524 q 465 1426 479 1468 q 432 1335 450 1385 q 393 1244 414 1286 q 349 1175 372 1203 q 300 1147 326 1147 q 221 1178 254 1147 q 188 1264 188 1210 q 203 1331 188 1293 q 246 1408 219 1368 q 306 1485 272 1447 q 373 1553 339 1524 q 440 1601 407 1583 q 499 1619 474 1619 m 135 458 q 119 536 135 504 q 85 600 104 568 q 51 669 67 632 q 35 764 35 707 q 80 915 35 846 q 196 1033 125 983 q 353 1112 267 1083 q 525 1140 440 1140 q 689 1115 610 1140 q 830 1044 768 1090 q 928 933 892 999 q 965 789 965 868 q 954 696 965 738 q 930 618 943 654 q 906 549 917 582 q 894 479 894 515 q 908 410 894 440 q 936 349 921 381 q 965 278 951 317 q 978 182 978 239 q 943 24 978 96 q 845 -99 908 -47 q 694 -178 782 -150 q 501 -207 607 -207 q 323 -182 403 -207 q 187 -110 243 -157 q 101 2 131 -64 q 71 150 71 68 q 81 241 71 200 q 103 318 90 282 q 125 388 115 354 q 135 458 135 421 m 468 908 q 381 878 418 908 q 317 795 343 847 q 278 676 292 743 q 265 533 265 608 q 283 345 265 421 q 330 224 300 269 q 400 159 360 178 q 486 140 440 140 q 566 170 531 140 q 628 252 601 200 q 668 374 654 304 q 682 525 682 444 q 662 703 682 631 q 610 822 642 776 q 541 888 579 868 q 468 908 503 908 z "},"Õ":{"ha":1007,"x_min":35,"x_max":978,"o":"m 364 1496 q 342 1450 342 1496 q 347 1406 342 1429 q 359 1358 353 1383 q 371 1306 365 1333 q 376 1249 376 1278 q 274 1131 376 1131 q 161 1175 206 1131 q 117 1290 117 1219 q 141 1390 117 1342 q 205 1475 165 1438 q 295 1535 244 1513 q 400 1557 346 1557 q 505 1531 461 1557 q 581 1473 549 1504 q 638 1415 614 1442 q 683 1389 663 1389 q 707 1397 701 1389 q 712 1418 713 1406 q 708 1446 711 1431 q 704 1475 704 1461 q 725 1519 704 1500 q 779 1538 746 1538 q 859 1499 828 1538 q 890 1399 890 1460 q 869 1306 890 1351 q 815 1226 849 1261 q 736 1169 781 1190 q 644 1149 692 1149 q 554 1174 592 1149 q 490 1239 517 1200 q 447 1322 464 1278 q 416 1406 429 1367 q 391 1470 403 1444 q 364 1496 379 1496 m 135 458 q 119 536 135 504 q 85 600 104 568 q 51 669 67 632 q 35 764 35 707 q 80 915 35 846 q 196 1033 125 983 q 353 1112 267 1083 q 525 1140 440 1140 q 689 1115 610 1140 q 830 1044 768 1090 q 928 933 892 999 q 965 789 965 868 q 954 696 965 738 q 930 618 943 654 q 906 549 917 582 q 894 479 894 515 q 908 410 894 440 q 936 349 921 381 q 965 278 951 317 q 978 182 978 239 q 943 24 978 96 q 845 -99 908 -47 q 694 -178 782 -150 q 501 -207 607 -207 q 323 -182 403 -207 q 187 -110 243 -157 q 101 2 131 -64 q 71 150 71 68 q 81 241 71 200 q 103 318 90 282 q 125 388 115 354 q 135 458 135 421 m 468 908 q 381 878 418 908 q 317 795 343 847 q 278 676 292 743 q 265 533 265 608 q 283 345 265 421 q 330 224 300 269 q 400 159 360 178 q 486 140 440 140 q 566 170 531 140 q 628 252 601 200 q 668 374 654 304 q 682 525 682 444 q 662 703 682 631 q 610 822 642 776 q 541 888 579 868 q 468 908 503 908 z "},"Ö":{"ha":1007,"x_min":35,"x_max":978,"o":"m 667 1556 q 729 1534 700 1556 q 780 1480 758 1513 q 814 1409 801 1447 q 826 1339 826 1371 q 808 1268 826 1297 q 763 1220 790 1239 q 702 1193 735 1201 q 642 1185 669 1185 q 546 1224 579 1185 q 513 1324 513 1264 q 524 1399 513 1358 q 554 1474 535 1439 q 603 1532 574 1508 q 667 1556 632 1556 m 335 1535 q 399 1513 369 1535 q 449 1460 428 1492 q 483 1390 471 1428 q 494 1319 494 1351 q 476 1249 494 1278 q 431 1201 458 1219 q 372 1174 404 1182 q 311 1165 339 1165 q 214 1205 247 1165 q 181 1304 181 1244 q 192 1379 181 1339 q 222 1454 203 1419 q 271 1512 242 1489 q 335 1535 300 1535 m 135 458 q 119 536 135 504 q 85 600 104 568 q 51 669 67 632 q 35 764 35 707 q 80 915 35 846 q 196 1033 125 983 q 353 1112 267 1083 q 525 1140 440 1140 q 689 1115 610 1140 q 830 1044 768 1090 q 928 933 892 999 q 965 789 965 868 q 954 696 965 738 q 930 618 943 654 q 906 549 917 582 q 894 479 894 515 q 908 410 894 440 q 936 349 921 381 q 965 278 951 317 q 978 182 978 239 q 943 24 978 96 q 845 -99 908 -47 q 694 -178 782 -150 q 501 -207 607 -207 q 323 -182 403 -207 q 187 -110 243 -157 q 101 2 131 -64 q 71 150 71 68 q 81 241 71 200 q 103 318 90 282 q 125 388 115 354 q 135 458 135 421 m 468 908 q 381 878 418 908 q 317 795 343 847 q 278 676 292 743 q 265 533 265 608 q 283 345 265 421 q 330 224 300 269 q 400 159 360 178 q 486 140 440 140 q 566 170 531 140 q 628 252 601 200 q 668 374 654 304 q 682 525 682 444 q 662 703 682 631 q 610 822 642 776 q 541 888 579 868 q 468 908 503 908 z "},"×":{"ha":863,"x_min":57,"x_max":842,"o":"m 217 960 q 280 941 253 960 q 328 894 307 922 q 366 834 350 867 q 396 774 382 801 q 423 727 410 746 q 450 708 436 708 q 478 724 464 708 q 508 763 492 740 q 544 814 525 786 q 585 865 563 842 q 632 903 607 888 q 686 919 657 919 q 733 909 710 919 q 775 880 757 899 q 804 836 793 861 q 815 783 815 811 q 785 704 815 732 q 719 656 756 676 q 652 613 682 635 q 622 556 622 592 q 638 510 622 529 q 679 473 654 490 q 732 437 704 456 q 785 393 760 418 q 826 333 810 368 q 842 250 842 299 q 796 125 842 169 q 667 81 750 81 q 560 111 594 81 q 512 183 525 142 q 500 265 499 224 q 501 326 501 306 q 491 378 501 358 q 463 397 481 397 q 431 375 443 397 q 409 319 419 353 q 387 246 399 285 q 356 173 375 207 q 306 117 336 139 q 229 94 276 94 q 165 106 196 94 q 110 137 135 118 q 72 180 86 156 q 57 231 57 204 q 81 297 57 264 q 140 360 104 329 q 217 422 176 392 q 294 480 258 451 q 354 534 331 508 q 378 583 378 560 q 357 619 378 606 q 305 644 336 632 q 237 668 274 656 q 169 699 200 681 q 117 748 138 718 q 96 824 96 778 q 130 922 96 883 q 217 960 164 960 z "},"Ø":{"ha":1007,"x_min":35,"x_max":978,"o":"m 832 1213 q 863 1192 851 1213 q 874 1138 874 1171 q 869 1088 874 1117 q 856 1024 864 1060 q 935 919 906 979 q 965 789 965 860 q 954 696 965 738 q 930 618 943 654 q 906 549 917 582 q 894 479 894 515 q 908 410 894 440 q 936 349 921 381 q 965 278 951 317 q 978 182 978 239 q 943 24 978 96 q 845 -99 908 -47 q 694 -178 782 -150 q 501 -207 607 -207 q 282 -167 375 -207 q 208 -226 242 -207 q 154 -246 174 -246 q 124 -225 135 -246 q 113 -171 113 -204 q 132 -51 113 -129 q 71 150 71 33 q 81 241 71 200 q 103 318 90 282 q 125 388 115 354 q 135 458 135 421 q 119 536 135 504 q 85 600 104 568 q 51 669 67 632 q 35 764 35 707 q 80 915 35 846 q 196 1033 125 983 q 353 1112 267 1083 q 525 1140 440 1140 q 688 1115 611 1140 q 772 1188 733 1164 q 832 1213 810 1213 m 468 908 q 381 878 418 908 q 317 795 343 847 q 278 676 292 743 q 265 533 265 608 q 283 345 265 421 q 330 224 300 269 q 400 159 360 178 q 486 140 440 140 q 566 170 531 140 q 628 252 601 200 q 668 374 654 304 q 682 525 682 444 q 662 703 682 631 q 610 822 642 776 q 541 888 579 868 q 468 908 503 908 z "},"Ù":{"ha":1040,"x_min":33,"x_max":1006,"o":"m 744 1233 q 727 1195 744 1211 q 685 1169 710 1179 q 634 1154 661 1158 q 588 1150 607 1150 q 529 1167 561 1150 q 465 1213 497 1185 q 402 1278 432 1242 q 349 1352 372 1314 q 310 1427 325 1390 q 296 1493 296 1464 q 308 1528 296 1511 q 337 1559 319 1546 q 374 1581 354 1572 q 411 1589 394 1589 q 468 1568 435 1589 q 538 1515 501 1547 q 612 1442 575 1483 q 678 1363 649 1401 q 726 1289 708 1324 q 744 1233 744 1254 m 922 558 q 935 480 922 518 q 964 399 949 442 q 992 306 979 357 q 1006 188 1006 254 q 972 31 1006 100 q 879 -86 939 -37 q 736 -160 819 -135 q 554 -186 653 -186 q 71 172 71 -186 q 78 266 71 221 q 94 353 85 311 q 110 435 103 396 q 117 513 117 475 q 103 609 117 563 q 75 701 90 656 q 47 794 60 747 q 33 892 33 840 q 50 991 33 946 q 97 1069 67 1036 q 169 1119 128 1101 q 263 1136 211 1136 q 407 1081 354 1136 q 460 932 460 1026 q 432 810 460 861 q 370 711 404 758 q 308 612 336 664 q 281 488 281 560 q 297 388 281 436 q 340 303 313 339 q 403 247 367 267 q 479 231 439 226 q 566 258 528 235 q 631 319 604 282 q 672 405 658 356 q 686 511 686 454 q 673 613 686 565 q 644 705 660 660 q 615 794 628 750 q 601 888 601 839 q 651 1028 601 976 q 786 1081 701 1081 q 871 1065 832 1081 q 938 1020 910 1049 q 981 952 965 992 q 996 864 996 913 q 984 781 996 819 q 959 705 972 742 q 934 632 946 668 q 922 558 922 596 z "},"Ú":{"ha":1040,"x_min":33,"x_max":1006,"o":"m 472 1150 q 421 1154 453 1150 q 359 1168 389 1158 q 308 1193 329 1178 q 286 1229 286 1208 q 307 1294 286 1258 q 360 1367 328 1331 q 435 1439 393 1404 q 517 1501 476 1474 q 594 1544 558 1528 q 654 1561 631 1561 q 685 1554 668 1561 q 718 1536 703 1547 q 744 1510 733 1525 q 754 1481 754 1496 q 742 1421 754 1456 q 707 1349 729 1386 q 657 1277 685 1313 q 597 1213 629 1242 q 533 1167 565 1185 q 472 1150 501 1150 m 922 558 q 935 480 922 518 q 964 399 949 442 q 992 306 979 357 q 1006 188 1006 254 q 972 31 1006 100 q 879 -86 939 -37 q 736 -160 819 -135 q 554 -186 653 -186 q 71 172 71 -186 q 78 266 71 221 q 94 353 85 311 q 110 435 103 396 q 117 513 117 475 q 103 609 117 563 q 75 701 90 656 q 47 794 60 747 q 33 892 33 840 q 50 991 33 946 q 97 1069 67 1036 q 169 1119 128 1101 q 263 1136 211 1136 q 407 1081 354 1136 q 460 932 460 1026 q 432 810 460 861 q 370 711 404 758 q 308 612 336 664 q 281 488 281 560 q 297 388 281 436 q 340 303 313 339 q 403 247 367 267 q 479 231 439 226 q 566 258 528 235 q 631 319 604 282 q 672 405 658 356 q 686 511 686 454 q 673 613 686 565 q 644 705 660 660 q 615 794 628 750 q 601 888 601 839 q 651 1028 601 976 q 786 1081 701 1081 q 871 1065 832 1081 q 938 1020 910 1049 q 981 952 965 992 q 996 864 996 913 q 984 781 996 819 q 959 705 972 742 q 934 632 946 668 q 922 558 922 596 z "},"Û":{"ha":1040,"x_min":33,"x_max":1006,"o":"m 515 1619 q 572 1601 539 1619 q 642 1552 606 1582 q 713 1484 678 1522 q 775 1407 747 1446 q 820 1331 803 1368 q 838 1268 838 1294 q 823 1222 838 1244 q 788 1183 808 1200 q 743 1157 767 1167 q 700 1147 719 1147 q 665 1175 682 1147 q 633 1244 649 1203 q 602 1335 617 1286 q 574 1426 588 1385 q 549 1496 561 1468 q 528 1524 538 1524 q 508 1496 519 1524 q 481 1426 496 1468 q 449 1335 467 1385 q 410 1244 431 1286 q 366 1175 389 1203 q 317 1147 343 1147 q 238 1178 271 1147 q 204 1264 204 1210 q 220 1331 204 1293 q 263 1408 236 1368 q 322 1485 289 1447 q 390 1553 356 1524 q 457 1601 424 1583 q 515 1619 490 1619 m 922 558 q 935 480 922 518 q 964 399 949 442 q 992 306 979 357 q 1006 188 1006 254 q 972 31 1006 100 q 879 -86 939 -37 q 736 -160 819 -135 q 554 -186 653 -186 q 71 172 71 -186 q 78 266 71 221 q 94 353 85 311 q 110 435 103 396 q 117 513 117 475 q 103 609 117 563 q 75 701 90 656 q 47 794 60 747 q 33 892 33 840 q 50 991 33 946 q 97 1069 67 1036 q 169 1119 128 1101 q 263 1136 211 1136 q 407 1081 354 1136 q 460 932 460 1026 q 432 810 460 861 q 370 711 404 758 q 308 612 336 664 q 281 488 281 560 q 297 388 281 436 q 340 303 313 339 q 403 247 367 267 q 479 231 439 226 q 566 258 528 235 q 631 319 604 282 q 672 405 658 356 q 686 511 686 454 q 673 613 686 565 q 644 705 660 660 q 615 794 628 750 q 601 888 601 839 q 651 1028 601 976 q 786 1081 701 1081 q 871 1065 832 1081 q 938 1020 910 1049 q 981 952 965 992 q 996 864 996 913 q 984 781 996 819 q 959 705 972 742 q 934 632 946 668 q 922 558 922 596 z "},"Ü":{"ha":1040,"x_min":33,"x_max":1006,"o":"m 683 1556 q 746 1534 717 1556 q 797 1480 775 1513 q 831 1409 818 1447 q 843 1339 843 1371 q 825 1268 843 1297 q 779 1220 807 1239 q 719 1193 751 1201 q 658 1185 686 1185 q 563 1224 596 1185 q 529 1324 529 1264 q 540 1399 529 1358 q 571 1474 551 1439 q 619 1532 590 1508 q 683 1556 649 1556 m 351 1535 q 415 1513 386 1535 q 466 1460 444 1492 q 499 1390 488 1428 q 511 1319 511 1351 q 493 1249 511 1278 q 448 1201 475 1219 q 388 1174 421 1182 q 328 1165 356 1165 q 231 1205 264 1165 q 197 1304 197 1244 q 208 1379 197 1339 q 239 1454 219 1419 q 288 1512 258 1489 q 351 1535 317 1535 m 922 558 q 935 480 922 518 q 964 399 949 442 q 992 306 979 357 q 1006 188 1006 254 q 972 31 1006 100 q 879 -86 939 -37 q 736 -160 819 -135 q 554 -186 653 -186 q 71 172 71 -186 q 78 266 71 221 q 94 353 85 311 q 110 435 103 396 q 117 513 117 475 q 103 609 117 563 q 75 701 90 656 q 47 794 60 747 q 33 892 33 840 q 50 991 33 946 q 97 1069 67 1036 q 169 1119 128 1101 q 263 1136 211 1136 q 407 1081 354 1136 q 460 932 460 1026 q 432 810 460 861 q 370 711 404 758 q 308 612 336 664 q 281 488 281 560 q 297 388 281 436 q 340 303 313 339 q 403 247 367 267 q 479 231 439 226 q 566 258 528 235 q 631 319 604 282 q 672 405 658 356 q 686 511 686 454 q 673 613 686 565 q 644 705 660 660 q 615 794 628 750 q 601 888 601 839 q 651 1028 601 976 q 786 1081 701 1081 q 871 1065 832 1081 q 938 1020 910 1049 q 981 952 965 992 q 996 864 996 913 q 984 781 996 819 q 959 705 972 742 q 934 632 946 668 q 922 558 922 596 z "},"Ý":{"ha":814,"x_min":6,"x_max":793,"o":"m 358 1150 q 308 1154 339 1150 q 247 1168 276 1158 q 195 1193 217 1178 q 174 1229 174 1208 q 194 1294 174 1258 q 248 1367 215 1331 q 322 1439 281 1404 q 403 1501 363 1474 q 481 1544 444 1528 q 540 1561 517 1561 q 573 1554 556 1561 q 605 1536 590 1547 q 630 1510 619 1525 q 640 1481 640 1496 q 628 1421 640 1456 q 593 1349 615 1386 q 543 1277 571 1313 q 483 1213 515 1242 q 419 1167 451 1185 q 358 1150 388 1150 m 406 758 q 460 784 442 758 q 488 849 478 810 q 505 934 497 889 q 526 1019 513 979 q 565 1084 540 1058 q 635 1110 589 1110 q 697 1096 668 1110 q 747 1059 725 1082 q 781 1006 768 1036 q 793 944 793 976 q 770 855 793 897 q 713 772 747 813 q 638 692 678 732 q 564 611 599 653 q 506 526 529 569 q 483 433 483 482 q 496 365 483 397 q 528 303 508 333 q 569 244 547 274 q 611 185 592 215 q 644 123 631 156 q 658 53 657 90 l 658 47 q 638 -35 658 -1 q 586 -89 618 -68 q 514 -119 554 -110 q 432 -129 474 -129 q 352 -120 393 -129 q 277 -92 311 -111 q 221 -41 243 -72 q 197 36 199 -10 l 197 40 q 222 143 197 92 q 277 244 247 194 q 332 344 307 294 q 357 439 357 393 q 331 545 357 499 q 266 630 306 592 q 181 701 226 668 q 97 766 136 733 q 31 834 57 799 q 6 911 6 869 q 23 978 6 944 q 67 1039 40 1013 q 129 1082 94 1065 q 197 1099 164 1099 q 261 1074 239 1099 q 294 1010 283 1049 q 312 928 306 972 q 327 847 318 885 q 353 783 336 808 q 406 758 371 758 z "},"Þ":{"ha":929,"x_min":28,"x_max":906,"o":"m 243 1158 q 347 1123 307 1158 q 386 1032 386 1088 q 381 981 386 1010 q 368 921 375 951 q 356 863 361 890 q 350 815 350 835 q 363 771 350 788 q 399 754 376 754 q 447 778 425 754 q 499 833 469 803 q 568 887 528 863 q 671 911 608 911 q 845 815 785 911 q 906 536 906 719 q 888 362 906 439 q 838 231 871 285 q 757 148 804 176 q 650 119 710 119 q 581 138 613 119 q 523 185 550 157 q 473 246 496 213 q 431 307 450 279 q 397 353 413 335 q 369 372 382 372 q 347 342 347 372 q 365 281 347 321 q 403 193 382 240 q 442 98 424 146 q 463 14 461 50 l 463 6 q 447 -64 463 -32 q 403 -119 432 -96 q 336 -154 375 -142 q 251 -167 297 -167 q 160 -152 201 -167 q 90 -111 119 -137 q 44 -49 61 -85 q 28 32 28 -12 q 53 149 28 90 q 107 267 78 207 q 161 391 136 328 q 186 521 186 454 q 161 644 186 588 q 107 751 136 700 q 53 852 78 803 q 28 953 28 901 q 45 1031 28 994 q 92 1097 63 1068 q 161 1142 122 1125 q 243 1158 200 1158 m 421 578 q 426 526 421 553 q 443 478 432 500 q 471 443 454 457 q 510 429 488 429 q 549 442 532 429 q 579 476 567 456 q 598 523 592 497 q 604 572 604 549 q 578 649 604 621 q 508 678 553 678 q 443 652 465 678 q 421 578 421 626 z "},"ß":{"ha":935,"x_min":25,"x_max":933,"o":"m 376 1090 q 518 1063 451 1090 q 636 986 585 1035 q 717 872 688 938 q 747 731 747 806 q 719 665 747 696 q 659 606 692 635 q 599 549 626 578 q 571 486 571 519 q 598 447 571 465 q 665 410 625 429 q 752 369 706 392 q 839 317 799 347 q 906 246 879 288 q 933 149 933 204 q 908 15 933 76 q 836 -91 882 -47 q 728 -160 790 -135 q 594 -185 667 -185 q 515 -167 549 -185 q 458 -119 481 -150 q 425 -46 436 -87 q 414 46 414 -4 q 422 128 414 96 q 441 178 429 160 q 467 204 453 197 q 493 211 481 211 q 525 215 508 211 q 555 227 542 218 q 576 251 568 236 q 585 290 585 267 q 558 344 585 318 q 499 397 532 371 q 440 448 467 422 q 414 500 414 474 q 426 544 414 528 q 451 578 438 560 q 477 622 465 596 q 489 694 489 647 q 485 747 489 711 q 471 819 481 782 q 447 883 461 856 q 414 911 433 911 q 360 872 381 911 q 329 779 340 832 q 315 675 318 726 q 311 600 311 624 q 322 467 311 532 q 347 340 333 403 q 372 212 361 276 q 383 79 383 147 q 374 -12 383 35 q 342 -99 364 -60 q 287 -162 321 -137 q 203 -186 253 -186 q 128 -162 161 -186 q 72 -101 94 -137 q 37 -24 49 -65 q 25 54 25 18 q 50 193 25 124 q 104 333 75 263 q 158 474 133 403 q 183 617 183 544 q 163 680 183 649 q 117 742 142 711 q 72 803 93 772 q 51 867 51 835 q 80 985 51 940 q 154 1053 108 1029 q 258 1083 200 1076 q 376 1090 317 1090 z "},"à":{"ha":1296,"x_min":1,"x_max":1299,"o":"m 872 1233 q 855 1195 872 1211 q 813 1169 838 1179 q 762 1154 789 1158 q 715 1150 735 1150 q 657 1167 689 1150 q 592 1213 625 1185 q 530 1278 560 1242 q 476 1352 500 1314 q 438 1427 453 1390 q 424 1493 424 1464 q 435 1528 424 1511 q 465 1559 447 1546 q 502 1581 482 1572 q 539 1589 522 1589 q 596 1568 563 1589 q 666 1515 629 1547 q 740 1442 703 1483 q 806 1363 776 1401 q 854 1289 836 1324 q 872 1233 872 1254 m 1 -8 q 32 104 1 53 q 108 204 63 156 q 207 300 154 253 q 306 399 260 347 q 382 508 351 450 q 413 636 413 567 q 402 710 413 678 q 379 769 392 742 q 356 820 367 796 q 346 874 346 844 q 370 953 346 915 q 435 1019 394 990 q 531 1065 476 1049 q 643 1082 585 1082 q 738 1069 694 1082 q 815 1032 782 1056 q 865 976 847 1008 q 883 906 883 943 q 879 863 883 888 q 870 813 875 839 q 861 759 865 786 q 857 707 857 732 q 890 591 857 639 q 972 504 922 543 q 1078 429 1021 465 q 1184 349 1135 393 q 1266 248 1233 306 q 1299 108 1299 190 q 1228 -78 1299 -10 q 1038 -146 1158 -146 q 833 60 833 -146 q 819 165 833 115 q 781 251 806 214 q 725 309 757 288 q 657 331 693 331 q 597 307 619 331 q 561 244 575 283 q 538 156 547 206 q 518 54 529 106 q 491 -47 507 3 q 446 -136 475 -97 q 371 -199 417 -175 q 257 -222 325 -222 q 154 -206 201 -222 q 73 -162 107 -190 q 20 -94 39 -133 q 1 -8 1 -54 m 549 572 q 578 510 549 535 q 653 485 608 485 q 719 510 694 485 q 743 579 743 535 q 734 641 743 601 q 710 719 725 681 q 678 788 696 758 q 642 817 660 817 q 603 786 621 817 q 574 715 586 756 q 556 633 563 674 q 549 572 549 593 z "},"á":{"ha":1296,"x_min":1,"x_max":1299,"o":"m 600 1150 q 549 1154 581 1150 q 487 1168 517 1158 q 435 1193 457 1178 q 414 1229 414 1208 q 435 1294 414 1258 q 488 1367 456 1331 q 563 1439 521 1404 q 645 1501 604 1474 q 722 1544 686 1528 q 782 1561 758 1561 q 813 1554 796 1561 q 846 1536 831 1547 q 872 1510 861 1525 q 882 1481 882 1496 q 869 1421 882 1456 q 835 1349 857 1386 q 785 1277 813 1313 q 725 1213 757 1242 q 661 1167 693 1185 q 600 1150 629 1150 m 1 -8 q 32 104 1 53 q 108 204 63 156 q 207 300 154 253 q 306 399 260 347 q 382 508 351 450 q 413 636 413 567 q 402 710 413 678 q 379 769 392 742 q 356 820 367 796 q 346 874 346 844 q 370 953 346 915 q 435 1019 394 990 q 531 1065 476 1049 q 643 1082 585 1082 q 738 1069 694 1082 q 815 1032 782 1056 q 865 976 847 1008 q 883 906 883 943 q 879 863 883 888 q 870 813 875 839 q 861 759 865 786 q 857 707 857 732 q 890 591 857 639 q 972 504 922 543 q 1078 429 1021 465 q 1184 349 1135 393 q 1266 248 1233 306 q 1299 108 1299 190 q 1228 -78 1299 -10 q 1038 -146 1158 -146 q 833 60 833 -146 q 819 165 833 115 q 781 251 806 214 q 725 309 757 288 q 657 331 693 331 q 597 307 619 331 q 561 244 575 283 q 538 156 547 206 q 518 54 529 106 q 491 -47 507 3 q 446 -136 475 -97 q 371 -199 417 -175 q 257 -222 325 -222 q 154 -206 201 -222 q 73 -162 107 -190 q 20 -94 39 -133 q 1 -8 1 -54 m 549 572 q 578 510 549 535 q 653 485 608 485 q 719 510 694 485 q 743 579 743 535 q 734 641 743 601 q 710 719 725 681 q 678 788 696 758 q 642 817 660 817 q 603 786 621 817 q 574 715 586 756 q 556 633 563 674 q 549 572 549 593 z "},"â":{"ha":1296,"x_min":1,"x_max":1299,"o":"m 643 1619 q 700 1601 667 1619 q 769 1552 733 1582 q 840 1484 806 1522 q 903 1407 875 1446 q 948 1331 931 1368 q 965 1268 965 1294 q 951 1222 965 1244 q 915 1183 936 1200 q 871 1157 894 1167 q 828 1147 847 1147 q 793 1175 810 1147 q 760 1244 776 1203 q 730 1335 744 1286 q 702 1426 715 1385 q 677 1496 689 1468 q 656 1524 665 1524 q 635 1496 647 1524 q 609 1426 624 1468 q 576 1335 594 1385 q 538 1244 558 1286 q 494 1175 517 1203 q 444 1147 471 1147 q 365 1178 399 1147 q 332 1264 332 1210 q 348 1331 332 1293 q 390 1408 364 1368 q 450 1485 417 1447 q 517 1553 483 1524 q 585 1601 551 1583 q 643 1619 618 1619 m 1 -8 q 32 104 1 53 q 108 204 63 156 q 207 300 154 253 q 306 399 260 347 q 382 508 351 450 q 413 636 413 567 q 402 710 413 678 q 379 769 392 742 q 356 820 367 796 q 346 874 346 844 q 370 953 346 915 q 435 1019 394 990 q 531 1065 476 1049 q 643 1082 585 1082 q 738 1069 694 1082 q 815 1032 782 1056 q 865 976 847 1008 q 883 906 883 943 q 879 863 883 888 q 870 813 875 839 q 861 759 865 786 q 857 707 857 732 q 890 591 857 639 q 972 504 922 543 q 1078 429 1021 465 q 1184 349 1135 393 q 1266 248 1233 306 q 1299 108 1299 190 q 1228 -78 1299 -10 q 1038 -146 1158 -146 q 833 60 833 -146 q 819 165 833 115 q 781 251 806 214 q 725 309 757 288 q 657 331 693 331 q 597 307 619 331 q 561 244 575 283 q 538 156 547 206 q 518 54 529 106 q 491 -47 507 3 q 446 -136 475 -97 q 371 -199 417 -175 q 257 -222 325 -222 q 154 -206 201 -222 q 73 -162 107 -190 q 20 -94 39 -133 q 1 -8 1 -54 m 549 572 q 578 510 549 535 q 653 485 608 485 q 719 510 694 485 q 743 579 743 535 q 734 641 743 601 q 710 719 725 681 q 678 788 696 758 q 642 817 660 817 q 603 786 621 817 q 574 715 586 756 q 556 633 563 674 q 549 572 549 593 z "},"ã":{"ha":1296,"x_min":1,"x_max":1299,"o":"m 508 1496 q 486 1450 486 1496 q 492 1406 486 1429 q 503 1358 497 1383 q 515 1306 510 1333 q 521 1249 521 1278 q 418 1131 521 1131 q 306 1175 350 1131 q 261 1290 261 1219 q 285 1390 261 1342 q 349 1475 310 1438 q 440 1535 389 1513 q 544 1557 490 1557 q 649 1531 606 1557 q 726 1473 693 1504 q 783 1415 758 1442 q 828 1389 807 1389 q 851 1397 846 1389 q 856 1418 857 1406 q 852 1446 856 1431 q 849 1475 849 1461 q 869 1519 849 1500 q 924 1538 890 1538 q 1003 1499 972 1538 q 1035 1399 1035 1460 q 1014 1306 1035 1351 q 959 1226 993 1261 q 881 1169 925 1190 q 789 1149 836 1149 q 699 1174 736 1149 q 635 1239 661 1200 q 591 1322 608 1278 q 560 1406 574 1367 q 535 1470 547 1444 q 508 1496 524 1496 m 1 -8 q 32 104 1 53 q 108 204 63 156 q 207 300 154 253 q 306 399 260 347 q 382 508 351 450 q 413 636 413 567 q 402 710 413 678 q 379 769 392 742 q 356 820 367 796 q 346 874 346 844 q 370 953 346 915 q 435 1019 394 990 q 531 1065 476 1049 q 643 1082 585 1082 q 738 1069 694 1082 q 815 1032 782 1056 q 865 976 847 1008 q 883 906 883 943 q 879 863 883 888 q 870 813 875 839 q 861 759 865 786 q 857 707 857 732 q 890 591 857 639 q 972 504 922 543 q 1078 429 1021 465 q 1184 349 1135 393 q 1266 248 1233 306 q 1299 108 1299 190 q 1228 -78 1299 -10 q 1038 -146 1158 -146 q 833 60 833 -146 q 819 165 833 115 q 781 251 806 214 q 725 309 757 288 q 657 331 693 331 q 597 307 619 331 q 561 244 575 283 q 538 156 547 206 q 518 54 529 106 q 491 -47 507 3 q 446 -136 475 -97 q 371 -199 417 -175 q 257 -222 325 -222 q 154 -206 201 -222 q 73 -162 107 -190 q 20 -94 39 -133 q 1 -8 1 -54 m 549 572 q 578 510 549 535 q 653 485 608 485 q 719 510 694 485 q 743 579 743 535 q 734 641 743 601 q 710 719 725 681 q 678 788 696 758 q 642 817 660 817 q 603 786 621 817 q 574 715 586 756 q 556 633 563 674 q 549 572 549 593 z "},"ä":{"ha":1296,"x_min":1,"x_max":1299,"o":"m 811 1556 q 874 1534 844 1556 q 924 1480 903 1513 q 958 1409 946 1447 q 971 1339 971 1371 q 953 1268 971 1297 q 907 1220 935 1239 q 847 1193 879 1201 q 786 1185 814 1185 q 690 1224 724 1185 q 657 1324 657 1264 q 668 1399 657 1358 q 699 1474 679 1439 q 747 1532 718 1508 q 811 1556 776 1556 m 479 1535 q 543 1513 514 1535 q 594 1460 572 1492 q 627 1390 615 1428 q 639 1319 639 1351 q 621 1249 639 1278 q 576 1201 603 1219 q 516 1174 549 1182 q 456 1165 483 1165 q 358 1205 392 1165 q 325 1304 325 1244 q 336 1379 325 1339 q 367 1454 347 1419 q 415 1512 386 1489 q 479 1535 444 1535 m 1 -8 q 32 104 1 53 q 108 204 63 156 q 207 300 154 253 q 306 399 260 347 q 382 508 351 450 q 413 636 413 567 q 402 710 413 678 q 379 769 392 742 q 356 820 367 796 q 346 874 346 844 q 370 953 346 915 q 435 1019 394 990 q 531 1065 476 1049 q 643 1082 585 1082 q 738 1069 694 1082 q 815 1032 782 1056 q 865 976 847 1008 q 883 906 883 943 q 879 863 883 888 q 870 813 875 839 q 861 759 865 786 q 857 707 857 732 q 890 591 857 639 q 972 504 922 543 q 1078 429 1021 465 q 1184 349 1135 393 q 1266 248 1233 306 q 1299 108 1299 190 q 1228 -78 1299 -10 q 1038 -146 1158 -146 q 833 60 833 -146 q 819 165 833 115 q 781 251 806 214 q 725 309 757 288 q 657 331 693 331 q 597 307 619 331 q 561 244 575 283 q 538 156 547 206 q 518 54 529 106 q 491 -47 507 3 q 446 -136 475 -97 q 371 -199 417 -175 q 257 -222 325 -222 q 154 -206 201 -222 q 73 -162 107 -190 q 20 -94 39 -133 q 1 -8 1 -54 m 549 572 q 578 510 549 535 q 653 485 608 485 q 719 510 694 485 q 743 579 743 535 q 734 641 743 601 q 710 719 725 681 q 678 788 696 758 q 642 817 660 817 q 603 786 621 817 q 574 715 586 756 q 556 633 563 674 q 549 572 549 593 z "},"å":{"ha":1296,"x_min":1,"x_max":1299,"o":"m 651 1157 q 529 1172 583 1157 q 437 1216 475 1188 q 378 1285 399 1244 q 357 1375 357 1325 q 379 1472 357 1428 q 441 1548 401 1515 q 535 1599 481 1581 q 654 1617 590 1617 q 769 1599 717 1617 q 860 1550 822 1582 q 918 1474 897 1518 q 939 1376 939 1429 q 863 1215 939 1274 q 651 1157 786 1157 m 646 1524 q 603 1515 625 1524 q 565 1494 582 1507 q 535 1464 547 1481 q 524 1432 524 1447 q 535 1401 524 1417 q 563 1372 546 1385 q 601 1350 581 1358 q 643 1342 622 1342 q 687 1351 664 1342 q 729 1374 710 1360 q 761 1404 749 1388 q 774 1435 774 1421 q 762 1465 774 1449 q 731 1494 750 1481 q 690 1515 713 1507 q 646 1524 667 1524 m 1 -8 q 32 104 1 53 q 108 204 63 156 q 207 300 154 253 q 306 399 260 347 q 382 508 351 450 q 413 636 413 567 q 402 710 413 678 q 379 769 392 742 q 356 820 367 796 q 346 874 346 844 q 370 953 346 915 q 435 1019 394 990 q 531 1065 476 1049 q 643 1082 585 1082 q 738 1069 694 1082 q 815 1032 782 1056 q 865 976 847 1008 q 883 906 883 943 q 879 863 883 888 q 870 813 875 839 q 861 759 865 786 q 857 707 857 732 q 890 591 857 639 q 972 504 922 543 q 1078 429 1021 465 q 1184 349 1135 393 q 1266 248 1233 306 q 1299 108 1299 190 q 1228 -78 1299 -10 q 1038 -146 1158 -146 q 833 60 833 -146 q 819 165 833 115 q 781 251 806 214 q 725 309 757 288 q 657 331 693 331 q 597 307 619 331 q 561 244 575 283 q 538 156 547 206 q 518 54 529 106 q 491 -47 507 3 q 446 -136 475 -97 q 371 -199 417 -175 q 257 -222 325 -222 q 154 -206 201 -222 q 73 -162 107 -190 q 20 -94 39 -133 q 1 -8 1 -54 m 549 572 q 578 510 549 535 q 653 485 608 485 q 719 510 694 485 q 743 579 743 535 q 734 641 743 601 q 710 719 725 681 q 678 788 696 758 q 642 817 660 817 q 603 786 621 817 q 574 715 586 756 q 556 633 563 674 q 549 572 549 593 z "},"æ":{"ha":1629,"x_min":1,"x_max":1617,"o":"m 1 -8 q 32 104 1 53 q 108 204 63 156 q 207 300 154 253 q 306 399 260 347 q 382 508 351 450 q 413 636 413 567 q 402 708 413 676 q 379 767 392 739 q 356 820 367 794 q 346 874 346 846 q 376 964 346 925 q 451 1029 407 1003 q 547 1069 496 1056 q 642 1082 599 1082 q 717 1074 679 1082 q 788 1049 754 1067 q 858 1085 819 1071 q 939 1106 897 1099 q 1023 1117 981 1114 q 1103 1119 1065 1119 q 1186 1117 1139 1119 q 1285 1109 1233 1115 q 1386 1089 1336 1103 q 1475 1051 1436 1075 q 1538 991 1514 1026 q 1563 904 1563 956 q 1554 833 1563 869 q 1527 767 1546 797 q 1479 719 1508 738 q 1410 700 1450 700 q 1311 719 1342 700 q 1271 768 1281 739 q 1262 832 1261 797 q 1256 896 1263 867 q 1227 944 1250 925 q 1146 964 1204 964 q 1083 948 1111 964 q 1036 907 1056 932 q 1006 850 1017 882 q 996 786 996 818 q 1008 728 996 756 q 1040 679 1019 700 q 1087 647 1060 658 q 1146 635 1114 635 q 1211 638 1178 635 q 1276 642 1244 642 q 1335 638 1304 642 q 1392 623 1367 635 q 1435 590 1418 611 q 1451 532 1451 568 q 1440 485 1451 503 q 1410 458 1429 467 q 1368 445 1392 449 q 1321 442 1344 442 q 1269 444 1294 442 q 1217 446 1243 446 q 1149 437 1188 446 q 1077 410 1111 428 q 1019 366 1043 393 q 996 303 996 339 q 1007 233 996 265 q 1039 177 1018 201 q 1090 139 1060 153 q 1158 125 1119 125 q 1233 140 1201 125 q 1290 178 1265 156 q 1337 226 1315 200 q 1381 275 1358 253 q 1428 313 1403 297 q 1486 328 1453 328 q 1551 308 1526 328 q 1591 260 1576 289 q 1611 196 1606 231 q 1617 129 1617 161 q 1570 -56 1617 17 q 1449 -169 1524 -128 q 1281 -227 1374 -211 q 1093 -243 1188 -243 q 956 -235 1031 -243 q 815 -199 881 -226 q 706 -123 750 -172 q 663 8 663 -74 q 677 94 663 57 q 708 160 692 131 q 740 213 725 189 q 754 260 754 238 q 723 315 754 300 q 657 331 692 331 q 597 307 619 331 q 561 244 575 283 q 538 156 547 206 q 518 54 529 106 q 490 -47 507 3 q 444 -136 474 -97 q 370 -199 415 -175 q 257 -222 325 -222 q 163 -208 210 -222 q 81 -167 117 -194 q 24 -101 46 -140 q 1 -8 1 -61 m 549 572 q 581 508 549 531 q 653 485 614 485 q 719 510 696 485 q 743 579 743 536 q 735 635 743 596 q 713 715 726 674 q 681 786 699 756 q 642 817 663 817 q 602 785 619 817 q 573 711 585 753 q 555 629 561 669 q 549 572 549 589 z "},"ç":{"ha":982,"x_min":46,"x_max":963,"o":"m 46 397 q 79 693 46 560 q 174 922 113 826 q 322 1069 236 1017 q 511 1122 407 1122 q 648 1098 582 1122 q 765 1034 714 1074 q 846 942 815 994 q 876 833 876 890 q 861 758 876 793 q 819 697 846 722 q 755 656 792 671 q 676 640 718 640 q 576 672 614 640 q 538 756 538 704 q 545 814 538 781 q 553 878 553 847 q 539 929 553 908 q 483 950 525 950 q 390 920 435 950 q 313 839 346 890 q 260 721 279 788 q 240 579 240 654 q 262 437 240 503 q 321 322 283 371 q 410 247 358 274 q 521 219 461 219 q 665 282 613 219 q 718 456 718 344 q 747 571 718 535 q 839 607 776 607 q 935 561 907 607 q 963 406 963 515 q 940 206 963 299 q 874 41 917 114 q 769 -85 831 -32 q 633 -165 708 -137 q 664 -187 646 -178 q 699 -212 682 -197 q 727 -252 715 -228 q 739 -318 739 -276 q 708 -426 739 -382 q 631 -496 678 -469 q 526 -533 583 -522 q 417 -544 469 -544 q 351 -532 379 -544 q 306 -498 324 -519 q 280 -447 289 -476 q 271 -386 271 -418 q 294 -332 271 -350 q 353 -305 318 -314 q 431 -293 389 -296 q 508 -286 472 -290 q 567 -273 543 -282 q 590 -242 590 -264 q 581 -226 590 -233 q 556 -215 571 -219 q 520 -205 540 -210 q 481 -194 500 -200 l 467 -194 q 153 -44 260 -194 q 46 397 46 107 z "},"è":{"ha":967,"x_min":0,"x_max":954,"o":"m 707 1233 q 690 1195 707 1211 q 649 1169 674 1179 q 598 1154 625 1158 q 551 1150 571 1150 q 493 1167 525 1150 q 428 1213 461 1185 q 366 1278 396 1242 q 313 1352 336 1314 q 274 1427 289 1390 q 260 1493 260 1464 q 272 1528 260 1511 q 301 1559 283 1546 q 338 1581 318 1572 q 375 1589 358 1589 q 432 1568 399 1589 q 502 1515 465 1547 q 576 1442 539 1483 q 642 1363 613 1401 q 689 1289 671 1324 q 707 1233 707 1254 m 440 1119 q 623 1108 539 1119 q 769 1072 707 1097 q 865 1006 831 1047 q 900 904 900 965 q 881 796 900 836 q 835 734 861 756 q 784 706 810 713 q 747 700 758 700 q 661 715 692 700 q 617 754 631 731 q 600 805 603 778 q 597 856 597 832 q 594 902 597 882 q 578 936 590 922 q 543 957 565 950 q 483 964 521 964 q 426 950 453 964 q 378 912 399 936 q 345 856 357 888 q 333 786 333 824 q 346 725 333 753 q 379 677 358 697 q 427 646 400 657 q 483 635 454 635 q 529 638 500 635 q 592 642 558 640 q 661 640 626 643 q 724 625 696 636 q 771 592 753 614 q 789 532 789 569 q 763 468 789 488 q 701 444 738 449 q 624 442 665 439 q 554 446 583 446 q 482 436 521 446 q 410 408 443 426 q 356 363 378 389 q 333 303 333 336 q 347 226 333 260 q 382 170 360 193 q 434 136 404 147 q 496 125 464 125 q 571 140 539 125 q 628 178 603 156 q 676 226 654 200 q 719 275 697 253 q 765 313 740 297 q 824 328 790 328 q 920 276 886 328 q 954 129 954 224 q 821 -148 954 -53 q 431 -243 688 -243 q 113 -181 222 -243 q 0 3 3 -118 l 0 8 q 35 143 0 83 q 113 258 69 203 q 191 370 156 313 q 226 499 226 428 q 199 610 226 561 q 138 703 171 658 q 76 796 104 749 q 49 903 49 843 q 148 1065 49 1010 q 440 1119 247 1119 z "},"é":{"ha":967,"x_min":0,"x_max":954,"o":"m 435 1150 q 384 1154 415 1150 q 323 1168 353 1158 q 272 1193 293 1178 q 250 1229 250 1208 q 271 1294 250 1258 q 324 1367 292 1331 q 398 1439 357 1404 q 480 1501 439 1474 q 557 1544 521 1528 q 617 1561 593 1561 q 649 1554 632 1561 q 681 1536 667 1547 q 706 1510 696 1525 q 717 1481 717 1496 q 704 1421 717 1456 q 669 1349 692 1386 q 619 1277 647 1313 q 560 1213 592 1242 q 496 1167 528 1185 q 435 1150 464 1150 m 440 1119 q 623 1108 539 1119 q 769 1072 707 1097 q 865 1006 831 1047 q 900 904 900 965 q 881 796 900 836 q 835 734 861 756 q 784 706 810 713 q 747 700 758 700 q 661 715 692 700 q 617 754 631 731 q 600 805 603 778 q 597 856 597 832 q 594 902 597 882 q 578 936 590 922 q 543 957 565 950 q 483 964 521 964 q 426 950 453 964 q 378 912 399 936 q 345 856 357 888 q 333 786 333 824 q 346 725 333 753 q 379 677 358 697 q 427 646 400 657 q 483 635 454 635 q 529 638 500 635 q 592 642 558 640 q 661 640 626 643 q 724 625 696 636 q 771 592 753 614 q 789 532 789 569 q 763 468 789 488 q 701 444 738 449 q 624 442 665 439 q 554 446 583 446 q 482 436 521 446 q 410 408 443 426 q 356 363 378 389 q 333 303 333 336 q 347 226 333 260 q 382 170 360 193 q 434 136 404 147 q 496 125 464 125 q 571 140 539 125 q 628 178 603 156 q 676 226 654 200 q 719 275 697 253 q 765 313 740 297 q 824 328 790 328 q 920 276 886 328 q 954 129 954 224 q 821 -148 954 -53 q 431 -243 688 -243 q 113 -181 222 -243 q 0 3 3 -118 l 0 8 q 35 143 0 83 q 113 258 69 203 q 191 370 156 313 q 226 499 226 428 q 199 610 226 561 q 138 703 171 658 q 76 796 104 749 q 49 903 49 843 q 148 1065 49 1010 q 440 1119 247 1119 z "},"ê":{"ha":967,"x_min":0,"x_max":954,"o":"m 479 1619 q 535 1601 503 1619 q 604 1552 568 1582 q 675 1484 640 1522 q 738 1407 710 1446 q 783 1331 765 1368 q 800 1268 800 1294 q 786 1222 800 1244 q 751 1183 772 1200 q 707 1157 731 1167 q 664 1147 683 1147 q 629 1175 646 1147 q 597 1244 613 1203 q 566 1335 581 1286 q 538 1426 551 1385 q 513 1496 525 1468 q 492 1524 501 1524 q 471 1496 483 1524 q 444 1426 458 1468 q 411 1335 429 1385 q 373 1244 393 1286 q 330 1175 353 1203 q 281 1147 307 1147 q 201 1178 235 1147 q 167 1264 167 1210 q 183 1331 167 1293 q 225 1408 199 1368 q 285 1485 251 1447 q 353 1553 318 1524 q 421 1601 388 1583 q 479 1619 454 1619 m 440 1119 q 623 1108 539 1119 q 769 1072 707 1097 q 865 1006 831 1047 q 900 904 900 965 q 881 796 900 836 q 835 734 861 756 q 784 706 810 713 q 747 700 758 700 q 661 715 692 700 q 617 754 631 731 q 600 805 603 778 q 597 856 597 832 q 594 902 597 882 q 578 936 590 922 q 543 957 565 950 q 483 964 521 964 q 426 950 453 964 q 378 912 399 936 q 345 856 357 888 q 333 786 333 824 q 346 725 333 753 q 379 677 358 697 q 427 646 400 657 q 483 635 454 635 q 529 638 500 635 q 592 642 558 640 q 661 640 626 643 q 724 625 696 636 q 771 592 753 614 q 789 532 789 569 q 763 468 789 488 q 701 444 738 449 q 624 442 665 439 q 554 446 583 446 q 482 436 521 446 q 410 408 443 426 q 356 363 378 389 q 333 303 333 336 q 347 226 333 260 q 382 170 360 193 q 434 136 404 147 q 496 125 464 125 q 571 140 539 125 q 628 178 603 156 q 676 226 654 200 q 719 275 697 253 q 765 313 740 297 q 824 328 790 328 q 920 276 886 328 q 954 129 954 224 q 821 -148 954 -53 q 431 -243 688 -243 q 113 -181 222 -243 q 0 3 3 -118 l 0 8 q 35 143 0 83 q 113 258 69 203 q 191 370 156 313 q 226 499 226 428 q 199 610 226 561 q 138 703 171 658 q 76 796 104 749 q 49 903 49 843 q 148 1065 49 1010 q 440 1119 247 1119 z "},"ë":{"ha":967,"x_min":0,"x_max":954,"o":"m 646 1556 q 710 1534 681 1556 q 760 1480 739 1513 q 794 1409 782 1447 q 806 1339 806 1371 q 788 1268 806 1297 q 742 1220 769 1239 q 683 1193 715 1201 q 622 1185 650 1185 q 525 1224 558 1185 q 492 1324 492 1264 q 503 1399 492 1358 q 533 1474 514 1439 q 582 1532 553 1508 q 646 1556 611 1556 m 315 1535 q 378 1513 349 1535 q 428 1460 407 1492 q 463 1390 450 1428 q 475 1319 475 1351 q 457 1249 475 1278 q 411 1201 439 1219 q 351 1174 383 1182 q 290 1165 318 1165 q 194 1205 228 1165 q 161 1304 161 1244 q 172 1379 161 1339 q 203 1454 183 1419 q 251 1512 222 1489 q 315 1535 281 1535 m 440 1119 q 623 1108 539 1119 q 769 1072 707 1097 q 865 1006 831 1047 q 900 904 900 965 q 881 796 900 836 q 835 734 861 756 q 784 706 810 713 q 747 700 758 700 q 661 715 692 700 q 617 754 631 731 q 600 805 603 778 q 597 856 597 832 q 594 902 597 882 q 578 936 590 922 q 543 957 565 950 q 483 964 521 964 q 426 950 453 964 q 378 912 399 936 q 345 856 357 888 q 333 786 333 824 q 346 725 333 753 q 379 677 358 697 q 427 646 400 657 q 483 635 454 635 q 529 638 500 635 q 592 642 558 640 q 661 640 626 643 q 724 625 696 636 q 771 592 753 614 q 789 532 789 569 q 763 468 789 488 q 701 444 738 449 q 624 442 665 439 q 554 446 583 446 q 482 436 521 446 q 410 408 443 426 q 356 363 378 389 q 333 303 333 336 q 347 226 333 260 q 382 170 360 193 q 434 136 404 147 q 496 125 464 125 q 571 140 539 125 q 628 178 603 156 q 676 226 654 200 q 719 275 697 253 q 765 313 740 297 q 824 328 790 328 q 920 276 886 328 q 954 129 954 224 q 821 -148 954 -53 q 431 -243 688 -243 q 113 -181 222 -243 q 0 3 3 -118 l 0 8 q 35 143 0 83 q 113 258 69 203 q 191 370 156 313 q 226 499 226 428 q 199 610 226 561 q 138 703 171 658 q 76 796 104 749 q 49 903 49 843 q 148 1065 49 1010 q 440 1119 247 1119 z "},"ì":{"ha":585,"x_min":13,"x_max":522,"o":"m 517 1233 q 499 1195 517 1211 q 458 1169 482 1179 q 406 1154 433 1158 q 360 1150 379 1150 q 301 1167 333 1150 q 237 1213 269 1185 q 174 1278 204 1242 q 121 1352 144 1314 q 83 1427 97 1390 q 68 1493 68 1464 q 80 1528 68 1511 q 109 1559 92 1546 q 147 1581 126 1572 q 183 1589 167 1589 q 240 1568 207 1589 q 311 1515 274 1547 q 385 1442 349 1483 q 451 1363 422 1401 q 499 1289 481 1324 q 517 1233 517 1254 m 274 1122 q 428 1079 372 1122 q 485 961 485 1036 q 465 862 485 914 q 422 754 446 810 q 378 642 397 699 q 358 528 358 585 q 384 406 358 464 q 440 285 410 347 q 497 153 471 224 q 522 -10 522 82 q 286 -257 522 -257 q 91 -199 165 -257 q 13 -46 17 -142 l 13 -36 q 31 52 13 10 q 78 136 50 94 q 140 218 107 178 q 202 301 174 258 q 249 388 231 343 q 268 481 268 432 q 238 594 268 543 q 169 697 207 646 q 101 804 132 749 q 71 929 71 860 q 274 1122 71 1122 z "},"í":{"ha":585,"x_min":13,"x_max":526,"o":"m 244 1150 q 193 1154 225 1150 q 131 1168 161 1158 q 80 1193 101 1178 q 58 1229 58 1208 q 79 1294 58 1258 q 133 1367 100 1331 q 207 1439 165 1404 q 290 1501 249 1474 q 367 1544 331 1528 q 426 1561 403 1561 q 458 1554 440 1561 q 490 1536 475 1547 q 516 1510 506 1525 q 526 1481 526 1496 q 514 1421 526 1456 q 479 1349 501 1386 q 429 1277 457 1313 q 369 1213 401 1242 q 306 1167 338 1185 q 244 1150 274 1150 m 274 1122 q 428 1079 372 1122 q 485 961 485 1036 q 465 862 485 914 q 422 754 446 810 q 378 642 397 699 q 358 528 358 585 q 384 406 358 464 q 440 285 410 347 q 497 153 471 224 q 522 -10 522 82 q 286 -257 522 -257 q 91 -199 165 -257 q 13 -46 17 -142 l 13 -36 q 31 52 13 10 q 78 136 50 94 q 140 218 107 178 q 202 301 174 258 q 249 388 231 343 q 268 481 268 432 q 238 594 268 543 q 169 697 207 646 q 101 804 132 749 q 71 929 71 860 q 274 1122 71 1122 z "},"î":{"ha":585,"x_min":-25,"x_max":608,"o":"m 288 1619 q 344 1601 311 1619 q 413 1552 378 1582 q 484 1484 449 1522 q 547 1407 519 1446 q 591 1331 574 1368 q 608 1268 608 1294 q 594 1222 608 1244 q 560 1183 581 1200 q 515 1157 539 1167 q 472 1147 492 1147 q 438 1175 454 1147 q 405 1244 421 1203 q 374 1335 389 1286 q 347 1426 360 1385 q 322 1496 333 1468 q 300 1524 310 1524 q 280 1496 292 1524 q 253 1426 268 1468 q 221 1335 239 1385 q 182 1244 203 1286 q 138 1175 161 1203 q 89 1147 115 1147 q 9 1178 43 1147 q -25 1264 -25 1210 q -9 1331 -25 1293 q 33 1408 7 1368 q 93 1485 60 1447 q 161 1553 126 1524 q 229 1601 196 1583 q 288 1619 263 1619 m 274 1122 q 428 1079 372 1122 q 485 961 485 1036 q 465 862 485 914 q 422 754 446 810 q 378 642 397 699 q 358 528 358 585 q 384 406 358 464 q 440 285 410 347 q 497 153 471 224 q 522 -10 522 82 q 286 -257 522 -257 q 91 -199 165 -257 q 13 -46 17 -142 l 13 -36 q 31 52 13 10 q 78 136 50 94 q 140 218 107 178 q 202 301 174 258 q 249 388 231 343 q 268 481 268 432 q 238 594 268 543 q 169 697 207 646 q 101 804 132 749 q 71 929 71 860 q 274 1122 71 1122 z "},"ï":{"ha":585,"x_min":-31,"x_max":615,"o":"m 456 1556 q 518 1534 489 1556 q 569 1480 547 1513 q 603 1409 590 1447 q 615 1339 615 1371 q 597 1268 615 1297 q 551 1220 579 1239 q 491 1193 524 1201 q 431 1185 458 1185 q 335 1224 368 1185 q 301 1324 301 1264 q 313 1399 301 1358 q 343 1474 324 1439 q 392 1532 363 1508 q 456 1556 421 1556 m 124 1535 q 188 1513 158 1535 q 238 1460 217 1492 q 272 1390 260 1428 q 283 1319 283 1351 q 265 1249 283 1278 q 220 1201 247 1219 q 160 1174 193 1182 q 100 1165 128 1165 q 3 1205 36 1165 q -31 1304 -31 1244 q -19 1379 -31 1339 q 11 1454 -8 1419 q 60 1512 31 1489 q 124 1535 89 1535 m 274 1122 q 428 1079 372 1122 q 485 961 485 1036 q 465 862 485 914 q 422 754 446 810 q 378 642 397 699 q 358 528 358 585 q 384 406 358 464 q 440 285 410 347 q 497 153 471 224 q 522 -10 522 82 q 286 -257 522 -257 q 91 -199 165 -257 q 13 -46 17 -142 l 13 -36 q 31 52 13 10 q 78 136 50 94 q 140 218 107 178 q 202 301 174 258 q 249 388 231 343 q 268 481 268 432 q 238 594 268 543 q 169 697 207 646 q 101 804 132 749 q 71 929 71 860 q 274 1122 71 1122 z "}}}
